<svg width="73" height="70" viewBox="0 0 73 70" fill="none" xmlns="http://www.w3.org/2000/svg">
<path d="M36.7016 0.152832C16.96 0.152832 0.970215 16.1515 0.970215 35.8842C0.970215 51.6745 11.2072 65.0648 25.4015 69.7843C27.1881 70.1208 27.8432 69.0161 27.8432 68.0662C27.8432 67.2176 27.8134 64.9695 27.7985 61.9919C17.8592 64.1477 15.763 57.1979 15.763 57.1979C14.1372 53.0739 11.7879 51.9722 11.7879 51.9722C8.55121 49.7569 12.038 49.8015 12.038 49.8015C15.626 50.0517 17.5108 53.4819 17.5108 53.4819C20.6969 58.9458 25.875 57.3676 27.9176 56.4535C28.2392 54.1429 29.1593 52.5677 30.1806 51.6744C22.2453 50.7812 13.905 47.7083 13.905 34.0172C13.905 30.1165 15.2895 26.9305 17.5823 24.4293C17.1803 23.5271 15.9744 19.8944 17.895 14.9724C17.895 14.9724 20.8875 14.0136 27.7211 18.6349C30.5796 17.8398 33.6168 17.4468 36.6539 17.4289C39.6911 17.4468 42.7282 17.8398 45.5868 18.6349C52.3757 14.0136 55.3682 14.9724 55.3682 14.9724C57.2888 19.8944 56.0828 23.5271 55.7255 24.4293C58.0034 26.9305 59.388 30.1165 59.388 34.0172C59.388 47.744 51.0358 50.7663 43.0856 51.6447C44.3362 52.7166 45.4974 54.9081 45.4974 58.255C45.4974 63.037 45.4528 66.8781 45.4528 68.0394C45.4528 68.9774 46.0781 70.094 47.9093 69.7366C62.2048 65.0499 72.4329 51.6506 72.4329 35.8842C72.4329 16.1515 56.4342 0.152832 36.7016 0.152832Z" fill="black"/>
</svg>
