<svg xmlns="http://www.w3.org/2000/svg" viewBox="0 0 16 16" fill="none" id="Tag--Streamline-Majesticons" height="16" width="16">
  <desc>
    Tag Streamline Icon: https://streamlinehq.com
  </desc>
  <path fill="#000000" fill-rule="evenodd" d="M1.3333333333333333 3.333333333333333a2 2 0 0 1 2 -2h4.1146666666666665a2 2 0 0 1 1.4133333333333333 0.586l5.333333333333333 5.333333333333333a2 2 0 0 1 0 2.828l-4.113333333333333 4.1146666666666665a2 2 0 0 1 -2.828666666666667 0l-5.333333333333333 -5.333333333333333A2 2 0 0 1 1.3333333333333333 7.448V3.333333333333333zm3.333333333333333 0.6666666666666666a0.6666666666666666 0.6666666666666666 0 0 0 0 1.3333333333333333h0.0006666666666666666a0.6666666666666666 0.6666666666666666 0 0 0 0 -1.3333333333333333H4.666666666666666z" clip-rule="evenodd" stroke-width="0.6667"></path>
</svg>