<svg width="32" height="32" viewBox="0 0 32 32" fill="none" xmlns="http://www.w3.org/2000/svg">
<g clip-path="url(#clip0_12_8)">
<path d="M20.6376 17.4493C22.4576 17.4493 25.0931 17.0708 25.0931 14.9012C25.093 14.7353 25.0784 14.5696 25.0494 14.4062L23.9719 9.68856C23.7244 8.65476 23.506 8.17426 21.6859 7.2715C20.2736 6.54347 17.2013 5.36407 16.284 5.36407C15.4249 5.36407 15.1774 6.45611 14.1727 6.45611C13.1971 6.45611 12.4836 5.64072 11.5663 5.64072C10.6927 5.64072 10.1248 6.2377 9.68801 7.46079C9.68801 7.46079 8.46492 10.9116 8.30476 11.4213C8.2807 11.5114 8.27087 11.6047 8.27563 11.6979C8.26107 13.0375 13.5466 17.4348 20.6376 17.4493ZM25.3698 15.7894C25.6173 16.9834 25.6173 17.1145 25.6173 17.2601C25.6173 19.2985 23.3313 20.4343 20.3172 20.4343C13.5029 20.4343 7.54761 16.4447 7.54761 13.8092C7.54694 13.4437 7.62127 13.0819 7.76601 12.7463C5.31984 12.8628 2.14563 13.2996 2.14563 16.0952C2.14563 20.6818 13.0078 26.3313 21.5986 26.3313C28.1945 26.3313 29.8544 23.3464 29.8544 20.9876C29.8544 19.1384 28.2528 17.0417 25.3698 15.7894Z" fill="#EE0000"/>
<path d="M25.3696 15.7894C25.6172 16.9834 25.6172 17.1145 25.6172 17.2601C25.6172 19.2985 23.3312 20.4343 20.3171 20.4343C13.5028 20.4343 7.54749 16.4447 7.54749 13.8092C7.54682 13.4437 7.62116 13.0819 7.7659 12.7463L8.30464 11.4213C8.28058 11.5114 8.27076 11.6048 8.27552 11.6979C8.27552 13.0375 13.561 17.4348 20.6375 17.4348C22.4575 17.4348 25.093 17.0562 25.093 14.8867C25.0929 14.7207 25.0783 14.5551 25.0493 14.3916L25.3696 15.7894Z" fill="black"/>
</g>
<defs>
<clipPath id="clip0_12_8">
<rect width="28" height="21.2585" fill="white" transform="translate(2 5.21846)"/>
</clipPath>
</defs>
</svg>
