<svg width="32" height="32" viewBox="0 0 32 32" fill="none" xmlns="http://www.w3.org/2000/svg">
<path d="M12.1721 19.1037V16.1539L10.0479 18.2803C10.2768 18.4396 10.4925 18.5704 10.6954 18.6769C10.8983 18.7835 11.0882 18.8659 11.2651 18.9285C11.4421 18.9913 11.6062 19.0342 11.7572 19.062C11.9084 19.0896 12.0466 19.102 12.1721 19.1037ZM23.0318 18.8585C23.0356 18.8617 23.0563 18.8792 23.0944 18.9035C23.1328 18.9279 23.1888 18.9593 23.2633 18.9903C23.3376 19.0212 23.4305 19.0518 23.5426 19.0746C23.6546 19.0975 23.7859 19.1126 23.9371 19.1126C24.0632 19.1126 24.2024 19.1015 24.3549 19.075C24.5076 19.0483 24.6733 19.0059 24.8523 18.9435C25.0315 18.8809 25.2239 18.7982 25.4296 18.6908C25.6353 18.5832 25.8544 18.4508 26.0868 18.2891L24.4749 16.7101L19.1325 11.3478L16.7884 13.6926L13.6262 10.4317L5.69 18.2782C5.92223 18.4399 6.14093 18.5723 6.34646 18.6799C6.55199 18.7873 6.74417 18.87 6.92319 18.9326C7.10202 18.995 7.26769 19.0374 7.42019 19.0639C7.57251 19.0906 7.71166 19.1017 7.83765 19.1017C7.98884 19.1017 8.12009 19.0866 8.23198 19.0637C8.34405 19.0409 8.43676 19.0103 8.51123 18.9792C8.58569 18.9484 8.64154 18.917 8.6799 18.8926C8.71826 18.8681 8.73895 18.8506 8.74271 18.8474L12.3253 15.2648L13.6065 14.0363L17.1541 17.584L18.3935 18.8585C18.3973 18.8617 18.418 18.8792 18.4563 18.9035C18.4947 18.9279 18.5505 18.9593 18.625 18.9903C18.6995 19.0212 18.7924 19.0518 18.9043 19.0746C19.0163 19.0975 19.1478 19.1126 19.299 19.1126C19.4249 19.1126 19.5643 19.1015 19.7168 19.075C19.8693 19.0483 20.0352 19.0059 20.2142 18.9435C20.3932 18.8809 20.5856 18.7982 20.7913 18.6908C20.997 18.5832 21.2161 18.4508 21.4485 18.2891L18.6017 15.5014L19.1316 14.9715L21.5952 17.435L23.0318 18.8585ZM23.0012 4L30 16.1255L23.0012 28.251H8.99882L2 16.1255L8.99882 4H23.0012Z" fill="#0D597F"/>
<path d="M18.6341 15.5348L16.77 13.6741L16.9026 13.5408L18.7798 15.3975L18.6341 15.5348Z" fill="#0D597F"/>
</svg>
