<svg width="73" height="62" viewBox="0 0 73 62" fill="none" xmlns="http://www.w3.org/2000/svg">
<path d="M18.5611 0.0534668L0.701416 30.9998L18.5611 61.9461H54.3044L72.1641 30.9998L54.3044 0.0534668H18.5611ZM30.3733 16.469L38.398 24.7468L43.1562 29.4961L43.1622 29.4901L50.3382 36.5262C49.7427 36.9431 49.1888 37.2766 48.6618 37.5505C48.1857 37.8012 47.6921 38.0171 47.1849 38.1967C46.7728 38.341 46.3495 38.4515 45.9194 38.5272C45.5294 38.5957 45.175 38.6284 44.8534 38.6284C44.4664 38.6284 44.1329 38.5867 43.847 38.5272C43.6025 38.4786 43.3632 38.4068 43.1324 38.3128C42.921 38.2251 42.721 38.1122 42.5369 37.9763L39.3746 34.7248L30.3257 25.6699L27.0503 28.8053L17.909 37.9525C17.7242 38.0857 17.5243 38.1966 17.3135 38.283C17.0859 38.3783 16.8496 38.4511 16.6078 38.5004C16.322 38.5599 15.9855 38.5987 15.6014 38.5987C15.2798 38.5987 14.9255 38.5719 14.5354 38.5063C14.105 38.4278 13.6818 38.3143 13.2699 38.1669C12.7627 37.9874 12.2691 37.7715 11.793 37.5208C11.2133 37.2159 10.6534 36.8748 10.1166 36.4994L30.3733 16.469ZM44.4276 18.8065L58.0621 32.4975L62.1772 36.5262C61.6395 36.9027 61.0786 37.2448 60.4978 37.5505C60.0237 37.8011 59.5321 38.0171 59.0269 38.1967C58.6138 38.3412 58.1895 38.4518 57.7584 38.5272C57.3713 38.5957 57.011 38.6284 56.6865 38.6284C56.3024 38.6284 55.9689 38.5867 55.683 38.5272C55.28 38.4448 54.8929 38.298 54.5366 38.0925C54.4384 38.0329 54.3878 37.9853 54.3788 37.9734L50.7104 34.3466L44.4247 28.0609L43.4301 29.0554L38.7851 24.449L44.4306 18.8005L44.4276 18.8065ZM26.6632 31.0742V38.6046C26.3076 38.5997 25.953 38.5648 25.6032 38.5004C25.1759 38.4186 24.7557 38.3031 24.3466 38.155C23.8476 37.9777 23.362 37.7648 22.8936 37.5178C22.3222 37.215 21.7702 36.8769 21.241 36.5054L26.6602 31.0713L26.6632 31.0742Z" fill="black"/>
</svg>
