<svg width="72" height="56" viewBox="0 0 72 56" fill="none" xmlns="http://www.w3.org/2000/svg">
<path d="M36.1344 0.87793C16.4018 0.87793 0.403076 11.5944 0.403076 24.809C0.403076 36.4128 12.7423 46.0811 29.1073 48.2726V41.1174C20.4007 38.3929 14.4425 32.9141 14.4425 26.5956C14.4425 17.5585 26.6031 10.2366 41.5983 10.2366C56.5995 10.2366 67.6733 15.2479 67.6733 26.5956C67.6733 32.4793 64.6986 36.6569 59.7469 39.3159C60.0149 39.5124 60.265 39.6971 60.5151 39.9591C61.0183 40.4028 61.2595 41.04 61.6228 41.5789C67.9591 37.2614 71.8658 31.3449 71.8658 24.812C71.8658 11.5914 55.8671 0.87793 36.1344 0.87793ZM29.8487 15.7362V55.9816L42.036 55.9757L42.0301 40.2211H45.3055C45.9754 40.2211 46.2613 40.4176 46.9402 40.9655C47.7501 41.6206 49.0692 43.8895 49.0692 43.8895L55.5127 55.9876L69.2901 55.9816L60.7622 41.6117C60.7622 41.6117 60.5062 41.037 59.9732 40.4712C59.4663 39.9674 58.881 39.549 58.2402 39.2325C56.9837 38.5953 54.8189 37.9403 54.8189 37.9403C54.8189 37.9403 65.4728 37.1542 65.4728 26.5479C65.4728 15.9417 54.3246 15.7392 54.3246 15.7392L29.8487 15.7362ZM42.1373 24.4606L49.5158 24.4666C49.5158 24.4666 52.9371 24.282 52.9371 27.8223C52.9371 31.2913 49.5158 31.3061 49.5158 31.3061H42.1373V24.4606ZM47.36 42.6806C45.8891 42.8265 44.3467 42.9159 42.7745 42.9426V48.3232C45.1579 48.0256 47.5164 47.5549 49.8314 46.9148L48.429 44.2617C48.429 44.2617 48.1074 43.7168 47.6905 43.0886C47.5744 42.9278 47.4523 42.7967 47.36 42.6806Z" fill="black"/>
</svg>
