<svg width="58" height="73" viewBox="0 0 58 73" fill="none" xmlns="http://www.w3.org/2000/svg">
<path d="M34.4638 38.7412C33.2727 38.7412 34.702 39.3367 36.2533 39.575C36.6702 39.2772 37.0573 38.9199 37.4146 38.5923C36.447 38.805 35.4478 38.8553 34.4638 38.7412ZM40.8388 37.1631C41.5237 36.1805 42.0299 35.1085 42.2383 34.0068C42.0597 34.8108 41.6428 35.4956 41.2557 36.1805C39.0225 37.58 41.0473 35.3765 41.2557 34.513C38.8736 37.5204 40.9282 36.2996 40.8388 37.1631ZM43.1644 31.059C43.3132 28.9121 42.7475 29.5672 42.5688 30.4009C42.7773 30.52 42.9559 31.8927 43.1644 31.059ZM29.9974 1.89327C30.5929 2.01238 31.3373 2.10171 31.248 2.25059C31.9328 2.10171 32.0817 1.95283 29.9676 1.89327M31.248 2.25059L30.8013 2.33992L31.2182 2.31014V2.25059M50.9687 31.86C51.0282 33.7656 50.3732 34.6887 49.8372 36.3264L48.795 36.8653C47.9613 38.4732 48.8844 37.9075 48.2888 39.1879C46.9787 40.3491 44.2988 42.8205 43.4651 43.0617C42.8666 43.0617 43.882 42.3173 44.0308 42.0493C42.2711 43.2404 42.5986 43.8359 39.9485 44.5803L39.8592 44.4017C33.2459 47.4984 24.0689 41.3645 24.2178 32.9617C24.1285 33.4679 24.0094 33.3488 23.8605 33.5572C23.6799 31.4202 24.1531 29.2789 25.2172 27.4171C26.2813 25.5553 27.8861 24.0611 29.8187 23.1326C31.6022 22.2348 33.6133 21.8912 35.5936 22.1459C37.5739 22.4006 39.4327 23.242 40.9311 24.5618C39.9786 23.3265 38.7489 22.3325 37.3415 21.66C35.9341 20.9876 34.3884 20.6557 32.8291 20.6909C29.3155 20.7207 26.0371 22.9539 24.9354 25.3658C23.1488 26.4973 22.9404 29.7429 22.1662 30.3116C21.0913 38.0564 24.1315 41.3943 29.253 45.3247C30.0569 45.8905 29.4912 45.95 29.6103 46.3669C27.8703 45.5411 26.3194 44.3653 25.0545 42.9129C25.7394 43.8955 26.454 44.8781 27.4366 45.6225C25.7989 45.0865 23.655 41.7516 23.0297 41.6027C25.7989 46.5455 34.2851 50.3003 38.695 48.4512C36.3504 48.6173 33.9956 48.3343 31.7571 47.6175C30.7745 47.1411 29.4644 46.0989 29.6728 45.9202C32.5543 47.1326 35.7106 47.5402 38.8055 47.0997C41.9003 46.6593 44.8177 45.3872 47.2467 43.419C48.5568 42.3769 50.0158 40.6201 50.4327 40.5903C49.8372 41.5432 50.5518 41.0667 50.0754 41.9005C51.3855 39.7566 49.4799 41.0072 51.4451 38.2082L52.1597 39.1908C51.8917 37.4043 54.3632 35.2574 54.1249 32.4555C54.6907 31.5622 54.7205 33.3488 54.1249 35.3438C54.9885 33.1403 54.3632 32.8128 54.5716 30.9965C54.8098 31.592 55.1076 32.247 55.2564 32.8723C54.7205 30.788 55.852 29.2992 56.0902 28.1082C55.8222 27.9593 55.2564 29.0015 55.1373 26.53C55.1373 25.4283 55.4351 25.9345 55.5542 25.6963C55.316 25.5474 54.78 24.7435 54.4227 23.1326C54.6609 22.7455 55.0778 24.1152 55.4351 24.145C55.1969 22.8944 54.8396 21.9118 54.8396 20.9291C53.8272 18.9044 54.4823 21.2269 53.6485 20.0359C52.6361 16.7873 54.5418 19.2915 54.6609 17.8324C56.2688 20.1252 57.1621 23.6686 57.582 25.1574C57.2842 23.3708 56.7482 21.5842 56.1229 19.9168C56.5993 20.1252 55.3487 16.2215 56.7482 18.815C54.8944 13.2348 50.9992 8.56208 45.8442 5.73439C46.3802 6.24059 47.0948 6.89566 46.8268 6.98499C44.5936 5.64507 44.9807 5.55574 44.6532 4.98999C42.8368 4.24559 42.7177 5.04954 41.4969 4.98999C38.0429 3.14387 37.3878 3.3523 34.2256 2.16126L34.3744 2.84611C32.0817 2.10171 31.6946 3.14387 29.2232 2.84611C29.0743 2.72701 30.0271 2.42924 30.8013 2.31014C28.5949 2.6079 28.714 1.89327 26.5403 2.39947C27.0465 2.01238 27.6123 1.77417 28.178 1.44663C26.3915 1.56574 23.8903 2.4888 24.6645 1.65507C21.7196 2.99499 16.4998 4.84111 13.5818 7.58051L13.4954 6.92544C12.1555 8.53335 7.65931 11.7224 7.302 13.8067L6.91193 13.896C6.22708 15.0871 5.78044 16.427 5.21469 17.6508C4.32141 19.1992 3.87476 18.2463 4.02365 18.4845C2.23708 22.1172 1.34379 25.1871 0.569615 27.7211C1.10559 28.525 0.569615 32.6341 0.778048 35.9393C-0.115236 52.206 12.2121 68.026 25.6798 71.6885C27.6748 72.3733 30.5929 72.3733 33.0941 72.4329C30.1462 71.5992 29.7591 71.9863 26.9006 70.9739C24.8163 70.021 24.3697 68.8895 22.9106 67.6092L23.5062 68.6513C20.6149 67.6389 21.8089 67.4007 19.4536 66.6563L20.0789 65.8524C19.1559 65.763 17.6075 64.2742 17.1906 63.4405L16.1783 63.4703C14.9574 61.9785 14.3024 60.8768 14.3619 60.0133L14.0314 60.6088C13.6443 59.9835 9.50543 54.9484 11.6493 56.1096C11.2622 55.7523 10.7262 55.5141 10.1605 54.4719L10.5774 53.9658C9.5352 52.6556 8.6717 50.9286 8.73125 50.3926C9.32677 51.1072 9.68409 51.2859 10.0712 51.3752C7.45088 44.9079 7.302 51.0179 5.30402 44.8185L5.75066 44.759C5.4529 44.2826 5.21469 43.7466 4.97648 43.2404L5.15514 41.4538C3.27924 39.2504 4.61917 32.2173 4.88715 28.3464C5.09559 26.7385 6.46529 25.071 7.50745 22.4477L6.88215 22.3286C8.0732 20.2145 13.8527 13.7769 16.5326 14.1074C17.813 12.4698 16.2646 14.1074 15.9966 13.6906C18.8551 10.7398 19.7484 11.6062 21.6571 11.0703C23.7414 9.87625 19.8705 11.5467 20.8531 10.6207C24.4262 9.72737 23.3841 8.53633 28.0619 8.08968C28.5383 8.38745 26.9006 8.50655 26.5135 8.86386C29.4912 7.40483 35.896 7.76215 40.0974 9.66782C44.9509 11.9606 50.4029 18.6334 50.6114 24.9489L50.8496 25.0085C50.7305 27.5394 51.2367 30.4307 50.3434 33.0808L50.9389 31.8302M21.5409 40.3819L21.3921 41.2156C22.1662 42.2578 22.7915 43.3893 23.7741 44.223C23.0595 42.8235 22.5235 42.2578 21.5409 40.3521M23.3871 40.2926C22.9702 39.8459 22.732 39.2802 22.464 38.7442C22.7022 39.697 23.2382 40.5308 23.7444 41.3645L23.3871 40.2926ZM55.977 33.1999L55.7686 33.6465C55.4708 35.9095 54.7562 38.1457 53.714 40.233C54.9051 38.0593 55.6495 35.6445 55.9472 33.1999M30.2058 1.32753C31.0097 1.02977 32.171 1.17865 33.0345 0.970215C31.9328 1.05954 30.8311 1.1191 29.7591 1.26798L30.2058 1.32753ZM2.08522 16.2811C2.29365 17.9783 0.804846 18.6632 2.41276 17.5317C3.30604 15.5665 2.08522 16.9957 2.115 16.2811M0.209324 24.2045C0.566638 23.0433 0.655966 22.3584 0.804847 21.7033C-0.237318 23.0135 0.298652 23.2815 0.209324 24.1747" fill="black"/>
</svg>
