<svg width="73" height="52" viewBox="0 0 73 52" fill="none" xmlns="http://www.w3.org/2000/svg">
<path d="M42.3374 22.9561H48.647C48.7933 22.9561 48.9338 22.8982 49.0375 22.795C49.1413 22.6918 49.2 22.5516 49.2008 22.4053V16.7865C49.2008 16.6396 49.1425 16.4988 49.0386 16.3949C48.9347 16.291 48.7939 16.2327 48.647 16.2327H42.3374C42.1913 16.2327 42.0512 16.2907 41.9479 16.394C41.8446 16.4973 41.7866 16.6375 41.7866 16.7835V22.4053C41.7866 22.709 42.0337 22.9561 42.3374 22.9561ZM33.5415 6.7877H39.8481C39.995 6.7877 40.1359 6.72935 40.2398 6.62549C40.3436 6.52163 40.402 6.38075 40.402 6.23387V0.612137C40.4012 0.465767 40.3425 0.325661 40.2387 0.22244C40.1349 0.119219 39.9945 0.0612772 39.8481 0.0612793H33.5415C33.3955 0.0612793 33.2553 0.119316 33.152 0.222622C33.0487 0.325928 32.9907 0.466041 32.9907 0.612137V6.23387C32.9907 6.53758 33.2349 6.7877 33.5415 6.7877ZM33.5415 14.8719H39.8481C39.9948 14.8711 40.1352 14.8125 40.2389 14.7088C40.3426 14.6051 40.4012 14.4647 40.402 14.3181V8.69933C40.4012 8.55296 40.3425 8.41285 40.2387 8.30963C40.1349 8.20641 39.9945 8.14847 39.8481 8.14847H33.5415C33.3955 8.14847 33.2553 8.20651 33.152 8.30982C33.0487 8.41312 32.9907 8.55323 32.9907 8.69933V14.3181C32.9907 14.6218 33.2349 14.8689 33.5415 14.8719ZM24.8171 14.8719H31.1297C31.2755 14.8704 31.4149 14.8113 31.5175 14.7076C31.62 14.6039 31.6776 14.4639 31.6776 14.3181V8.69933C31.6776 8.55323 31.6195 8.41312 31.5162 8.30982C31.4129 8.20651 31.2728 8.14847 31.1267 8.14847H24.8201C24.674 8.14847 24.5339 8.20651 24.4306 8.30982C24.3273 8.41312 24.2693 8.55323 24.2693 8.69933V14.3181C24.2693 14.6218 24.5164 14.8689 24.8201 14.8719M15.9945 14.8719H22.304C22.4504 14.8711 22.5905 14.8124 22.6937 14.7087C22.797 14.6049 22.8549 14.4645 22.8549 14.3181V8.69933C22.8549 8.55323 22.7969 8.41312 22.6936 8.30982C22.5903 8.20651 22.4501 8.14847 22.304 8.14847H15.9945C15.8481 8.14847 15.7077 8.20641 15.6039 8.30963C15.5001 8.41285 15.4414 8.55296 15.4406 8.69933V14.3181C15.4406 14.6218 15.6908 14.8689 15.9945 14.8719ZM33.5415 22.9561H39.8481C39.9945 22.9561 40.1349 22.8982 40.2387 22.795C40.3425 22.6918 40.4012 22.5516 40.402 22.4053V16.7865C40.402 16.6396 40.3436 16.4988 40.2398 16.3949C40.1359 16.291 39.995 16.2327 39.8481 16.2327H33.5415C33.3955 16.2327 33.2553 16.2907 33.152 16.394C33.0487 16.4973 32.9907 16.6375 32.9907 16.7835V22.4053C32.9907 22.709 33.2349 22.9561 33.5415 22.9561ZM24.8171 22.9561H31.1297C31.2753 22.9553 31.4146 22.897 31.5173 22.7937C31.6199 22.6905 31.6776 22.5509 31.6776 22.4053V16.7865C31.678 16.7142 31.6641 16.6425 31.6368 16.5755C31.6095 16.5085 31.5692 16.4476 31.5183 16.3961C31.4675 16.3447 31.4069 16.3038 31.3403 16.2758C31.2736 16.2477 31.202 16.2331 31.1297 16.2327H24.8171C24.6716 16.2335 24.5322 16.2919 24.4296 16.3951C24.3269 16.4983 24.2693 16.638 24.2693 16.7835V22.4053C24.2693 22.709 24.5164 22.9561 24.8201 22.9561M15.9945 22.9561H22.304C22.4501 22.9561 22.5903 22.8981 22.6936 22.7948C22.7969 22.6915 22.8549 22.5514 22.8549 22.4053V16.7865C22.8553 16.7142 22.8414 16.6425 22.8141 16.5755C22.7868 16.5085 22.7465 16.4476 22.6957 16.3961C22.6448 16.3447 22.5843 16.3038 22.5176 16.2758C22.4509 16.2477 22.3794 16.2331 22.307 16.2327H15.9945C15.8476 16.2327 15.7067 16.291 15.6029 16.3949C15.499 16.4988 15.4406 16.6396 15.4406 16.7865V22.4053C15.4406 22.709 15.6908 22.9561 15.9945 22.9561ZM7.29985 22.9561H13.6124C13.758 22.9553 13.8973 22.897 14 22.7937C14.1026 22.6905 14.1603 22.5509 14.1603 22.4053V16.7865C14.1607 16.7142 14.1468 16.6425 14.1195 16.5755C14.0922 16.5085 14.0519 16.4476 14.001 16.3961C13.9502 16.3447 13.8897 16.3038 13.823 16.2758C13.7563 16.2477 13.6847 16.2331 13.6124 16.2327H7.29985C7.15427 16.2335 7.01493 16.2919 6.91226 16.3951C6.8096 16.4983 6.75197 16.638 6.75197 16.7835V22.4053C6.75197 22.709 6.99316 22.9561 7.29985 22.9561ZM71.4585 19.4187C71.2649 19.2669 69.4575 17.9002 65.6402 17.9002C64.6338 17.9031 63.6273 17.9895 62.6328 18.1592C61.8944 13.0973 57.7108 10.6258 57.5232 10.5187L56.4989 9.92611L55.826 10.8998C54.9804 12.204 54.367 13.6451 54.0037 15.1578C53.3188 18.0461 53.7357 20.7616 55.2037 23.0812C53.432 24.0698 50.5884 24.3109 50.0107 24.3318H2.93765C2.34664 24.3326 1.77997 24.5673 1.3615 24.9846C0.943036 25.402 0.706805 25.968 0.704444 26.559C0.649304 30.6825 1.34759 34.7815 2.76495 38.6541C4.38775 42.9061 6.79962 46.0386 9.941 47.9562C13.4546 50.109 19.1716 51.3417 25.6479 51.3417C28.5749 51.3506 31.493 51.0856 34.3723 50.5497C38.3708 49.8151 42.2183 48.4172 45.7557 46.4138C48.6738 44.7255 51.2941 42.5786 53.5273 40.0536C57.2552 35.8313 59.4766 31.1297 61.1291 26.9521H61.7872C65.8725 26.9521 68.3826 25.3174 69.7672 23.9477C70.6873 23.0752 71.4049 22.0122 71.8724 20.8331L72.1642 19.9755L71.4585 19.4187Z" fill="black"/>
</svg>
