<svg width="73" height="27" viewBox="0 0 73 27" fill="none" xmlns="http://www.w3.org/2000/svg">
<path d="M5.95995 8.16547C5.82 8.16547 5.78725 8.09699 5.85573 7.9898L6.58823 7.05185C6.65671 6.94763 6.82941 6.87915 6.96936 6.87915H19.392C19.5289 6.87915 19.5647 6.98336 19.4962 7.08758L18.9036 7.9898C18.8351 8.09699 18.6595 8.19823 18.5552 8.19823L5.95995 8.16547ZM0.707442 11.3664C0.567494 11.3664 0.531763 11.2979 0.603225 11.1937L1.33274 10.2528C1.40123 10.1486 1.5769 10.0801 1.71685 10.0801H17.5816C17.7215 10.0801 17.79 10.1843 17.7543 10.2885L17.4774 11.1222C17.4416 11.2622 17.3047 11.3307 17.1647 11.3307L0.707442 11.3664ZM9.12813 14.5673C8.98818 14.5673 8.95245 14.4631 9.02391 14.3589L9.50926 13.4894C9.57775 13.3852 9.7177 13.281 9.85764 13.281H16.8163C16.9563 13.281 17.0248 13.3852 17.0248 13.5252L16.9563 14.3589C16.9563 14.4989 16.8163 14.6031 16.7121 14.6031L9.12813 14.5673ZM45.2436 7.54018C43.0521 8.09699 41.5543 8.51385 39.3985 9.07067C38.8745 9.20764 38.8417 9.24337 38.3861 8.72229C37.868 8.12974 37.4839 7.74861 36.7544 7.40023C34.5599 6.32233 32.4369 6.63498 30.4568 7.92131C28.0896 9.4518 26.8717 11.7148 26.9074 14.5316C26.9402 17.3157 28.8548 19.6114 31.6031 19.9955C33.9703 20.3082 35.9505 19.4744 37.5197 17.7028C37.8323 17.3157 38.1092 16.8988 38.4576 16.4105H31.7431C31.0136 16.4105 30.8379 15.9579 31.0821 15.3683C31.5347 14.2904 32.3684 12.48 32.8567 11.5748C32.9313 11.4071 33.0534 11.265 33.2079 11.166C33.3625 11.0671 33.5427 11.0156 33.7262 11.018H46.39C46.3215 11.959 46.3215 12.8969 46.1815 13.8378C45.8211 16.315 44.8398 18.6607 43.329 20.6566C40.8248 23.9617 37.5524 26.0163 33.4135 26.5701C30.0042 27.0227 26.836 26.3617 24.0549 24.2773C21.4793 22.327 20.0173 19.7514 19.6361 16.5504C19.1835 12.757 20.2971 9.34759 22.5929 6.35509C25.0643 3.1214 28.3337 1.06685 32.3356 0.340311C35.6051 -0.255211 38.7375 0.131878 41.5543 2.04053C43.4004 3.26135 44.7195 4.92881 45.592 6.94763C45.8004 7.26028 45.6604 7.43596 45.2436 7.54316M56.761 26.7815C53.5928 26.71 50.7045 25.8049 48.2688 23.7175C46.2426 22.0098 44.9069 19.6232 44.5111 17.003C43.8858 13.0726 44.9637 9.59175 47.3309 6.49504C49.8708 3.15415 52.9318 1.41523 57.0736 0.688691C60.623 0.0633925 63.9638 0.405817 66.9891 2.46037C69.7374 4.33627 71.4436 6.87915 71.8962 10.217C72.4858 14.9157 71.1309 18.742 67.8943 22.0143C65.5985 24.3458 62.7787 25.8049 59.5421 26.4659C58.6041 26.6445 57.6662 26.6743 56.761 26.7815ZM65.0387 12.7272C65.006 12.2716 65.006 11.9232 64.9375 11.5748C64.3122 8.12975 61.144 6.18536 57.8389 6.94763C54.6022 7.67715 52.5149 9.7317 51.7497 13.0011C51.1244 15.7167 52.4464 18.465 54.9506 19.5816C56.8652 20.4154 58.7768 20.3082 60.623 19.3732C63.3713 17.944 64.8661 15.7167 65.0417 12.7242L65.0387 12.7272Z" fill="black"/>
</svg>
