<svg width="72" height="53" viewBox="0 0 72 53" fill="none" xmlns="http://www.w3.org/2000/svg">
<path d="M67.9802 3.76507C65.9016 1.68711 63.0972 0.497684 60.1586 0.447687C57.2199 0.397691 54.3767 1.49103 52.2286 3.49709C52.1211 3.59943 52.0356 3.72254 51.9771 3.85894C51.9186 3.99535 51.8885 4.14221 51.8885 4.29062C51.8885 4.43903 51.9186 4.58589 51.9771 4.7223C52.0356 4.8587 52.1211 4.98181 52.2286 5.08415L53.5983 6.48363C53.7829 6.66647 54.0271 6.77673 54.2863 6.79423C54.5454 6.81173 54.8023 6.73529 55.0097 6.57892C56.3198 5.53448 57.9827 5.03653 59.6513 5.18904C61.3198 5.34156 62.8649 6.13275 63.9639 7.3974C65.0629 8.66206 65.6309 10.3024 65.5493 11.9759C65.4676 13.6494 64.7426 15.2266 63.5257 16.3782C54.5244 25.3706 42.5156 0.159184 15.2556 13.1535C14.7951 13.3742 14.3854 13.688 14.0523 14.0752C13.7193 14.4623 13.4702 14.9143 13.3207 15.4026C13.1713 15.891 13.1248 16.405 13.1841 16.9122C13.2435 17.4194 13.4074 17.9088 13.6656 18.3494L18.3434 26.4277C18.8282 27.2702 19.6261 27.8871 20.5635 28.1442C21.501 28.4013 22.502 28.2777 23.3488 27.8004L23.4589 27.7408L23.3726 27.8004L25.4212 26.657C27.7321 25.2225 29.9166 23.5939 31.9511 21.7886C32.1524 21.6048 32.4128 21.4991 32.6852 21.4903C32.9576 21.4816 33.2242 21.5705 33.4369 21.7409C33.5523 21.8372 33.646 21.957 33.7118 22.0922C33.7775 22.2274 33.8138 22.375 33.8183 22.5252C33.8228 22.6755 33.7954 22.825 33.7379 22.9639C33.6803 23.1028 33.594 23.2279 33.4845 23.331C31.3429 25.2586 29.0352 26.9934 26.5884 28.515H26.5169L24.4445 29.6763C23.5687 30.1671 22.581 30.4235 21.5771 30.4207C20.5372 30.4247 19.5146 30.1547 18.6123 29.6377C17.7101 29.1207 16.96 28.375 16.4377 27.4758L12.016 19.8412C3.55954 25.8679 -1.63937 37.43 1.17745 52.0768C1.22371 52.3232 1.35414 52.5458 1.54642 52.7066C1.7387 52.8673 1.98089 52.9563 2.23153 52.9582H7.21903C7.49349 52.9646 7.76009 52.8662 7.96471 52.6832C8.16932 52.5001 8.29661 52.2461 8.32074 51.9726C8.55088 50.1946 9.42052 48.5612 10.7672 47.3776C12.1138 46.194 13.8454 45.5412 15.6382 45.5412C17.4311 45.5412 19.1626 46.194 20.5093 47.3776C21.8559 48.5612 22.7256 50.1946 22.9557 51.9726C22.987 52.2326 23.1124 52.4722 23.3082 52.6461C23.5041 52.82 23.7568 52.9162 24.0187 52.9165H28.896C29.1574 52.9143 29.4091 52.8175 29.6046 52.6439C29.8 52.4704 29.9259 52.2319 29.959 51.9726C30.1917 50.1969 31.0622 48.5664 32.4083 47.3852C33.7544 46.204 35.4842 45.5527 37.275 45.5527C39.0659 45.5527 40.7957 46.204 42.1418 47.3852C43.4878 48.5664 44.3584 50.1969 44.591 51.9726C44.6242 52.2324 44.7506 52.4713 44.9466 52.6449C45.1427 52.8185 45.3951 52.915 45.657 52.9165H50.5016C50.7852 52.9166 51.0574 52.8051 51.2596 52.6063C51.4618 52.4074 51.5778 52.1371 51.5825 51.8535C51.6926 45.0229 53.5358 37.1739 58.7883 33.2434C76.9755 19.6357 72.1905 7.97542 67.9802 3.76507ZM49.4326 24.3136L45.9637 22.5746C45.9641 22.2038 46.0594 21.8391 46.2405 21.5155C46.4216 21.1918 46.6825 20.9199 46.9984 20.7255C47.3143 20.5312 47.6747 20.4209 48.0453 20.4052C48.4158 20.3895 48.7842 20.4689 49.1155 20.6357C49.4467 20.8026 49.7297 21.0515 49.9376 21.3587C50.1454 21.6658 50.2712 22.0211 50.303 22.3906C50.3348 22.7601 50.2715 23.1316 50.1192 23.4698C49.9668 23.808 49.7305 24.1015 49.4326 24.3225V24.3136Z" fill="black"/>
</svg>
