<svg width="62" height="73" viewBox="0 0 62 73" fill="none" xmlns="http://www.w3.org/2000/svg">
<path d="M32.0037 0.970215C30.5893 0.970215 29.4399 3.99547 29.4399 7.72642C29.4399 9.29562 29.6454 10.7368 29.9848 11.8832C25.8142 12.104 21.7627 13.3519 18.1905 15.5158C17.7316 14.3643 17.1368 13.2718 16.4188 12.2613C14.6144 9.68271 12.4288 7.98547 11.0889 8.00333C10.8586 8.00173 10.6332 8.07027 10.4428 8.19986C9.28149 9.01274 10.0765 12.1482 12.2174 15.2062C13.0124 16.3406 13.8819 17.3054 14.7186 18.029C12.9824 19.5231 11.4524 21.2413 10.1688 23.1385H15.332C17.3395 20.8704 19.8061 19.0547 22.5684 17.8119C25.3307 16.5691 28.3256 15.9276 31.3545 15.9297C34.3838 15.9269 37.379 16.5679 40.1418 17.8102C42.9046 19.0525 45.3718 20.8677 47.38 23.1356H52.5402C51.4118 21.4692 50.0927 19.9403 48.6098 18.5798C49.652 17.8384 50.7983 16.6652 51.8197 15.2062C53.9606 12.1482 54.7556 9.01274 53.5943 8.19986C53.4035 8.0715 53.1782 8.00401 52.9482 8.00631C51.6082 7.98547 49.4227 9.68271 47.6182 12.2643C46.7503 13.4692 46.0715 14.7997 45.6054 16.2096C42.1431 13.865 38.1549 12.4125 33.9957 11.9814C34.353 10.8202 34.5704 9.34028 34.5704 7.72642C34.5704 3.99547 33.421 0.970215 32.0037 0.970215ZM0.104492 29.0878V44.4582H4.14809V38.5983H9.03137V44.4582H13.072V29.0878H9.02542V34.5607H4.14213V29.0878H0.104492ZM17.7081 29.0878V44.4582H27.2663V41.159H21.7488V38.3303H26.632V34.9299H21.7488V32.4287H27.2663V29.0878H17.7081ZM31.697 29.0878V44.4582H41.2789V40.4027H35.7406V29.0878H31.697ZM45.7096 29.0878V44.4582H49.7711V36.5884L53.8117 40.236L57.8315 36.5676V44.4582H61.8959V29.0878H60.0676L53.8147 34.787L47.5349 29.0878H45.7096ZM10.5142 50.7648C11.7246 52.4652 13.1363 54.0129 14.7186 55.3742C13.7721 56.2096 12.9311 57.1575 12.2144 58.1969C10.0735 61.2549 9.28149 64.3904 10.4398 65.2033C11.6011 66.0161 14.2779 64.1968 16.4159 61.1418C17.1336 60.1323 17.7284 59.0407 18.1875 57.8902C21.76 60.0531 25.8115 61.3 29.9819 61.5199C29.6055 62.873 29.422 64.2724 29.437 65.6767C29.437 69.4076 30.5863 72.4329 32.0007 72.4329C33.418 72.4329 34.5674 69.4076 34.5674 65.6767C34.5674 64.0628 34.353 62.58 33.9927 61.4187C38.153 60.9881 42.1422 59.5356 45.6054 57.1905C45.9657 58.3815 46.6535 59.7661 47.6153 61.1418C49.7562 64.1968 52.4301 66.0161 53.5913 65.2033C54.7526 64.3904 53.9576 61.2549 51.8167 58.1969C50.7954 56.7379 49.652 55.5617 48.6098 54.8173C49.9409 53.5961 51.1405 52.2389 52.1889 50.7678H46.9155C44.9159 52.8881 42.5036 54.5769 39.827 55.7301C37.1503 56.8833 34.266 57.4765 31.3516 57.4734C28.4376 57.4761 25.5538 56.8827 22.8777 55.7295C20.2017 54.5763 17.7898 52.8878 15.7906 50.7678L10.5142 50.7648Z" fill="black"/>
</svg>
