<svg width="72" height="72" viewBox="0 0 72 72" fill="none" xmlns="http://www.w3.org/2000/svg">
<path d="M42.834 0.804525L45.5138 1.40005L47.6875 2.17423L49.4443 3.06751L50.7842 4.02035L51.7966 5.03273L52.541 6.04512L53.0174 7.02773L53.3152 7.92102L53.4343 8.6952L53.4938 9.29072L53.4641 9.67781V25.5783L53.3152 27.4542L52.9281 29.0918L52.3028 30.4615L51.5286 31.593L50.6353 32.5161L49.6527 33.2605L48.6106 33.8262L47.5684 34.2431L46.5858 34.5409L45.6925 34.7493L44.9183 34.8684L44.293 34.928H26.5167L24.4621 35.0768L22.7053 35.4937L21.2165 36.1488L19.9957 36.9527L19.0131 37.9056L18.2091 38.9477L17.6136 40.0197L17.167 41.1214L16.8692 42.1636L16.6608 43.1164L16.5417 43.9203L16.4821 44.5456V53.6571H9.84205L9.21675 53.5678L8.38302 53.3594L7.43019 53.0021L6.38802 52.4661L5.31608 51.6919L4.24414 50.62L3.20198 49.2503L2.24914 47.4935L1.41541 45.3198L0.790111 42.6995L0.373246 39.573L0.224365 35.9106L0.403022 32.2779L0.87944 29.1812L1.59407 26.5906L2.5469 24.4765L3.61884 22.7793L4.80989 21.4692L6.06048 20.4865L7.31108 19.7719L8.50213 19.2955L9.57407 18.9977L10.5269 18.8489L11.2415 18.8191H11.7179L11.8966 18.8489H36.1939V16.3774H18.8047L18.7749 8.189L18.7153 7.08729L18.8642 6.0749L19.1918 5.15184L19.6979 4.31811L20.4424 3.54393L21.3654 2.85908L22.4969 2.26355L23.8071 1.72758L25.3256 1.28094L27.0527 0.923629L28.9583 0.625868L31.0724 0.447211L33.3652 0.328107L35.8664 0.268555L39.6479 0.417435L42.834 0.804525ZM24.075 6.7002L23.3902 7.68281L23.152 8.90363L23.3902 10.1244L24.075 11.1368L25.0576 11.7919L26.2785 12.0599L27.4993 11.7919L28.4819 11.1368L29.1668 10.1244L29.405 8.90363L29.1668 7.68281L28.4819 6.7002L27.4993 6.04512L26.2785 5.77714L25.0576 6.04512L24.075 6.7002ZM63.052 18.4618L63.8857 18.6404L64.8385 18.9977L65.8807 19.5337L66.9527 20.3377L68.0246 21.3798L69.0667 22.7793L70.0196 24.5361L70.8533 26.7097L71.4786 29.33L71.8955 32.4268L72.0444 36.0892L71.8657 39.7517L71.3893 42.8484L70.6747 45.4091L69.7218 47.5233L68.6499 49.2205L67.4588 50.5604L66.2082 51.543L64.9576 52.2577L63.7666 52.7341L62.6947 53.0021L61.7418 53.1509L61.0272 53.2105L60.5508 53.1807H36.0748V55.6224H53.4641L53.4938 63.8406L53.5534 64.9125L53.4045 65.9249L53.077 66.848L52.5708 67.7115L51.8264 68.4559L50.9033 69.1705L49.7718 69.766L48.4617 70.2722L46.9431 70.7188L45.2161 71.1059L43.3104 71.3739L41.1963 71.5824L38.9035 71.7015L36.4024 71.7312L32.6208 71.6121L29.4347 71.1953L26.7549 70.5997L24.5812 69.8553L22.8244 68.9621L21.4845 67.9794L20.4721 66.9671L19.7277 65.9547L19.2513 64.9721L18.9535 64.0788L18.8344 63.3344L18.7749 62.7388L18.8047 62.3518V46.4513L18.9535 44.5456L19.3406 42.9377L19.9659 41.568L20.7401 40.4365L21.6334 39.4837L22.616 38.7691L23.6582 38.1735L24.7003 37.7567L25.6829 37.4589L26.5762 37.2803L27.3504 37.1612L27.9757 37.1016L28.3628 37.0718H45.7521L47.8066 36.923L49.5634 36.5061L51.0522 35.8808L52.273 35.0471L53.2556 34.0942L54.0596 33.0521L54.6551 31.9801L55.1018 30.9082L55.3995 29.866L55.6079 28.9132L55.7271 28.0794L55.7866 27.4542V18.3427H62.0098L62.4267 18.3724L63.052 18.4618ZM43.7868 60.8927L43.102 61.8753L42.8638 63.0962L43.102 64.317L43.7868 65.2996L44.7694 65.9844L45.9903 66.2227L47.2111 65.9844L48.1937 65.2996L48.8785 64.317L49.1168 63.0962L48.8785 61.8753L48.1937 60.8927L47.2111 60.2079L45.9903 59.9697L44.7694 60.2079L43.7868 60.8927Z" fill="black"/>
</svg>
