<svg xmlns="http://www.w3.org/2000/svg" fill="#000000" class="bi bi-filetype-raw" viewBox="0 0 24 24" id="Filetype-Raw--Streamline-Bootstrap" height="24" width="24">
  <desc>
    Filetype Raw Streamline Icon: https://streamlinehq.com
  </desc>
  <path fill-rule="evenodd" d="M21 6.75V21a3 3 0 0 1 -3 3v-1.5a1.5 1.5 0 0 0 1.5 -1.5V6.75h-3A2.25 2.25 0 0 1 14.25 4.5V1.5H6a1.5 1.5 0 0 0 -1.5 1.5v13.5H3V3a3 3 0 0 1 3 -3h8.25zM2.3955 17.775H0v5.9985h1.173v-2.2365000000000004h1.065l1.0499999999999998 2.2365000000000004h2.4765l0.46950000000000003 -1.542h2.004l0.471 1.542h1.26L7.965 17.775h-1.3875000000000002l-1.9935 5.9399999999999995 -1.1745 -2.358A1.77 1.77 0 0 0 4.5 19.674q0 -0.5760000000000001 -0.2505 -1.002a1.6500000000000001 1.6500000000000001 0 0 0 -0.717 -0.66 2.55 2.55 0 0 0 -1.137 -0.237m-1.2225 2.8695v-1.9380000000000002h1.0499999999999998a1.1099999999999999 1.1099999999999999 0 0 1 0.7605 0.255q0.29100000000000004 0.255 0.29100000000000004 0.735 0 0.47250000000000003 -0.29100000000000004 0.711 -0.28500000000000003 0.237 -0.777 0.237zm6.0945 -1.722 0.7335 2.4255H6.48l0.735 -2.4255zm6.009 0.6675 -1.1099999999999999 4.1835h-1.095L9.488999999999999 17.775h1.2825l0.9015 4.3545h0.056999999999999995l1.059 -4.3545h1.0245000000000002l1.059 4.3545h0.06l0.8939999999999999 -4.3545h1.287l-1.5825 5.9985h-1.095l-1.1099999999999999 -4.1835H13.274999999999999Z" stroke-width="1.5"></path>
</svg>