<svg width="64" height="72" viewBox="0 0 64 72" fill="none" xmlns="http://www.w3.org/2000/svg">
<path d="M35.0341 13.0541L46.3482 19.5837C46.7549 19.813 46.7695 20.4487 46.3482 20.678L32.9043 28.4424C32.7126 28.555 32.4944 28.6143 32.2721 28.6143C32.0498 28.6143 31.8316 28.555 31.64 28.4424L18.1963 20.678C17.7825 20.4562 17.775 19.8056 18.1963 19.5837L29.5029 13.0538V0.268555L0.633789 16.9363V50.2716L11.7037 43.8828V30.8236C11.6962 30.3576 12.2435 30.025 12.6505 30.2763L26.0939 38.0408C26.2866 38.1513 26.4469 38.3107 26.5585 38.5028C26.6701 38.695 26.7292 38.9131 26.7299 39.1353V54.6567C26.7373 55.1227 26.19 55.4553 25.7833 55.204L14.4696 48.6744L3.39939 55.0635L32.2685 71.7312L61.1377 55.0635L50.0675 48.6744L38.7538 55.204C38.3545 55.4482 37.7923 55.1302 37.8072 54.6567V39.1353C37.8072 38.6693 38.0662 38.2551 38.4432 38.0408L51.8868 30.2763C52.2858 30.0322 52.848 30.343 52.8334 30.8236V43.8828L63.9033 50.2716V16.9363L35.0341 0.268555V13.0541Z" fill="black"/>
</svg>
