<svg width="72" height="72" viewBox="0 0 72 72" fill="none" xmlns="http://www.w3.org/2000/svg">
<path d="M71.2394 35.1164L68.24 33.2596C68.215 32.9679 68.187 32.6765 68.1557 32.3854L70.7332 29.9827C70.8603 29.8621 70.9548 29.7112 71.0078 29.5441C71.0608 29.377 71.0706 29.1993 71.0363 29.0274C71.002 28.8555 70.9247 28.6951 70.8116 28.5612C70.6985 28.4273 70.5533 28.3242 70.3895 28.2617L67.0945 27.0289C67.0132 26.744 66.9268 26.4605 66.8355 26.1785L68.8912 23.3239C68.9943 23.1813 69.0591 23.0146 69.0796 22.8399C69.1 22.6651 69.0754 22.488 69.008 22.3254C68.9406 22.1629 68.8328 22.0203 68.6947 21.9112C68.5566 21.8021 68.3929 21.7302 68.2192 21.7023L64.7464 21.1383C64.6109 20.8759 64.4712 20.6156 64.3274 20.3576L65.7865 17.1534C65.86 16.9936 65.8911 16.8176 65.8768 16.6423C65.8625 16.467 65.8033 16.2984 65.7049 16.1526C65.6068 16.0066 65.4732 15.8879 65.3166 15.8077C65.16 15.7275 64.9856 15.6884 64.8098 15.6941L61.2828 15.8179C61.1019 15.5888 60.9159 15.3636 60.7251 15.1426L61.5359 11.7094C61.576 11.5382 61.5717 11.3596 61.5235 11.1905C61.4753 11.0214 61.3848 10.8674 61.2605 10.7431C61.1362 10.6187 60.9822 10.5281 60.8131 10.4798C60.6441 10.4316 60.4655 10.4272 60.2943 10.4672L56.8605 11.2783C56.6363 11.09 56.4102 10.9041 56.1822 10.7206L56.3057 7.19358C56.3142 7.01711 56.2768 6.84147 56.1973 6.68369C56.1178 6.52591 55.9989 6.39136 55.8521 6.29309C55.7053 6.19482 55.5356 6.13616 55.3594 6.12282C55.1833 6.10947 55.0067 6.14189 54.8467 6.21692L51.6428 7.67893C51.3832 7.53719 51.1241 7.39546 50.8618 7.25998L50.2951 3.78421C50.2657 3.61133 50.1929 3.44874 50.0835 3.31165C49.9741 3.17456 49.8318 3.06744 49.6698 3.0003C49.5078 2.93317 49.3314 2.90822 49.1571 2.92778C48.9828 2.94735 48.8163 3.01078 48.6732 3.11217L45.8156 5.16821C45.5338 5.07788 45.2504 4.99251 44.9655 4.91213L43.7328 1.61711C43.6702 1.45332 43.5672 1.30807 43.4332 1.19492C43.2993 1.08178 43.1389 1.00443 42.967 0.970106C42.795 0.935785 42.6172 0.945612 42.4501 0.998667C42.283 1.05172 42.1321 1.14628 42.0114 1.27349L39.6088 3.85389C39.3178 3.82108 39.0264 3.79289 38.7346 3.76932L36.8777 0.769678C36.7854 0.620067 36.6563 0.496561 36.5028 0.410901C36.3492 0.325241 36.1763 0.280273 36.0005 0.280273C35.8247 0.280273 35.6518 0.325241 35.4983 0.410901C35.3447 0.496561 35.2157 0.620067 35.1233 0.769678L33.2665 3.76903C32.9748 3.79409 32.6833 3.82228 32.3923 3.85359L29.9866 1.27319C29.8668 1.14442 29.716 1.04845 29.5486 0.994432C29.3812 0.940412 29.2027 0.930134 29.0302 0.964577C28.8577 0.999019 28.6968 1.07704 28.563 1.1912C28.4292 1.30537 28.3268 1.45188 28.2656 1.61681L27.0325 4.91154C26.7461 4.99312 26.4659 5.08037 26.1824 5.16761L23.3278 3.11217C23.1847 3.01078 23.0182 2.94735 22.8439 2.9278C22.6696 2.90826 22.4932 2.93323 22.3312 3.0004C22.1691 3.06756 22.0268 3.17472 21.9174 3.31185C21.8081 3.44898 21.7353 3.6116 21.7059 3.78451L21.1393 7.25998C20.8768 7.39548 20.6165 7.53515 20.3585 7.67893L17.154 6.21692C16.994 6.14368 16.8178 6.11264 16.6423 6.12677C16.4669 6.14091 16.2979 6.19973 16.1517 6.29765C16.0054 6.39557 15.8866 6.52932 15.8067 6.68615C15.7267 6.84299 15.6883 7.01768 15.695 7.19358L15.8189 10.7206C15.5893 10.9023 15.3632 11.0882 15.1406 11.2783L11.7071 10.4669C11.5359 10.4269 11.3573 10.4312 11.1882 10.4794C11.0191 10.5276 10.8651 10.6182 10.7408 10.7425C10.6165 10.8669 10.5259 11.0209 10.4777 11.1899C10.4294 11.359 10.4251 11.5376 10.4651 11.7088L11.2729 15.1423C11.0859 15.3656 10.8993 15.5916 10.7182 15.8176L7.19123 15.6941C7.01533 15.6874 6.84064 15.7258 6.6838 15.8057C6.52697 15.8857 6.39323 16.0045 6.29531 16.1507C6.19739 16.297 6.13856 16.4659 6.12443 16.6414C6.11029 16.8169 6.14133 16.993 6.21457 17.1531L7.67658 20.3573C7.53272 20.6153 7.39305 20.8755 7.25763 21.138L3.78514 21.702C3.61228 21.7314 3.44971 21.8042 3.31262 21.9135C3.17553 22.0229 3.0684 22.1652 3.00124 22.3272C2.93408 22.4891 2.90909 22.6655 2.9286 22.8398C2.94811 23.014 3.01148 23.1805 3.1128 23.3236L5.16854 26.1782C5.07901 26.4606 4.99266 26.744 4.90949 27.0283L1.61476 28.2611C1.45095 28.3236 1.30567 28.4266 1.19249 28.5605C1.07931 28.6945 1.00193 28.8549 0.96758 29.0268C0.933229 29.1987 0.943028 29.3766 0.996063 29.5437C1.0491 29.7108 1.14364 29.8618 1.27084 29.9824L3.84827 32.3854C3.81556 32.6762 3.78746 32.9676 3.764 33.2593L0.76465 35.1161C0.61363 35.2074 0.488725 35.3361 0.402027 35.4898C0.315329 35.6434 0.269775 35.8169 0.269775 35.9933C0.269775 36.1698 0.315329 36.3432 0.402027 36.4969C0.488725 36.6506 0.61363 36.7793 0.76465 36.8705L3.764 38.7274C3.78782 39.0198 3.81819 39.3122 3.84827 39.6016L1.27084 42.0072C1.14207 42.1271 1.04612 42.2779 0.992125 42.4453C0.938126 42.6128 0.927875 42.7912 0.962348 42.9638C0.996821 43.1363 1.07487 43.2971 1.18907 43.4309C1.30327 43.5647 1.44981 43.6671 1.61476 43.7283L4.90949 44.9613C4.99078 45.2478 5.07832 45.5312 5.16854 45.8114L3.1128 48.6661C3.00875 48.8087 2.94319 48.9757 2.92244 49.151C2.90168 49.3263 2.92642 49.504 2.99427 49.667C3.06213 49.8299 3.17081 49.9727 3.30985 50.0814C3.4489 50.1902 3.61361 50.2613 3.78812 50.288L7.26061 50.8516C7.39639 51.1137 7.53514 51.373 7.67986 51.6324L6.21785 54.8369C6.1446 54.9969 6.11357 55.1731 6.1277 55.3485C6.14183 55.524 6.20066 55.6929 6.29858 55.8392C6.3965 55.9855 6.53025 56.1043 6.68708 56.1842C6.84391 56.2641 7.0186 56.3026 7.1945 56.2959L10.7182 56.1723C10.9022 56.4013 11.0859 56.6273 11.2759 56.8503L10.4681 60.2868C10.4278 60.4579 10.432 60.6365 10.4802 60.8055C10.5284 60.9746 10.619 61.1285 10.7435 61.2527C10.8679 61.3768 11.0221 61.4671 11.1913 61.5149C11.3604 61.5627 11.539 61.5664 11.7101 61.5258L15.1432 60.7179C15.3666 60.9079 15.5929 61.0916 15.8218 61.2727L15.6983 64.7997C15.6904 64.9759 15.7281 65.1511 15.8078 65.3085C15.8875 65.4659 16.0065 65.6 16.1532 65.6979C16.3 65.7958 16.4695 65.8542 16.6454 65.8674C16.8213 65.8806 16.9976 65.8482 17.1573 65.7733L20.3615 64.3143C20.6206 64.459 20.8799 64.5975 21.1422 64.7332L21.7089 68.2057C21.7379 68.3789 21.8104 68.5419 21.9195 68.6794C22.0287 68.8169 22.171 68.9244 22.3331 68.9919C22.4952 69.0594 22.6717 69.0846 22.8462 69.0652C23.0207 69.0458 23.1875 68.9825 23.3308 68.8811L26.1854 66.8253C26.4674 66.9162 26.7508 67.0026 27.0355 67.0844L28.2683 70.3794C28.3288 70.545 28.4308 70.6922 28.5647 70.8069C28.6985 70.9216 28.8596 71 29.0325 71.0345C29.2053 71.069 29.3842 71.0585 29.5518 71.004C29.7194 70.9494 29.8702 70.8527 29.9896 70.723L32.3952 68.1456C32.6847 68.1786 32.9771 68.206 33.2695 68.2331L35.1263 71.2325C35.2192 71.3814 35.3484 71.5042 35.5019 71.5894C35.6554 71.6745 35.828 71.7192 36.0035 71.7192C36.179 71.7192 36.3516 71.6745 36.5051 71.5894C36.6586 71.5042 36.7878 71.3814 36.8807 71.2325L38.7375 68.2331C39.0299 68.206 39.3223 68.1786 39.6118 68.1456L42.0144 70.723C42.1351 70.8502 42.286 70.9447 42.453 70.9977C42.6201 71.0507 42.7979 71.0605 42.9698 71.0262C43.1416 70.9919 43.302 70.9145 43.4359 70.8014C43.5698 70.6883 43.6729 70.5431 43.7355 70.3794L44.9685 67.0844C45.2534 67.003 45.5368 66.9167 45.8186 66.8253L48.6732 68.8811C48.8158 68.9851 48.9829 69.0507 49.1582 69.0714C49.3335 69.0922 49.5112 69.0674 49.6741 68.9996C49.8371 68.9317 49.9798 68.823 50.0886 68.684C50.1974 68.545 50.2685 68.3802 50.2951 68.2057L50.8618 64.7332C51.1238 64.5975 51.3832 64.456 51.6425 64.3143L54.847 65.7733C55.0069 65.8456 55.1826 65.8759 55.3574 65.8616C55.5323 65.8472 55.7006 65.7885 55.8466 65.6911C55.9925 65.5937 56.1113 65.4608 56.1916 65.3048C56.272 65.1489 56.3114 64.975 56.306 64.7997L56.1825 61.2727C56.4115 61.0927 56.6365 60.9077 56.8575 60.7179L60.291 61.5258C60.4619 61.5656 60.6401 61.5612 60.8088 61.5131C60.9775 61.465 61.1313 61.3748 61.2555 61.2509C61.3797 61.127 61.4704 60.9735 61.5189 60.8049C61.5675 60.6363 61.5723 60.4581 61.5329 60.2871L60.7251 56.8503C60.9121 56.6273 61.0988 56.4013 61.2798 56.172L64.8068 56.2956C64.9833 56.304 65.1589 56.2667 65.3167 56.1872C65.4745 56.1077 65.609 55.9888 65.7073 55.842C65.8056 55.6952 65.8642 55.5254 65.8776 55.3493C65.8909 55.1731 65.8585 54.9965 65.7835 54.8366L64.3245 51.6326C64.4659 51.373 64.6076 51.114 64.7434 50.8516L68.2159 50.288C68.3888 50.2585 68.5514 50.1858 68.6886 50.0764C68.8257 49.9671 68.9328 49.8247 69 49.6627C69.0672 49.5007 69.0921 49.3243 69.0726 49.15C69.0531 48.9757 68.9896 48.8092 68.8882 48.6661L66.8325 45.8114L67.0915 44.9613L70.3866 43.7286C70.5516 43.6674 70.6981 43.565 70.8123 43.4311C70.9265 43.2973 71.0046 43.1364 71.039 42.9639C71.0735 42.7913 71.0632 42.6128 71.0091 42.4453C70.9551 42.2779 70.859 42.1271 70.7302 42.0072L68.1528 39.6016C68.1828 39.3122 68.2129 39.0198 68.237 38.7274L71.2364 36.8705C71.3874 36.7793 71.5123 36.6506 71.599 36.4969C71.6857 36.3432 71.7313 36.1698 71.7313 35.9933C71.7313 35.8169 71.6857 35.6434 71.599 35.4898C71.5123 35.3361 71.3874 35.2074 71.2364 35.1161L71.2394 35.1164ZM51.1664 59.9947C50.6178 59.8741 50.1393 59.5414 49.8353 59.0691C49.5314 58.5968 49.4267 58.0234 49.5442 57.4742C49.6616 56.925 49.9917 56.4446 50.4623 56.138C50.9328 55.8314 51.5056 55.7235 52.0555 55.8379C52.3323 55.8926 52.5954 56.0019 52.8295 56.1593C53.0637 56.3167 53.2641 56.5191 53.4192 56.7547C53.5743 56.9904 53.681 57.2546 53.733 57.5319C53.785 57.8092 53.7812 58.094 53.722 58.3699C53.6628 58.6457 53.5493 58.907 53.3881 59.1385C53.2268 59.3701 53.0212 59.5672 52.783 59.7184C52.5448 59.8696 52.2789 59.9719 52.0008 60.0194C51.7227 60.0668 51.4379 60.0584 51.1631 59.9947H51.1664ZM50.1474 53.1039C49.8988 53.0504 49.6421 53.0464 49.3919 53.0924C49.1418 53.1383 48.9032 53.2331 48.6898 53.3714C48.4763 53.5097 48.2923 53.6888 48.1483 53.8984C48.0042 54.1079 47.9029 54.3439 47.8502 54.5927L46.7863 59.5608C43.5005 61.0526 39.853 61.8819 36.0095 61.8819C32.2089 61.8874 28.4533 61.06 25.0069 59.4581L23.9427 54.4903C23.89 54.2416 23.7887 54.0057 23.6446 53.7963C23.5005 53.5869 23.3165 53.408 23.103 53.2699C22.8896 53.1319 22.651 53.0373 22.4009 52.9918C22.1508 52.9462 21.8942 52.9505 21.6457 53.0044L17.2597 53.9448C16.4447 53.1055 15.6874 52.2122 14.9929 51.2709H36.3352C36.5764 51.2709 36.739 51.2289 36.739 51.0088V43.4576C36.739 43.2373 36.5794 43.1953 36.3352 43.1953H30.0923V38.4082H36.8447C37.4595 38.4082 40.1394 38.583 40.9955 42.0075C41.2637 43.0595 41.8515 46.487 42.2556 47.5843C42.6564 48.814 44.2902 51.2709 46.0327 51.2709H56.6675C56.797 51.2691 56.9262 51.256 57.0534 51.2319C56.316 52.2336 55.5081 53.1815 54.6359 54.0683L50.1474 53.1039ZM20.6268 59.8923C20.352 59.956 20.0672 59.9644 19.7891 59.9169C19.511 59.8695 19.2451 59.7672 19.0069 59.616C18.7688 59.4647 18.5631 59.2676 18.4019 59.0361C18.2406 58.8046 18.1271 58.5433 18.0679 58.2674C18.0087 57.9916 18.0049 57.7067 18.0569 57.4294C18.1089 57.1521 18.2156 56.888 18.3707 56.6523C18.5258 56.4167 18.7263 56.2142 18.9604 56.0568C19.1945 55.8994 19.4576 55.7902 19.7344 55.7355C20.2817 55.6274 20.8495 55.7386 21.3154 56.0453C21.7814 56.352 22.1081 56.8295 22.2252 57.3749C22.3423 57.9203 22.2403 58.4899 21.9413 58.9608C21.6423 59.4317 21.1702 59.7662 20.6268 59.8923ZM12.5301 27.0587C12.6529 27.3151 12.723 27.5934 12.7364 27.8773C12.7497 28.1613 12.7059 28.445 12.6076 28.7117C12.5094 28.9784 12.3586 29.2227 12.1642 29.4301C11.9699 29.6375 11.7359 29.8038 11.4761 29.9192C11.2163 30.0345 10.9361 30.0966 10.6519 30.1017C10.3677 30.1068 10.0853 30.0549 9.82158 29.949C9.55782 29.843 9.31799 29.6853 9.11628 29.485C8.91458 29.2847 8.7551 29.046 8.64728 28.7831C8.43818 28.2715 8.43659 27.6986 8.64283 27.1859C8.84907 26.6732 9.24693 26.261 9.75201 26.0367C10.2571 25.8124 10.8297 25.7938 11.3483 25.9846C11.867 26.1755 12.2909 26.5605 12.5301 27.0587ZM10.0432 32.9583L14.6129 30.9263C14.8454 30.8231 15.0552 30.6751 15.2304 30.4907C15.4057 30.3064 15.5428 30.0893 15.6341 29.8519C15.7253 29.6145 15.7689 29.3614 15.7623 29.1071C15.7557 28.8529 15.699 28.6024 15.5955 28.3701L14.6552 26.242H18.357V42.924H10.89C9.96925 39.6864 9.68271 36.3013 10.0462 32.955L10.0432 32.9583ZM30.0953 31.3393V26.4227H38.9093C39.3649 26.4227 42.1228 26.9503 42.1228 29.0123C42.1228 30.7245 40.0066 31.3393 38.2674 31.3393H30.0953ZM62.1267 35.7647C62.1267 36.4159 62.1029 37.0638 62.0543 37.7031H59.3745C59.1065 37.7031 58.9978 37.8776 58.9978 38.1429V39.3726C58.9978 42.2698 57.364 42.8999 55.9321 43.0595C54.5695 43.2135 53.0593 42.4899 52.8726 41.655C52.0674 37.1332 50.7293 36.1654 48.6131 34.4986C51.2384 32.8314 53.9698 30.3716 53.9698 27.0799C53.9698 23.5258 51.5311 21.286 49.8699 20.1858C47.54 18.6485 44.9596 18.3412 44.2631 18.3412H16.5514C20.3812 14.0587 25.5171 11.1596 31.1625 10.0935L34.4301 13.5207C34.6052 13.7049 34.8149 13.8527 35.0472 13.9556C35.2796 14.0585 35.5299 14.1145 35.784 14.1204C36.038 14.1263 36.2907 14.082 36.5276 13.99C36.7644 13.8979 36.9808 13.76 37.1642 13.5841L40.8177 10.0875C44.5429 10.7862 48.0716 12.2869 51.1589 14.4856C54.2462 16.6843 56.8182 19.5283 58.6965 22.8204L56.1944 28.4725C55.987 28.9419 55.974 29.4744 56.1581 29.9534C56.3423 30.4324 56.7086 30.8191 57.177 31.0288L61.9942 33.1691C62.0784 34.0251 62.1207 34.8872 62.1207 35.7647H62.1267ZM34.4331 7.18167C34.8404 6.79313 35.3854 6.58232 35.9482 6.59561C36.2269 6.60219 36.5015 6.66359 36.7564 6.7763C37.0113 6.88902 37.2416 7.05084 37.4339 7.25253C37.6263 7.45423 37.7771 7.69183 37.8777 7.9518C37.9782 8.21176 38.0266 8.48898 38.02 8.76763C38.0134 9.04628 37.952 9.32091 37.8393 9.57584C37.7266 9.83076 37.5648 10.061 37.3631 10.2534C36.9503 10.6097 36.4162 10.7938 35.8715 10.7674C35.3268 10.741 34.8131 10.5062 34.4366 10.1115C34.0602 9.71691 33.8499 9.19267 33.8493 8.64731C33.8486 8.10194 34.0576 7.5772 34.4331 7.18167ZM59.2631 27.1614C59.3755 26.9065 59.5371 26.6763 59.7387 26.484C59.9402 26.2917 60.1778 26.1411 60.4377 26.0408C60.6976 25.9405 60.9747 25.8925 61.2532 25.8996C61.5317 25.9067 61.8061 25.9687 62.0606 26.0821C62.4453 26.2518 62.771 26.5319 62.9964 26.8868C63.2219 27.2418 63.337 27.6556 63.3272 28.076C63.3173 28.4964 63.183 28.9044 62.9412 29.2484C62.6994 29.5924 62.361 29.8569 61.9688 30.0085C61.5765 30.1601 61.1482 30.1919 60.7379 30.1C60.3275 30.008 59.9537 29.7964 59.6637 29.4919C59.3737 29.1874 59.1806 28.8037 59.1088 28.3894C59.0369 27.9751 59.0896 27.5488 59.2601 27.1644L59.2631 27.1614Z" fill="white"/>
</svg>
