<svg width="73" height="65" viewBox="0 0 73 65" fill="none" xmlns="http://www.w3.org/2000/svg">
<path d="M0.567383 0.987549L4.85217 10.4564L0.567383 17.8915L4.85217 25.3355L0.567383 32.7706L4.85217 39.9883L0.567383 47.4264L4.85217 54.8704L0.567383 65.0092L8.9047 62.2996C27.6637 62.3293 46.7085 62.3174 62.7876 62.2996L72.0301 65.0092L65.9438 54.1856L69.3264 48.5519L62.7876 41.7868L62.7757 41.7362V3.23862C43.2693 3.23565 26.3207 3.23862 8.90767 3.23862L0.567383 0.987549ZM59.1906 6.84749V27.7801L58.5058 25.1062L54.2239 12.0345L43.6236 13.8359L37.996 6.8594L59.1906 6.84749ZM24.3674 6.8594H37.9543L28.9708 10.4534L24.3674 6.8594ZM32.8834 17.817C34.5466 17.7161 36.212 17.9741 37.7667 18.5733C43.6266 20.8274 41.5959 26.9106 38.2133 30.5195C37.0878 31.645 34.6104 31.1954 36.4119 27.8158C37.0908 26.464 37.7637 23.7573 35.736 23.0814C31.2249 21.5033 26.0438 25.1122 24.9153 29.8436C23.7898 33.9021 26.7197 38.1839 31.9038 37.0583C36.1886 36.1561 40.247 33.2232 41.8252 31.8713C43.4033 30.5165 44.5259 33.0028 42.7214 35.7065C40.6967 38.4102 37.5404 41.5664 34.8308 43.3709C24.2364 50.5856 14.9939 41.1138 18.8261 30.2932C20.8419 24.7995 26.1361 18.2607 32.8834 17.817ZM52.3183 23.8645C52.8217 23.8654 53.3055 24.0594 53.6701 24.4065C54.6349 25.3772 54.2775 27.3007 52.8721 28.7091C51.4637 30.1205 49.5342 30.4748 48.5665 29.5071C47.5988 28.5364 47.9561 26.6129 49.3615 25.2045C50.231 24.335 51.3446 23.8318 52.3183 23.8645ZM51.0677 33.4912C51.5711 33.492 52.0549 33.686 52.4195 34.0331C53.3872 35.0008 53.0329 36.9303 51.6215 38.3387C50.2131 39.7471 48.2866 40.1015 47.3189 39.1367C46.3541 38.166 46.7085 36.2425 48.1169 34.8341C48.9833 33.9646 50.097 33.4584 51.0677 33.4912Z" fill="white"/>
</svg>
