<svg width="55" height="72" viewBox="0 0 55 72" fill="none" xmlns="http://www.w3.org/2000/svg">
<path d="M41.1445 0.402832C40.936 0.402832 40.805 0.504071 40.6561 0.685705C40.5064 0.858999 40.4077 1.0704 40.3709 1.29643C40.3341 1.52245 40.3607 1.75425 40.4477 1.96608C41.0134 3.1869 41.5286 4.4375 42.0199 5.68809C42.0497 5.74765 42.0854 5.8072 42.136 5.89057C42.0169 5.88462 41.9871 5.82506 41.9484 5.76253C41.0641 4.83947 40.0189 4.104 38.9768 3.36853C37.5683 2.36508 36.0289 1.57303 34.5014 0.772056C34.3036 0.66667 34.0872 0.600925 33.8642 0.578511L32.7208 0.459407C32.1193 0.384966 31.6637 0.727392 31.6637 1.32887C31.6637 1.65045 31.5268 1.72191 31.2618 1.74574C31.0236 1.75765 30.705 2.08816 30.6782 2.31744C30.6295 2.65686 30.6661 3.00306 30.7846 3.32483C30.9031 3.64659 31.0999 3.9338 31.357 4.16058C32.6791 5.39629 33.9565 6.67666 35.2369 7.95703L35.2815 7.97788C35.318 8.0084 35.3465 8.0472 35.3649 8.09103C35.3441 8.09996 35.3232 8.09996 35.3054 8.09996C35.2636 8.09193 35.2265 8.06856 35.2011 8.03445C35.1952 8.0285 35.1863 8.01956 35.1863 8.01361C35.0016 7.90641 34.8081 7.80518 34.6294 7.68607C33.7362 7.09055 32.8578 6.48312 31.9645 5.90546C31.5597 5.61839 31.0861 5.44373 30.5918 5.39926C30.3774 5.37148 30.1594 5.39566 29.9562 5.46977C29.7531 5.54387 29.5708 5.66573 29.4246 5.82506C29.3214 5.91874 29.2434 6.03677 29.1976 6.16836C29.1519 6.29996 29.1398 6.44094 29.1625 6.5784C29.2102 7.01313 29.505 7.28409 29.8266 7.50741C31.3213 8.51385 32.6553 9.69298 33.894 11.0031C34.0012 11.1163 34.1143 11.2384 34.2364 11.3366C34.5878 11.6225 34.8021 12.0036 35.0165 12.3967C35.1148 12.5753 35.0761 12.617 34.8885 12.617C33.6141 12.617 32.3992 12.9684 31.1784 13.2244C30.6782 13.3316 30.1839 13.5043 30.0052 14.0582C29.8117 14.6835 29.7194 15.0348 30.4816 15.2254C32.0003 15.6146 33.4842 16.1285 34.9183 16.7618C35.0437 16.8231 35.1608 16.9001 35.2667 16.9911C35.624 17.3008 35.9515 17.6432 36.3446 17.8933C37.476 18.6288 38.6373 19.3166 39.9772 19.6293C40.135 19.665 40.275 19.7454 40.4239 19.7782C40.5728 19.8228 40.677 19.9092 40.7068 20.058C40.7931 20.5881 41.1206 20.8888 41.6149 21.0407C41.6745 21.0585 41.7281 21.1002 41.7936 21.124C41.9484 21.1747 42.0199 21.2878 42.0705 21.4456C42.27 22.1602 42.4784 22.8689 42.7018 23.5746C42.7792 23.8128 42.7077 23.8724 42.4933 23.9409C41.3856 24.2624 40.2839 24.5959 39.1822 24.9354C38.7892 25.0545 38.7832 25.0634 38.9827 25.4207L41.6864 30.2891C42.0645 30.974 42.0794 30.974 42.7732 30.6167C42.8447 30.5809 42.9429 30.4588 43.0084 30.575C43.068 30.6822 43.1871 30.84 43.0799 30.9621C42.7434 31.3462 42.5142 31.7958 42.2283 32.2127C42.136 32.3467 42.136 32.433 42.2134 32.561C42.5112 33.0553 42.8149 33.5556 43.1067 34.0558C43.1424 34.1124 43.2079 34.1838 43.196 34.2285L42.8298 35.3213C42.6273 34.5661 42.3089 33.8469 41.8859 33.1893C41.3499 32.3318 40.6651 31.5755 40.0398 30.7745C39.9415 30.6554 39.8254 30.5452 39.7122 30.432C39.1167 29.8157 38.3544 29.4435 37.6279 29.0088C37.3156 28.8235 36.9728 28.6955 36.6155 28.6306C35.5019 28.3924 34.3942 28.3031 33.2806 28.6425C33.0573 28.714 32.9352 28.6574 32.8012 28.4638C32.5272 28.0857 32.3069 27.651 31.9377 27.3562C31.0444 26.6416 30.1035 25.9924 29.0047 25.6202C28.1761 25.3255 27.3078 25.1568 26.4291 25.12C25.969 25.1119 25.5088 25.1288 25.0505 25.1706C23.8713 25.2599 22.6982 25.391 21.656 26.043C21.4476 26.1711 21.2093 26.2425 20.9979 26.3646C19.926 26.9423 18.866 27.514 17.9727 28.3864C17.0363 29.2785 16.1449 30.2166 15.3018 31.1973C14.343 32.3407 13.6194 33.633 12.9703 34.9699C12.9256 35.0593 12.9048 35.1784 12.7619 35.2558L12.4045 33.0404C12.3837 32.9035 12.4701 32.9124 12.5624 32.9273C12.8274 32.9571 13.0834 32.969 13.3484 33.0047C13.5479 33.0345 13.6551 32.9898 13.7058 32.7665C13.7713 32.4628 13.8427 32.1531 13.9053 31.8405C14.1494 30.6583 14.5008 29.5179 14.8075 28.3567C14.867 28.1363 14.8283 28.0589 14.599 27.9993C13.4646 27.7314 12.3271 27.4276 11.1897 27.1567C10.9753 27.1061 10.8741 27.0286 10.9396 26.7994C11.1986 25.912 11.3118 24.983 11.6601 24.1195C11.6889 24.0186 11.7469 23.9284 11.8269 23.8605C12.1187 23.6342 12.3331 23.3692 12.3033 22.9612C12.2825 22.6545 12.4254 22.461 12.7202 22.324C13.2621 22.0679 13.7862 21.7672 14.2983 21.4665C14.71 21.2346 15.0476 20.8908 15.272 20.4749C16.2308 18.6735 17.0288 16.7767 18.19 15.0854C18.2883 14.9336 18.3687 14.7698 18.4878 14.6388C19.2382 13.8527 19.9409 13.019 20.7835 12.3163C21.0486 12.0959 21.12 11.7952 21.126 11.4676C21.126 11.0865 20.9056 10.8215 20.6764 10.5595C20.453 10.3004 20.2267 10.0801 19.8456 10.1218C19.7622 10.1307 19.6759 10.092 19.5836 10.0801C19.6401 9.96097 19.7325 9.93715 19.8099 9.88653C20.8193 9.23741 21.8257 8.58531 22.8351 7.92726C24.0559 7.14117 25.2738 6.34912 26.5035 5.56303C26.6584 5.46179 26.7298 5.38438 26.5601 5.2355C26.5155 5.19679 26.4887 5.14617 26.4529 5.10448C26.2028 4.8097 26.2028 4.8097 25.8574 5.01515L15.6085 11.3992C15.3077 11.5838 15.3077 11.5838 15.1559 11.2503C14.8224 10.4672 14.6288 9.64236 14.3787 8.83841C14.3192 8.6538 14.3698 8.5466 14.5127 8.43047C15.3732 7.74562 16.1593 6.97144 16.9543 6.22109C17.263 5.93059 17.4592 5.5404 17.5082 5.11937C17.5737 4.61318 17.2402 4.34817 16.7816 4.53576C16.5551 4.6241 16.3352 4.72858 16.1236 4.84841C14.0988 5.96501 11.94 6.73026 9.7247 7.37342C9.59666 7.40915 9.48053 7.45084 9.37334 7.31387C9.153 7.04588 8.82248 6.897 8.54556 6.69453C8.51984 6.67315 8.48953 6.658 8.45699 6.65025C8.42446 6.64251 8.39057 6.64237 8.35797 6.64986C8.06021 6.73026 7.75054 6.81661 7.56593 7.08757C7.09249 7.78135 6.49994 8.39772 6.05628 9.1183C5.55009 9.95203 5.06473 10.7917 4.49303 11.5838C4.38584 11.7326 4.34415 11.7565 4.24291 11.5778L2.34618 8.24884C2.14909 7.89797 1.92719 7.56164 1.68217 7.24241C1.40227 6.89105 1.05985 6.71835 0.616182 6.76599C0.538765 6.7779 0.437526 6.75408 0.40775 6.87616C0.348198 7.2037 0.199316 7.5491 0.238025 7.86473C0.339264 8.66868 0.48219 9.47859 0.684668 10.2647C1.02412 11.6314 1.4112 12.9803 1.81616 14.3261C2.21218 15.6482 2.65585 16.9464 3.08462 18.2655C3.12035 18.3787 3.18288 18.4799 3.02507 18.5722C2.82557 18.6854 2.50399 18.7449 2.46826 18.9444C2.43253 19.1529 2.61714 19.3911 2.70647 19.6144L2.72731 19.665C2.79877 19.8377 2.8345 20.0938 2.96552 20.1593C3.13524 20.2456 3.29306 20.0104 3.44789 19.9151C3.59082 19.8258 3.64144 19.8526 3.70694 20.0015C4.07617 20.8739 4.4573 21.7374 4.83844 22.6099C4.89798 22.7382 4.90441 22.8848 4.8563 23.0178C4.60165 23.7138 4.41031 24.4313 4.2846 25.1617C4.24887 25.3701 4.17145 25.3701 4.01662 25.3254C3.18968 25.1137 2.36189 24.9053 1.53329 24.7001C1.16704 24.6049 1.16704 24.6049 1.12535 24.9771V25.0068C0.946697 26.9869 0.76804 28.9671 0.580451 30.9442C0.56854 31.1229 0.589384 31.1973 0.782929 31.2181C1.36059 31.2896 1.93229 31.3819 2.50399 31.4683C2.61118 31.4831 2.70349 31.4891 2.67669 31.6469C2.54865 32.3169 2.44741 32.9958 2.30449 33.6628C2.28052 33.7458 2.27721 33.8334 2.29486 33.918C2.3125 34.0026 2.35056 34.0816 2.40573 34.1481L3.00125 34.9342C3.13524 35.1218 3.23946 35.363 3.11142 35.5565C3.0429 35.6606 3.00855 35.7834 3.01316 35.9079C3.034 37.1436 3.034 38.3793 3.09058 39.618C3.12035 40.2135 3.11142 40.818 3.12631 41.4194C3.15609 43.0125 3.24541 44.5995 3.30497 46.1926C3.33474 46.9727 3.19777 47.7409 3.2335 48.524C3.23946 48.7176 3.28412 48.8218 3.48362 48.8873C3.96004 49.0362 4.41264 49.2327 4.89203 49.3816C5.01275 49.4129 5.1249 49.4709 5.22024 49.5512C5.31557 49.6316 5.39166 49.7324 5.44289 49.8461C5.53631 50.05 5.57529 50.2747 5.55604 50.4982C5.55009 50.7126 5.6275 50.8406 5.8002 50.9627C6.53568 51.4897 7.26519 52.0346 8.00364 52.5765C9.93909 54.0058 11.8745 55.444 13.8219 56.8643C14.0005 56.9983 14.0422 57.1055 13.935 57.299C13.8338 57.4837 13.7713 57.701 13.67 57.8856C13.5837 58.0583 13.5986 58.1655 13.7623 58.2846C14.0065 58.4573 14.2417 58.6509 14.4651 58.8444C14.6586 59.0082 14.6646 59.2643 14.608 59.4638C14.5633 59.6126 14.3489 59.4787 14.2149 59.4638C14.1197 59.4578 14.0273 59.434 13.935 59.4221C13.012 59.2732 12.0979 59.035 11.1599 58.9576C9.6711 58.8385 8.17336 58.7075 6.66371 58.7491C6.58629 58.7491 6.46421 58.6777 6.44337 58.8385C6.42253 58.9635 6.39275 59.1005 6.53568 59.1869C6.60714 59.2285 6.68456 59.2643 6.76495 59.294C7.60761 59.5858 8.39371 60.0087 9.16788 60.4553C9.66812 60.7382 10.1594 61.0598 10.7103 61.2533C10.8115 61.289 10.9128 61.3665 11.0319 61.2593C10.2041 60.6042 9.38227 59.9432 8.55152 59.2792C8.67062 59.1928 8.75995 59.2285 8.84928 59.2375C9.83785 59.3149 10.8264 59.4519 11.7912 59.6841C13.9142 60.1903 16.0223 60.759 18.1097 61.3873C18.7945 61.5957 19.524 61.697 20.1404 62.1109C20.2893 62.2091 20.3786 62.3104 20.3607 62.498C20.3965 62.5396 20.4411 62.5962 20.3905 62.6319C20.3309 62.6677 20.2833 62.5962 20.2416 62.5605C19.7533 62.5188 19.2679 62.4831 18.7885 62.4324C17.4099 62.2955 16.0372 62.1049 14.6437 62.1466C13.6015 62.1764 12.5564 62.1019 11.5172 62.1764C10.0463 62.2746 8.57236 62.4682 7.11035 62.623C7.03591 62.6319 6.92276 62.6171 6.92276 62.7034C6.92276 62.8106 6.96445 62.9327 7.10142 62.9625C7.21214 62.9854 7.32484 62.9973 7.43789 62.9982C8.18229 63.028 8.91776 63.019 9.65919 63.0309C11.5053 63.0756 13.3574 62.9952 15.1975 63.153C15.8645 63.2126 16.5375 63.1828 17.1866 63.3019C20.2535 63.8766 23.3056 64.4751 26.3517 65.1421C26.709 65.2195 27.0752 65.2761 27.4236 65.4488C27.2599 65.5976 27.0455 65.6423 26.9532 65.8567C26.2981 67.3634 25.8723 68.9534 25.375 70.5107C25.2857 70.7787 25.4644 71.0824 25.7323 71.1539C25.8444 71.1866 25.9621 71.1953 26.0777 71.1793C26.1933 71.1634 26.3043 71.1231 26.4032 71.0613C26.5022 70.9994 26.587 70.9173 26.652 70.8204C26.717 70.7234 26.7608 70.6138 26.7805 70.4988C26.84 70.1742 26.8966 69.8527 26.9383 69.5221C26.9532 69.4149 26.9889 69.3584 27.0961 69.3226C27.4891 69.1648 27.8703 69.0011 28.2663 68.8462C28.8485 68.6275 29.3832 68.299 29.8414 67.8785C30.2404 67.5003 30.5769 67.0626 30.5858 66.479C30.5858 66.3004 30.6275 66.1842 30.7705 66.077C31.4255 65.5708 32.0151 64.9902 32.5868 64.3977C33.1464 63.8296 33.7433 63.2994 34.3734 62.8106C34.4448 62.751 34.5014 62.6677 34.6116 62.7094L36.279 63.3674C35.1654 64.0463 34.1054 64.6984 33.0573 65.3326C33.0066 65.3624 32.9501 65.3773 32.8995 65.3922C32.5201 65.5063 32.1745 65.7118 31.893 65.9907C30.7764 67.0984 30.2047 68.4145 30.2702 70.0105C30.3119 71.0824 30.9253 71.5886 31.9675 71.3504C33.8017 70.9186 35.3619 69.1648 35.6389 67.2413C35.7103 66.7053 35.7937 66.1783 35.4096 65.7138C35.2444 65.51 35.0674 65.3161 34.8796 65.1331C34.9391 65.0974 34.9659 65.0766 34.9957 65.0557C37.3093 63.6771 39.8343 62.7391 42.3653 61.8697C45.462 60.8007 48.6183 59.9521 51.7864 59.1362L51.5631 59.0856C51.3547 59.1065 51.1582 59.1303 50.9497 59.1452C50.0743 59.2029 49.2056 59.3364 48.3533 59.5442L48.3056 59.565C48.2165 59.5996 48.1211 59.6148 48.0257 59.6097C47.984 59.6097 47.9364 59.6097 47.8828 59.6156C48.0763 59.431 48.6332 58.8295 48.785 58.8712L48.791 58.8563H48.8059C48.8059 58.8355 48.8624 58.7968 48.8624 58.7968C48.9131 58.7075 48.9815 58.6509 49.0828 58.6479C49.2391 58.4233 49.4385 58.232 49.6694 58.0851C49.8182 57.9958 49.9761 57.9005 50.1458 57.8291H50.1428C50.6192 57.8291 51.0927 57.2514 51.5899 57.0489C51.5869 57.0311 51.5601 57.0191 51.5512 56.9983C50.8366 57.0995 50.1339 57.2127 49.449 57.4747C47.984 58.0137 46.4684 58.4365 45.0392 59.0648C42.8298 60.0295 40.6264 60.9943 38.5033 62.1466C38.4288 62.1863 38.3523 62.2221 38.274 62.2538L38.1103 60.7531C38.0954 60.6518 38.146 60.6101 38.2294 60.5655C40.1112 59.571 41.999 58.5854 43.9643 57.7725C45.5811 57.0995 47.1801 56.373 48.8059 55.715C48.8118 55.7001 48.8207 55.6852 48.8356 55.6852H48.8475C48.8565 55.6852 48.8565 55.6941 48.8624 55.6941C48.8833 55.7298 48.8684 55.7537 48.8475 55.7715C48.8416 55.7805 48.8327 55.7805 48.8178 55.7864H48.8118C48.3696 56.3976 47.998 57.0569 47.7041 57.7516C47.8173 57.7814 47.862 57.7427 47.9036 57.698C48.2401 57.3407 48.5766 56.9923 48.9041 56.635C49.5413 55.9383 50.2143 55.2713 51.0004 54.7294C51.051 54.6936 51.1343 54.6639 51.0986 54.5864C51.0569 54.4971 50.9646 54.5418 50.8991 54.5567C50.1636 54.7055 49.4282 54.8425 48.6957 55.0152C48.4545 55.0718 48.4694 54.9854 48.4575 54.8157C48.4545 54.2291 48.5408 53.6544 48.5617 53.0708C48.5688 52.8165 48.6275 52.5663 48.7344 52.3354C49.0262 51.6624 49.321 50.9954 49.6187 50.3255C49.7676 49.989 49.8569 49.6317 49.9135 49.2744C50.0029 48.7027 50.0773 48.125 50.1339 47.5474C50.2232 46.6541 50.5418 45.8203 50.6907 44.942C50.8842 43.8283 51.042 42.7058 51.4559 41.6368C51.8281 40.6959 52.1854 39.752 52.5636 38.817C53.0877 37.5426 53.7517 36.3367 54.0673 34.9759C54.1745 34.5054 54.2936 34.0766 54.0792 33.6121C53.9601 33.362 53.9244 33.0762 53.838 32.8052C53.7726 32.6094 53.7603 32.3999 53.8023 32.1978C53.9452 31.4683 54.0107 30.7447 53.6147 30.0658C53.5075 29.8812 53.6385 29.768 53.7457 29.6489C54.0077 29.381 54.0226 29.2589 53.7934 28.9641C53.5313 28.6365 53.2723 28.3001 52.9894 27.9934C52.7512 27.7433 52.5308 27.4723 52.2926 27.2132C52.1289 27.115 52.1438 27.0495 52.3284 26.987C52.7452 26.844 53.1502 26.6654 53.573 26.5344C53.8112 26.4629 53.8708 26.3259 53.8886 26.1145C54.0226 24.3131 54.1566 22.5027 54.3025 20.7012C54.3234 20.4511 54.2817 20.4035 54.0226 20.4809C52.6708 20.9096 51.3219 21.3146 49.9641 21.7374C49.5473 21.8684 49.5413 21.8684 49.3567 21.4605C48.6689 19.9121 48.1329 18.3132 47.5701 16.7261C47.5081 16.5764 47.4779 16.4154 47.4815 16.2534C47.4851 16.0914 47.5224 15.932 47.591 15.7852C47.7905 15.2254 47.6625 14.6626 47.6476 14.0969C47.6382 14.068 47.6332 14.0379 47.6327 14.0075C47.5127 12.4533 47.2596 10.9122 46.8764 9.40118C46.5251 8.08829 46.0256 6.81961 45.3876 5.61961C44.7087 4.33328 43.9791 3.05886 43.1931 1.82315C42.8566 1.29314 42.4993 0.813742 41.9008 0.551713C41.6601 0.455629 41.4036 0.405144 41.1445 0.402832ZM33.2776 1.17701C33.4866 1.16911 33.6934 1.22185 33.8731 1.32887C35.3656 2.06331 36.8251 2.86308 38.2472 3.72585C38.9827 4.19631 39.6825 4.73228 40.3762 5.27421C40.7038 5.53326 40.9479 5.92035 41.2219 6.25682C41.335 6.39676 41.2576 6.5248 41.1504 6.62604C41.079 6.6975 40.9777 6.74217 40.8914 6.78981C40.7991 6.85532 40.677 6.90891 40.7127 7.04886C40.7425 7.16797 40.8765 7.19774 40.9807 7.22156C41.1403 7.25538 41.3065 7.2398 41.4571 7.1769C41.9573 6.96847 42.3802 7.31982 42.7018 7.67118C42.7851 7.76051 42.8209 7.9481 42.9787 7.89153C43.1424 7.829 43.1663 7.65034 43.1514 7.48359C43.1156 7.03695 43.0025 6.59924 42.9012 6.16153C42.6333 5.03897 42.0973 4.02361 41.6566 2.96656C41.4988 2.5884 41.3291 2.21024 41.1713 1.82911C41.0819 1.62068 41.201 1.43606 41.3142 1.28718C41.4035 1.16808 41.5524 1.27229 41.6775 1.32887C42.1301 1.53135 42.3861 1.89462 42.6065 2.31744C42.8447 2.76408 43.1365 3.18094 43.3866 3.61568C43.8154 4.37497 44.3454 5.08959 44.6878 5.88462C45.1881 7.03993 45.8253 8.14165 46.126 9.38629C46.3821 10.488 46.7453 11.5659 46.8764 12.7033C46.924 13.1321 46.8466 13.546 46.8972 13.9599C46.9955 14.7907 46.8734 15.5767 46.531 16.336C46.4416 16.5445 46.4684 16.741 46.5667 16.9554C47.3171 18.5424 47.9364 20.1801 48.5617 21.8238C48.6421 22.0382 48.6064 22.1215 48.383 22.19C46.9478 22.6069 45.5096 23.0476 44.0744 23.4823C43.866 23.5478 43.8005 23.4912 43.738 23.3036C43.3717 22.3329 43.0233 21.3801 42.6869 20.4243C42.6154 20.2218 42.529 20.1146 42.3057 20.1652C42.0437 20.2308 41.9008 20.1146 41.7846 19.8794C41.6 19.5012 41.4482 19.0457 41.1415 18.8075C40.8348 18.5692 40.3494 18.5633 39.9415 18.465C39.6348 18.3846 39.3251 18.2923 39.0125 18.2417C38.3492 18.1191 37.7245 17.8405 37.1902 17.4288C36.288 16.7618 35.359 16.1484 34.4091 15.5619C34.0994 15.541 33.8076 15.4547 33.5069 15.3832C32.6791 15.2135 31.8573 15.0348 31.0265 14.877C30.827 14.8413 30.7883 14.6894 30.7764 14.5554C30.7556 14.3887 30.7973 14.2279 30.97 14.1266C31.235 13.9688 31.5357 13.9391 31.8335 13.8884C33.1578 13.6664 34.496 13.537 35.8384 13.5013C36.1659 13.4954 36.4607 13.6205 36.7674 13.6979C36.8508 13.7245 36.9395 13.7303 37.0256 13.7147C37.1118 13.6991 37.1928 13.6627 37.2617 13.6085C37.9048 13.1827 38.5539 12.7748 39.1971 12.352C39.2983 12.2895 39.483 12.2448 39.4055 12.0751C39.3943 12.051 39.3792 12.0289 39.3609 12.0096C39.3251 11.9798 39.2835 11.9738 39.2328 11.9738L39.084 11.9798H39.0631C38.3547 11.9694 37.6602 12.1773 37.0741 12.5753C36.8359 12.7242 36.2999 12.6319 36.151 12.4086C35.1386 10.8721 33.7004 9.76444 32.3337 8.56744C31.7263 8.04338 31.1337 7.49253 30.4876 7.0042C30.3268 6.88509 30.2494 6.57542 30.3625 6.42059C30.5054 6.2062 30.6901 6.2985 30.8628 6.37592C31.4136 6.62009 31.9407 6.897 32.4349 7.24836C34.1143 8.44834 35.9188 9.46371 37.7113 10.4791C37.7594 10.5086 37.8091 10.5355 37.8602 10.5595C38.1341 10.6488 38.277 10.5297 38.2324 10.2438C38.2095 10.0961 38.1456 9.95784 38.0477 9.84484C36.5947 8.13569 35.0672 6.498 33.5635 4.83352C33.2508 4.48812 32.8786 4.19035 32.5272 3.88068C32.2534 3.65362 32.0302 3.37162 31.8722 3.05291C31.8211 2.96382 31.8002 2.86061 31.8125 2.75866C31.8248 2.65672 31.8698 2.56148 31.9407 2.48716C32.0598 2.35317 32.1699 2.32339 32.3486 2.4157C32.8548 2.65986 33.3372 2.94571 33.7868 3.28814C34.5788 3.88962 35.3798 4.48812 36.1808 5.08959L38.5837 6.88509C38.6433 6.93571 38.7118 6.98335 38.7683 7.03397C38.9172 7.17094 39.0482 7.31387 39.1911 7.45679L39.2775 7.54315C39.3341 7.59972 39.3847 7.67714 39.4562 7.7218C39.6199 7.82006 39.7896 7.90641 39.9623 7.73371C40.0219 7.67416 40.0487 7.62652 40.0517 7.56994C40.0517 7.5491 40.0636 7.52826 40.0517 7.50741L40.0487 7.47764C40.0245 7.39666 39.9805 7.32298 39.9207 7.26325L39.3847 6.70644C39.0893 6.3961 38.7792 6.09998 38.4557 5.81911C37.4135 4.9556 36.3535 4.11889 35.2815 3.30303C34.7366 2.88616 34.0994 2.60924 33.5069 2.26682C33.2925 2.14473 33.1496 1.96608 32.9918 1.79338C32.9394 1.73299 32.905 1.65917 32.8923 1.58025C32.8797 1.50132 32.8894 1.42045 32.9203 1.34674C32.9858 1.18594 33.1436 1.19488 33.2776 1.17999V1.17701ZM16.1087 5.31291C16.1383 5.30806 16.1687 5.3133 16.195 5.3278C16.338 5.4082 16.2844 5.55708 16.2844 5.72978C16.3231 5.90844 16.207 6.05732 16.0462 6.2062C15.0159 7.16499 13.941 8.07316 12.8423 8.95156C12.4045 9.30291 11.8686 9.46668 11.3832 9.73169C11.282 9.78231 11.2254 9.73169 11.1688 9.66023C10.8115 9.20168 10.4602 8.73717 10.1029 8.28159C9.96886 8.11782 10.1535 8.12378 10.2398 8.08805C10.9961 7.81709 11.7405 7.50741 12.4909 7.20965C13.5777 6.78088 14.5633 6.16749 15.5876 5.62259C15.6948 5.56303 15.796 5.49455 15.9003 5.435C15.9717 5.40522 16.0313 5.32482 16.1087 5.31291ZM8.31033 7.78433C8.4612 7.80041 8.60201 7.86766 8.70933 7.9749C8.92372 8.1744 9.09642 8.40368 9.2453 8.65379C9.76043 9.48753 10.4751 10.1605 11.1688 10.8483C11.6542 11.3336 12.1515 11.8011 12.6636 12.2478C12.8333 12.3967 12.8631 12.6259 12.9554 12.8195C12.9911 12.8909 12.9614 12.9475 12.8959 12.9832C12.8631 13.0071 12.8274 13.022 12.8065 13.0428C12.3837 13.4001 11.9847 13.3495 11.4904 13.0994C10.5296 12.6093 9.65958 11.9588 8.91776 11.1758C8.88799 11.1461 8.85821 11.1252 8.82844 11.1044C8.48899 10.8483 8.47112 10.8602 8.32224 11.2533C8.16741 11.6552 8.06617 12.0691 7.88751 12.4562C7.822 12.5902 7.92324 12.7361 8.02448 12.8344C8.13763 12.9505 8.21505 13.1291 8.42348 13.0994C8.51579 13.0845 8.56641 13.0339 8.58725 12.9356C8.63787 12.6974 8.70635 12.4592 8.76591 12.1704C9.54604 12.8254 10.4125 13.3316 11.2671 13.9063L10.4393 14.3797C8.31629 15.5708 6.18729 16.7618 4.07021 17.9678C3.89751 18.0571 3.82605 18.0809 3.75459 17.8665C2.9417 15.3445 2.08712 12.8344 1.40227 10.2677C1.24744 9.67214 1.18193 9.05279 1.06878 8.44536C1.03305 8.26671 1.15215 8.1744 1.26828 8.10889C1.42609 8.03147 1.43205 8.21609 1.48862 8.28755C2.61118 9.83591 3.37643 11.5927 4.29056 13.2572C4.5645 13.7574 4.87119 14.2398 5.163 14.7371C5.22255 14.8264 5.26423 14.9068 5.40716 14.8562C5.56497 14.7966 5.5352 14.7013 5.5084 14.5882C5.39227 14.0701 5.12726 13.6056 4.93372 13.1202C4.89837 13.0455 4.88078 12.9636 4.88233 12.881C4.88388 12.7983 4.90453 12.7171 4.94265 12.6438C5.35058 11.7982 5.92526 11.0627 6.37191 10.2528C6.78877 9.5173 7.31581 8.85925 7.71481 8.11783C7.77 8.00979 7.85612 7.92066 7.96219 7.86179C8.06826 7.80292 8.18946 7.77401 8.31033 7.78433ZM13.5926 9.24932C13.6343 9.25825 13.6641 9.29696 13.6998 9.37438C14.0571 10.1783 14.2983 11.027 14.599 11.8458C14.6288 11.9262 14.6348 11.9917 14.5484 12.0423L13.7862 12.5128C13.7623 12.5277 13.7355 12.5336 13.6492 12.5723C13.6283 12.5336 13.5986 12.4711 13.5569 12.4205L11.949 10.5744C11.8775 10.491 11.806 10.4106 11.949 10.3332C12.476 10.0324 12.878 9.54708 13.4348 9.291C13.5063 9.25825 13.5539 9.24038 13.5926 9.24932ZM19.3364 10.6964C19.4876 10.6886 19.6363 10.7374 19.7533 10.8334C19.8524 10.9062 19.9279 11.0066 19.9703 11.122C20.0127 11.2375 20.02 11.3629 19.9915 11.4825C19.9233 11.8124 19.756 12.1137 19.5121 12.346C18.5019 13.3148 17.6193 14.4085 16.8859 15.6006C16.207 16.6725 15.537 17.7385 15.0278 18.9057C14.9177 19.1328 14.7709 19.34 14.5931 19.5191C13.8785 20.332 13.0269 20.9632 12.0472 21.4188C11.9521 21.4561 11.8705 21.5212 11.8131 21.6057C11.7557 21.6902 11.7252 21.7901 11.7257 21.8923C11.7108 22.0709 11.6542 22.2436 11.6393 22.4223C11.6382 22.6416 11.5865 22.8578 11.4884 23.054C11.3903 23.2502 11.2484 23.4212 11.0736 23.5538C10.9545 23.649 10.9396 23.8009 10.8949 23.9289L10.082 26.6535C10.082 26.6743 10.082 26.6951 10.0761 26.71C10.0761 26.7517 10.082 26.7994 10.0254 26.8232C9.90633 26.853 9.79616 26.8172 9.68897 26.7607C8.36349 26.451 7.04323 26.1195 5.72874 25.7661C5.56497 25.7304 5.40716 25.6768 5.23446 25.6589C4.97243 25.6232 4.94861 25.5011 5.07069 25.3016C5.24339 24.4649 5.44289 23.6342 5.95802 22.9285C6.07117 22.7707 6.06521 22.6426 5.96397 22.4699C5.39823 21.526 4.96945 20.5106 4.49899 19.5221C4.42157 19.3613 4.44837 19.2839 4.60023 19.1945C7.16817 17.6083 9.7319 16.0153 12.2914 14.4155C12.4254 14.3261 12.5564 14.3797 12.6844 14.35C13.1341 14.2487 13.5718 14.1118 13.9648 13.8646C13.9946 13.8438 14.0422 13.8289 14.0541 13.7991C14.343 13.1649 14.9772 12.9475 15.5132 12.6974C16.737 12.1406 17.9727 11.6255 19.0536 10.8126C19.1342 10.7461 19.2325 10.7077 19.3364 10.6964ZM53.4092 21.928V21.9429L53.4152 21.9399C53.3527 22.7022 53.2872 23.4228 53.2306 24.1433L53.1026 25.7364C53.0877 25.9299 53.0311 26.052 52.8227 26.1234C49.4741 27.2741 46.1293 28.4354 42.7881 29.6073L42.669 29.6341C42.5648 29.6489 42.5082 29.5983 42.4308 29.4703C41.7846 28.2971 41.1266 27.1329 40.4626 25.9656C40.3733 25.8168 40.3494 25.7364 40.5638 25.6798L53.2306 21.9697C53.2723 21.9548 53.3199 21.9488 53.4092 21.928ZM52.1884 23.0773C51.7299 23.0863 51.316 23.5151 51.3368 23.9498C51.3577 24.3577 51.706 24.715 52.0931 24.7001C52.5011 24.6942 52.8971 24.2446 52.8882 23.8009C52.8733 23.3066 52.647 23.0714 52.1884 23.0773ZM2.07521 25.6679C2.10499 25.6679 2.14667 25.6738 2.19432 25.6887L7.95004 27.2013L13.7177 28.7199C13.9023 28.7705 13.9618 28.8271 13.8963 29.0177L13.0686 31.7362C13.0388 31.8434 13.0179 31.9566 12.8959 31.9566C12.8758 31.958 12.8557 31.956 12.8363 31.9506L9.7515 31.5278C9.07856 31.4385 8.41157 31.3432 7.74161 31.2509C5.70311 30.9587 3.66343 30.6749 1.62262 30.3993C1.49458 30.3636 1.44991 30.2861 1.47373 30.1075C1.62857 28.6901 1.78043 27.2758 1.92931 25.8495C1.93824 25.8167 1.93526 25.79 1.9442 25.7602C1.9525 25.7466 1.95759 25.7313 1.95909 25.7155C1.97993 25.6738 2.02162 25.656 2.07223 25.656L2.07521 25.6679ZM26.3011 25.9746L26.6375 25.9805C27.2241 26.0103 27.7958 26.2366 28.3318 26.4748C28.57 26.582 28.8052 26.6832 29.0405 26.7964L29.2102 26.8827C29.3829 26.9661 29.5615 27.0525 29.7253 27.1507L30.0618 27.3443C30.169 27.4187 30.2851 27.4812 30.3834 27.5616C30.5978 27.7105 30.8062 27.8743 30.9997 28.0529C31.6489 28.6544 32.1074 29.3631 32.3784 30.1968C32.5719 30.7983 32.7148 31.4147 32.7655 32.034C32.8131 32.6355 32.6344 33.2221 32.4796 33.7997C32.4558 33.8891 32.4201 33.9069 32.3903 33.901C32.3486 33.8861 32.3278 33.8355 32.292 33.7938L31.6489 33.0494C30.844 32.0728 29.7623 31.3628 28.5462 31.0127C27.5818 30.7407 26.5879 30.5867 25.5864 30.5541C24.781 30.5599 23.9784 30.6518 23.1924 30.8281C22.5642 30.9472 21.9329 31.0484 21.3136 31.1645C20.9056 31.236 20.5334 31.4206 20.1612 31.5814C19.9826 31.6648 19.8039 31.7422 19.6253 31.8107L19.5657 31.8226C18.4461 32.2156 17.4963 32.8945 16.5166 33.5198C16.2486 33.6985 16.0253 33.9367 15.7931 34.169L15.7633 34.1928L15.5727 34.3863C15.1201 34.824 14.6794 35.2677 14.1911 35.6667C13.9708 35.9734 13.67 36.1878 13.3931 36.4587C13.4646 35.9525 13.6015 35.4821 13.8278 35.0533C14.0638 34.6075 14.3243 34.1751 14.608 33.758C14.7509 33.5496 14.8938 33.3412 15.0427 33.1447C15.3414 32.7407 15.6542 32.3474 15.9807 31.9655C16.2218 31.6767 16.466 31.3908 16.7161 31.102L17.4605 30.2564C17.5662 30.1478 17.6808 30.0482 17.803 29.9586L17.8804 29.8693C18.1126 29.6728 18.3181 29.4643 18.589 29.244L18.6248 29.2142L18.8243 29.0326C19.5389 28.3537 20.3697 27.8237 21.1974 27.2966C21.2808 27.2371 21.3672 27.1924 21.4535 27.1448L21.784 27.0018C21.8138 26.9899 21.8436 26.9721 21.8704 26.9661C22.0399 26.8959 22.2117 26.8314 22.3855 26.7726L22.7339 26.6654C23.1507 26.5463 23.5646 26.445 23.9726 26.317C24.7251 26.0776 25.5115 25.9619 26.3011 25.9746ZM3.76054 27.3115C3.55211 27.3234 3.30497 27.3026 3.12035 27.4812C2.98963 27.6119 2.88659 27.7676 2.81738 27.9391C2.74818 28.1105 2.71423 28.2941 2.71757 28.4789C2.7209 28.6637 2.76145 28.846 2.8368 29.0148C2.91214 29.1836 3.02073 29.3354 3.15609 29.4613C3.31197 29.5999 3.51327 29.6764 3.72183 29.6764C3.93039 29.6764 4.1317 29.5999 4.28758 29.4613C4.71933 29.0832 4.8295 28.5264 4.57045 27.8683C4.41264 27.4604 4.19825 27.3115 3.7665 27.3115H3.76054ZM50.9438 27.4961C51.2028 27.4931 51.4291 27.6539 51.6286 27.9309C51.6703 27.9606 51.715 27.9904 51.7567 28.0261C51.8222 28.0827 51.846 28.1452 51.9145 28.2167C52.2093 28.5532 52.5308 28.8837 52.8375 29.2112C52.8565 29.2317 52.8707 29.2561 52.8792 29.2827C52.8838 29.2932 52.8857 29.3048 52.8846 29.3162C52.8836 29.3277 52.8797 29.3387 52.8733 29.3482C52.8623 29.3657 52.8469 29.3801 52.8286 29.3899L52.7988 29.4345L52.7929 29.4405C52.7869 29.4465 52.7869 29.4554 52.781 29.4703C52.781 29.4762 52.772 29.4822 52.772 29.4822H52.781V29.506C52.3492 29.9407 52.4653 30.3487 52.8107 30.7417C52.8286 30.7775 52.8524 30.8132 52.8524 30.8489C53.1383 31.2271 52.9001 31.6052 52.8524 31.9864C52.8435 32.0221 52.8375 32.034 52.8078 32.0459L52.7869 32.0578C52.7566 32.0568 52.7266 32.0518 52.6976 32.0429L52.6678 32.034C52.4177 31.9609 52.1685 31.8845 51.9204 31.8047C51.8996 31.8047 51.8847 31.7928 51.8609 31.7839C51.843 31.7839 51.8281 31.763 51.8073 31.763C51.6873 31.7684 51.5675 31.7481 51.4559 31.7035C51.3138 31.6333 51.1532 31.6099 50.997 31.6367C50.8408 31.6634 50.6971 31.7389 50.5865 31.8524C50.5854 31.873 50.5803 31.8932 50.5716 31.9119C50.6907 32.0906 50.8932 32.1352 51.0718 32.1918C51.8013 32.43 52.4207 32.8767 53.0966 33.228C53.2514 33.3174 53.2812 33.502 53.2663 33.6806C53.2574 33.7789 53.2306 33.8801 53.2068 33.9873L52.9924 34.9104C52.997 34.9902 52.9761 35.0694 52.9328 35.1367C52.9447 35.6369 52.5934 36.0091 52.4266 36.4379C52.4088 36.4736 52.3939 36.4885 52.3671 36.557C52.2551 36.86 52.1279 37.1571 51.9859 37.4473C51.9859 37.4681 51.9562 37.4979 51.9502 37.5188V37.5039C51.9502 37.5098 51.9443 37.5098 51.9443 37.5188L51.9294 37.5485C51.9204 37.5545 51.9204 37.5605 51.9145 37.5694C51.8787 37.7034 51.8549 37.8463 51.7418 37.9624C51.6098 38.4125 51.4228 38.8445 51.185 39.2488C51.1641 39.2845 51.1492 39.2845 51.1343 39.356C50.9497 39.7847 50.7562 40.2999 50.5686 40.7703C50.5269 40.943 50.4912 41.1127 50.4495 41.2765L50.4257 41.3212C50.4257 41.3271 50.4197 41.3271 50.4197 41.3361C50.4197 41.351 50.4048 41.3658 50.3989 41.3778C50.4054 41.5739 50.3688 41.769 50.2917 41.9495C50.256 42.0656 50.2262 42.1936 50.1904 42.3068C50.1883 42.3272 50.1833 42.3473 50.1756 42.3663L49.5771 45.0819C49.4133 45.8263 49.3478 46.5826 49.2257 47.327C49.1125 48.0268 49.0828 48.7473 48.9101 49.4352C48.791 49.9354 48.5051 50.3999 48.2758 50.8644C48.0615 51.2992 47.9245 51.7637 47.6595 52.1865L47.6386 52.2311C47.6239 52.2597 47.6119 52.2896 47.6029 52.3205C47.5969 52.3383 47.5969 52.3592 47.588 52.3741L47.5672 52.4723C47.5616 52.5078 47.5596 52.5437 47.5612 52.5795C47.5612 52.6153 47.5612 52.651 47.5523 52.6867V52.7939C47.5539 52.8654 47.5519 52.937 47.5463 53.0083C47.4868 53.7735 47.3885 54.5388 47.4242 55.31C47.4302 55.4529 47.3885 55.5333 47.2515 55.578L47.0818 55.6465C46.9679 55.6898 46.8556 55.7375 46.7453 55.7894L46.5667 55.8609C46.4744 55.8966 46.4178 55.9264 46.2689 55.9621V55.9472C46.2689 55.9472 46.2511 55.9621 46.2392 55.9621L45.8431 56.1259L45.5662 56.239C45.3752 56.3678 45.1623 56.4607 44.9379 56.513L44.8307 56.5725C44.3581 56.7781 43.8876 56.9885 43.4194 57.2038C43.1782 57.2752 42.928 57.4181 42.6839 57.5313C42.4159 57.6504 42.1628 57.7546 41.8978 57.8707C41.4809 58.0554 41.07 58.2281 40.6532 58.4097C40.6412 58.4156 40.6174 58.4097 40.6055 58.4097C40.2244 58.5526 39.8313 58.761 39.474 58.9248C39.3311 59.0022 39.1256 59.0826 38.947 59.1541C38.6194 59.2821 38.545 59.2672 38.4706 58.9308C38.2592 58.7759 38.2383 58.5139 38.1609 58.2876C38.0805 58.0732 38.018 57.841 37.9465 57.6266C37.9316 57.5551 37.8959 57.567 37.8959 57.5253C37.8244 57.4271 37.8244 57.3348 37.7887 57.2335L37.7798 57.1829C37.7589 57.168 37.7589 57.1472 37.75 57.1234L37.7321 57.0757H37.744C37.6458 56.778 37.5356 56.4802 37.4671 56.1824C37.3956 55.9829 37.2676 55.7894 37.2289 55.581C37.2144 55.5122 37.2144 55.4413 37.2289 55.3725L37.2527 55.2743L37.2646 55.2236C37.3242 55.0837 37.4135 54.9467 37.488 54.8068C37.5386 54.6966 37.5773 54.5805 37.6309 54.4673C37.6815 54.3542 37.7202 54.2678 37.7738 54.1249C37.887 53.9105 37.9584 53.6604 38.1013 53.4103C38.1013 53.3507 38.146 53.2912 38.1609 53.2376C38.2889 52.8028 38.4289 52.3592 38.6046 51.9364C38.6046 51.9215 38.5897 51.9006 38.5956 51.8857C38.6462 51.6297 38.8874 51.5374 39.0304 51.3855V51.3944C39.1018 51.3706 39.1405 51.3289 39.1763 51.3289C39.2179 51.2575 39.2596 51.2277 39.3043 51.186C39.4205 51.0438 39.5279 50.8946 39.6259 50.7394C39.7599 50.5428 39.882 50.3344 40.0338 50.1349C40.0815 50.0724 40.1231 49.9711 40.2035 49.9711C40.2184 49.9711 40.2244 49.9711 40.2393 49.9771C40.3554 50.0069 40.3197 50.1409 40.3048 50.2272C40.2439 50.5489 40.2439 50.8792 40.3048 51.2009C40.3405 51.451 40.3822 51.7011 40.403 51.9513L40.3971 52.0644C40.4643 52.2456 40.5006 52.4369 40.5043 52.6301C40.5638 52.8743 40.6115 53.1066 40.6829 53.3507C40.8973 53.7974 41.0551 54.244 41.1981 54.7026L41.2129 54.6966C41.4512 55.0539 41.6983 55.4708 41.9425 55.8579C42.0139 55.9532 42.0913 56.0544 42.1628 56.1259H42.1777V56.1854C42.2492 56.1854 42.2849 56.3403 42.3921 56.1973C42.3712 56.1259 42.3563 56.1259 42.3325 56.1259C42.2952 56.0495 42.2653 55.9697 42.2432 55.8877C42.2283 55.84 42.2045 55.7834 42.1985 55.7388C42.1833 55.69 42.1714 55.6403 42.1628 55.5899C42.1568 55.569 42.1568 55.5393 42.1479 55.5184C42.1422 55.47 42.1322 55.4222 42.1181 55.3755L42.0854 55.1522L42.0467 54.9318C42.0258 54.911 42.0258 54.8812 42.0258 54.8544C42.0199 54.8246 42.0139 54.7949 41.9961 54.7651C41.9901 54.6817 41.9752 54.5954 41.9633 54.509L41.8978 53.9969C41.8918 53.9075 41.8621 53.8242 41.8561 53.7378C41.7702 52.8031 41.8062 51.8613 41.9633 50.9359H42.005C42.0913 50.5071 42.1777 50.0128 42.2611 49.5483C42.2849 49.5483 42.3057 49.5573 42.3325 49.5573C42.3027 50.3314 42.3831 51.1056 42.5559 51.8649C42.5618 51.8798 42.5618 51.9006 42.5618 51.9155C42.669 52.2073 42.7851 52.5021 42.8774 52.8028C42.8983 52.8624 42.9191 52.9309 42.9429 52.9875C42.982 53.089 43.0373 53.1835 43.1067 53.2674C43.1275 53.3031 43.1663 53.3388 43.1663 53.3746C43.2407 53.4311 43.2764 53.4937 43.336 53.5532C43.3777 53.6008 43.4134 53.6604 43.4551 53.711C43.604 53.8539 43.7648 53.9879 43.9494 54.1755C43.9298 54.0369 43.9129 53.8979 43.8987 53.7587C43.8868 53.6306 43.863 53.5026 43.8511 53.3597C43.8511 53.3597 43.8124 53.3388 43.8124 53.3239C43.8096 53.2162 43.7996 53.1088 43.7826 53.0023L43.6635 52.0197C43.6635 51.99 43.6635 51.9721 43.6695 51.9453C43.6695 51.9155 43.6784 51.8649 43.6784 51.8649C43.6269 51.4551 43.607 51.042 43.6189 50.6292L43.6129 50.5786C43.55 50.2142 43.5479 49.8419 43.6069 49.4769C43.6218 49.3786 43.6129 49.2684 43.6218 49.1702C43.6218 49.1493 43.6129 49.1344 43.6129 49.1106C43.6129 48.6401 43.6337 48.1578 43.7767 47.7052L43.7856 47.6546C43.8213 47.4402 43.8571 47.1841 43.8928 46.9459C43.9285 46.7077 43.9643 46.4695 43.9911 46.2313C44.0059 46.133 44.0357 46.0824 44.0923 46.0824C44.1221 46.0824 44.1638 46.0973 44.2114 46.133L44.3603 46.2223L44.5866 46.3682C44.658 46.4188 44.7295 46.4665 44.795 46.532C44.801 46.538 44.8069 46.5469 44.8218 46.5528C44.8376 46.5662 44.8545 46.5782 44.8724 46.5886H44.8873V46.5826C45.3876 46.8327 45.6615 47.2556 46.0009 47.6486C46.1533 47.7604 46.2676 47.9163 46.3285 48.0952C46.5518 48.39 46.7156 48.7057 46.8317 49.057C46.8377 49.0868 46.8525 49.1166 46.8615 49.1463C46.8674 49.1761 46.8823 49.1642 46.8883 49.2357C46.9478 49.3071 46.9776 49.3994 47.0163 49.4858L47.1175 49.7359L47.1741 49.855C47.189 49.8848 47.2039 49.9056 47.2247 49.9265C47.2551 49.9632 47.2971 49.9884 47.3438 49.9979C47.4242 49.7359 47.2396 49.4858 47.3111 49.2357H47.3319C47.3319 49.1642 47.3111 49.1612 47.3111 49.1255C47.2396 48.661 47.1801 48.2024 46.9836 47.7766L46.9806 47.6575C46.8079 47.2317 46.7245 46.794 46.4744 46.4188C46.416 46.3719 46.3768 46.3051 46.3642 46.2313C46.2868 46.1598 46.2451 46.0734 46.2004 45.9901C46.1622 45.9279 46.1245 45.8653 46.0873 45.8025V45.8531C46.0873 45.8471 46.0724 45.8382 46.0724 45.8323V45.8233C45.8716 45.534 45.6528 45.2575 45.4173 44.9955L45.3876 44.9658C45.3578 44.936 45.328 44.936 45.2982 44.8675C45.1285 44.796 44.9647 44.5817 44.792 44.4298C44.7712 44.409 44.7503 44.4 44.7325 44.3792C44.7206 44.3673 44.7325 44.3494 44.664 44.3315C44.3067 44.0874 44.0387 43.7866 43.729 43.5723C43.6695 43.5008 43.598 43.5425 43.5712 43.4293C44.4943 43.3698 45.3876 43.4799 46.3166 43.5365V43.5008H46.3225C46.7811 43.5723 47.2099 43.6586 47.6237 43.8373C47.6386 43.8373 47.6535 43.8581 47.6744 43.8581V43.873C47.9602 43.9385 48.2312 44.0665 48.5021 44.1946C48.5617 44.2243 48.6332 44.3137 48.6957 44.2303C48.7463 44.1588 48.6659 44.0933 48.6242 44.0368C48.517 43.8879 48.4158 43.739 48.3026 43.5871C48.2818 43.5514 48.2431 43.5157 48.2431 43.4799C48.0317 43.2715 47.8679 43.0333 47.6773 42.8249C47.615 42.7651 47.5554 42.7025 47.4987 42.6373C47.2734 42.4931 47.0655 42.3232 46.8793 42.1311C46.8436 42.1073 46.8079 42.0656 46.7721 42.0656C46.6828 42.0656 46.5816 41.9643 46.4863 41.8988C46.397 41.8363 46.2957 41.7797 46.2004 41.7142C46.1647 41.6934 46.129 41.6785 46.0933 41.6547C45.6585 41.4909 45.2208 41.342 44.7831 41.1783C44.7712 41.1783 44.7444 41.1693 44.7444 41.1634C44.7444 41.1634 44.7057 41.1634 44.6938 41.1574C44.6138 41.1548 44.5375 41.123 44.4794 41.0681C44.4432 41.0417 44.4153 41.0055 44.399 40.9639L44.3841 40.9281C44.3633 40.8686 44.3543 40.806 44.3633 40.7405C44.3763 40.5215 44.3643 40.3018 44.3275 40.0855C44.3216 40.02 44.3067 39.9634 44.2918 39.8979C44.2787 39.8381 44.2649 39.7786 44.2501 39.7192L44.2054 39.5346C44.1834 39.4448 44.1596 39.3555 44.134 39.2666C44.134 39.2666 44.1042 39.2607 44.1042 39.2368C44.0357 38.8051 43.866 38.3674 43.735 37.9386L43.6844 37.7689C43.588 37.6184 43.5297 37.4467 43.5146 37.2686C43.5146 37.2091 43.5146 37.1615 43.5206 37.1019L43.5265 37.0245C43.5414 36.9441 43.5563 36.8607 43.5861 36.7803L43.6844 36.4587C43.6844 36.4438 43.6844 36.4081 43.6933 36.4081H43.6844C43.7737 35.9019 43.9791 35.4731 44.1221 35.0146C44.1221 35.0086 44.137 35.0086 44.137 34.9997L44.1667 34.9699C44.1727 34.964 44.1786 34.964 44.1786 34.958C44.2984 34.8007 44.3547 34.6041 44.3365 34.4072C44.3267 34.3012 44.2995 34.1976 44.2561 34.1005C44.2084 33.9724 44.1429 33.8503 44.0774 33.7223C44.0715 33.7074 44.0476 33.6925 44.0357 33.6866C44.0298 33.6776 44.0208 33.6717 44.0208 33.6628C43.7528 33.3493 43.5412 32.9916 43.3955 32.6057L43.3509 32.4926C43.336 32.4777 43.336 32.4628 43.327 32.4419L43.3211 32.4211C43.3129 32.4048 43.3059 32.3879 43.3003 32.3705L43.3062 32.3764L43.3003 32.3615C43.3087 32.318 43.3206 32.2751 43.336 32.2335C43.3479 32.2037 43.3658 32.1829 43.3777 32.1561C43.3926 32.1352 43.4134 32.1144 43.4372 32.0906L43.464 32.0697C43.6576 31.7898 43.8362 31.498 44.0506 31.2271C44.1383 31.1256 44.1981 31.0031 44.2242 30.8716C44.2503 30.74 44.2418 30.604 44.1995 30.4767C44.0804 30.0688 44.0923 30.0598 44.4972 29.911C44.5717 29.8812 45.4382 29.5537 45.7866 29.4465L46.0099 29.3571L46.0665 29.3393C46.5704 29.1474 47.0756 28.9588 47.5821 28.7735C47.5969 28.7676 47.6178 28.7676 47.6327 28.7676C48.0495 28.5532 48.5051 28.4162 48.9428 28.2673C49.0024 28.2465 49.053 28.2227 49.1215 28.2078C49.1959 28.1482 49.4103 28.1036 49.4788 28.044C49.8361 27.9309 50.1249 27.7671 50.4465 27.6956C50.5866 27.5775 50.7609 27.5076 50.9438 27.4961ZM34.7694 29.2916C35.0016 29.2946 35.2322 29.3307 35.4542 29.3988L35.4959 29.4107C36.2671 29.6489 37.0532 29.8335 37.7887 30.1849C37.9078 30.2415 38.0388 30.2981 38.1252 30.4142C38.6016 30.7566 39.0393 31.1497 39.4055 31.6201C39.9713 32.3496 40.537 33.0851 41.0641 33.9218C41.0313 33.9129 40.9986 33.898 40.9628 33.8831V33.8801C40.769 33.7973 40.5844 33.6945 40.412 33.5734C39.7645 33.1808 39.0943 32.8269 38.4051 32.5134C38.0894 32.3756 37.7586 32.2757 37.4195 32.2156C36.5262 32.0501 35.6144 32.0091 34.7098 32.0936C34.4597 32.1144 34.2036 32.0936 33.9506 32.0936C33.7659 32.0936 33.6796 32.0042 33.6796 31.8196C33.6796 31.1199 33.7153 30.4142 33.5009 29.7353C33.4563 29.5924 33.5426 29.5328 33.6647 29.4911C34.02 29.3624 34.3945 29.2949 34.7724 29.2916H34.7694ZM26.581 31.5933C27.8405 31.5487 28.9988 31.906 30.0558 32.5581C30.4489 32.7963 30.8092 33.0821 31.1367 33.4037L31.1784 33.4424C31.5417 33.8087 31.8632 34.2166 32.1312 34.6632C32.3694 35.0503 32.3069 35.4731 32.2265 35.896C32.0121 37.1049 31.2856 37.9982 30.4638 38.8349C29.6747 39.6358 28.6891 40.1569 27.775 40.7644C26.4797 41.6279 24.9998 41.9643 23.4932 42.1877C21.6113 42.4646 19.7027 42.4944 17.8178 42.7445C17.133 42.8308 16.4362 42.8874 15.7514 43.0095C14.9449 43.1417 14.22 43.5787 13.7266 44.2303C13.542 44.4804 13.4288 44.7871 13.2502 45.1325C13.123 44.7462 13.1507 44.3256 13.3276 43.9593C13.6534 43.255 14.2147 42.6864 14.9147 42.3514C16.1504 41.6964 17.532 41.5713 18.8541 41.2348C19.926 40.9639 21.0277 40.806 22.0907 40.5142C23.5599 40.1198 24.9832 39.5709 26.3368 38.8766C27.0514 38.5044 27.7958 38.1262 28.2901 37.4324C28.4578 37.194 28.5759 36.9244 28.6373 36.6395C28.6986 36.3545 28.7021 36.0602 28.6474 35.7739C28.6325 35.6726 28.6028 35.625 28.567 35.6161C28.5313 35.6101 28.4777 35.6369 28.4181 35.6965C27.8822 36.1729 27.3254 36.6314 26.7179 37.0334C25.7651 37.6468 24.714 38.016 23.6272 38.284C21.9002 38.7128 20.1553 39.0761 18.3747 39.2071C17.1187 39.2852 15.8784 39.5274 14.6854 39.9277C13.673 40.279 12.6398 40.6274 11.8269 41.3867C11.7257 41.476 11.6036 41.5564 11.4398 41.6785L11.4606 41.5653L11.3832 41.6219V41.607C11.413 41.5892 11.4309 41.5683 11.4547 41.5564C11.5011 41.3443 11.5859 41.1425 11.7048 40.9609L13.6283 37.9178C13.6627 37.8605 13.7037 37.8076 13.7504 37.76C14.745 36.7773 15.6948 35.7441 16.7965 34.8866C18.6248 33.4573 20.6198 32.3407 22.9155 31.8494C23.4723 31.7273 24.0381 31.641 24.6128 31.641C25.2678 31.635 25.9318 31.6112 26.578 31.5903L26.581 31.5933ZM3.85582 31.6588C3.89453 31.6588 3.94515 31.6648 3.99875 31.6856C4.08808 31.7154 4.18336 31.7065 4.27864 31.7154C4.6568 31.7988 5.05282 31.8047 5.428 31.9C5.46373 31.9 5.47862 31.906 5.52924 31.9298C5.93066 31.9493 6.3294 32.0061 6.72029 32.0995C7.15204 32.1591 7.58379 32.2067 8.00959 32.2782C8.10785 32.2782 8.1942 32.2722 8.28651 32.3288C8.3014 32.3288 8.32224 32.3228 8.32224 32.3288C8.82248 32.3883 9.21553 32.4181 9.64728 32.4926H9.60262V32.5074C9.88847 32.5432 10.079 32.5789 10.2964 32.6146C10.5257 32.6504 10.7609 32.704 10.9813 32.704H10.9902C11.011 32.704 11.0259 32.7159 11.0408 32.7159L11.1033 32.7308C11.2463 32.7367 11.3028 32.8141 11.3267 32.9392C11.4398 33.6151 11.5351 34.294 11.675 34.9729C11.675 35.0235 11.7048 35.0682 11.6989 35.1099L11.7584 35.4374L11.94 36.426C11.94 36.4558 11.94 36.5153 11.949 36.5332V36.563C12.0204 36.9888 12.0979 37.3758 12.1693 37.7838V37.9207C11.8 38.3264 11.4984 38.7889 11.276 39.2904C11.1867 39.5138 11.0676 39.743 10.9783 39.9634L10.9604 39.9723C10.8889 40.1986 10.7758 40.419 10.6686 40.6363C10.6597 40.6363 10.6537 40.6512 10.6478 40.6661C10.6329 40.6929 10.6239 40.7376 10.612 40.7554V40.7644C10.46 41.193 10.2686 41.6067 10.0403 42.0001C10.0165 42.0596 9.96886 42.1162 9.96886 42.1668C9.8974 42.4348 9.83189 42.7087 9.69492 42.9589C9.65739 43.1934 9.58302 43.4205 9.47458 43.6318C9.38455 44.0347 9.25489 44.4276 9.08749 44.805C9.06665 44.8616 9.03091 44.9122 9.03091 44.9688L9.02496 44.9896C9.01603 45.0104 9.01007 45.0491 8.99518 45.0759C8.98978 45.107 8.97974 45.1372 8.96541 45.1653L8.95945 45.195L8.8463 47.4044L8.90883 47.4283L9.18873 46.8774C9.28103 46.6987 9.3525 46.5112 9.45671 46.3265C9.51031 46.1985 9.60559 46.0705 9.60559 45.9395C9.817 45.5821 10.0105 45.2248 10.2309 44.8973C10.2547 44.8616 10.2964 44.8377 10.3202 44.7692C10.5048 44.4804 10.7192 44.1023 10.9396 43.7747C11.017 43.6467 11.1004 43.5365 11.1718 43.4085C11.2195 43.2656 11.2969 43.2447 11.3624 43.1822C11.4249 43.1167 11.4606 43.0512 11.6036 42.9886C11.6036 43.0452 11.6185 43.0958 11.6125 43.1465L11.6036 43.1762C11.6036 43.203 11.5917 43.2298 11.5827 43.2596L11.5768 43.2894C11.5678 43.3102 11.5678 43.3251 11.5619 43.346C11.5562 43.3653 11.5542 43.3855 11.5559 43.4055C11.5559 43.4234 11.541 43.4353 11.547 43.4591L11.5381 43.5038H11.547C11.4815 43.9325 11.4874 44.4179 11.4755 44.8675C11.4755 44.8884 11.4606 44.9271 11.4606 44.939L11.4755 44.933C11.5351 45.3618 11.6036 45.7906 11.6601 46.2193H11.6542C11.6631 46.2193 11.6691 46.3087 11.6691 46.3474C11.7405 46.7762 11.8328 47.2109 11.8835 47.6486L11.8894 47.6992C11.8984 47.729 11.9043 47.7498 11.9043 47.7766C11.9758 48.122 12.2318 48.3573 12.3897 48.658C12.5058 48.8218 12.6279 49.0153 12.7351 49.1583H12.741V49.1642C13.0983 49.4798 13.3961 49.8014 13.7981 50.0873C13.8576 50.0873 13.9142 50.1587 13.9708 50.1587H13.9648V50.1945C14.1077 50.2093 14.2268 50.3225 14.3787 50.2808C14.4063 50.2733 14.4325 50.2612 14.4561 50.2451C14.477 50.2302 14.5067 50.2153 14.5157 50.1945C14.5484 50.129 14.4859 50.0932 14.4353 50.0724C13.8487 49.7002 13.941 49.0898 13.8695 48.521H13.8934V48.5121C14.0363 48.6491 14.1345 48.7801 14.2566 48.929C14.2757 48.9588 14.2999 48.985 14.3281 49.0064L14.477 49.1702C14.5782 49.2774 14.6854 49.3786 14.7985 49.4679C14.9147 49.5632 15.0368 49.6644 15.1707 49.7359C15.2303 49.7568 15.2869 49.8074 15.3375 49.8074H15.3226C15.7514 50.0158 16.1236 50.2153 16.5137 50.4208C16.602 50.432 16.6849 50.4693 16.7519 50.528C16.8948 50.9567 17.0645 51.3855 17.0228 51.8857C17.0377 51.8857 17.0526 51.9364 17.0586 51.9751C17.0635 52.0049 17.0614 52.0355 17.0526 52.0644C17.1032 52.4813 17.1032 52.8981 17.0437 53.315C17.0517 53.3335 17.0553 53.3536 17.0543 53.3738C17.0532 53.3939 17.0476 53.4135 17.0377 53.4311C17.0288 53.446 17.0377 53.452 17.0318 53.4669H17.0377C17.0377 53.8837 17.0318 54.2946 16.9246 54.7026C16.9156 55.1105 16.7876 55.5065 16.7459 55.9115C16.7459 55.9264 16.737 55.9413 16.731 55.9621C16.7072 56.0395 16.6715 56.1318 16.8442 56.111V56.105C17.2313 55.7001 17.6183 55.31 17.9757 54.8604V54.8902C17.9816 54.7472 18.065 54.6728 18.1454 54.6043C18.2943 54.4554 18.4431 54.2172 18.595 54.0088C18.7439 53.8004 18.8957 53.6008 19.0476 53.3954L19.0536 53.3597C19.0744 53.2882 19.1042 53.2406 19.1399 53.2227C19.1548 53.2167 19.1697 53.2078 19.1816 53.2078H19.2292C19.2824 53.2173 19.3331 53.2376 19.3781 53.2674C19.4571 53.3108 19.5336 53.3585 19.6074 53.4103C20.0362 53.6455 20.5215 53.8033 20.8431 54.2113C20.8788 54.247 20.9205 54.2529 20.9562 54.3244C21.1051 54.3959 21.2421 54.5626 21.3523 54.7174L21.4654 54.8246C21.4714 54.8306 21.4803 54.8306 21.4863 54.8395C22.052 55.316 22.0937 55.572 21.6858 56.2092C21.6739 56.2301 21.65 56.2509 21.6381 56.2509C21.6214 56.3083 21.5974 56.3634 21.5667 56.4147C21.5503 56.4522 21.5303 56.4881 21.5071 56.5219L21.4773 56.5725C21.3731 56.7452 21.257 56.9239 21.2153 57.1234C21.1715 57.2863 21.1594 57.4561 21.1796 57.6236C21.257 57.9035 21.3284 58.1894 21.388 58.4752C21.4237 58.6449 21.4595 58.8176 21.4714 58.9963C21.5309 59.4191 21.3285 59.6752 20.9711 59.8538V59.8479C20.8997 59.8538 20.8937 59.8985 20.858 59.9193C20.8404 59.9363 20.8204 59.9503 20.7984 59.961C20.7624 59.9892 20.7246 60.0151 20.6853 60.0384C20.5839 60.099 20.5038 60.1895 20.456 60.2975C20.456 60.3183 20.456 60.3124 20.4501 60.3273C20.4441 60.3392 20.4501 60.369 20.4441 60.369H20.4649V60.4106C20.3935 60.6191 20.3577 60.768 20.322 60.8752C20.3131 60.9049 20.3012 60.9258 20.2922 60.9466C20.2863 60.9704 20.2714 60.9823 20.2625 60.9972C20.2565 61.0121 20.2416 61.027 20.2357 61.033C20.216 61.0519 20.1911 61.0643 20.1642 61.0687H20.1434C20.0922 61.0646 20.0419 61.0526 19.9945 61.033C19.8932 60.9972 19.7622 60.9466 19.5836 60.89C19.5717 60.8841 19.5568 60.8841 19.5508 60.8752C19.5401 60.8682 19.5278 60.8641 19.5151 60.8632L19.4347 60.8275H19.4049V60.7977H19.399C19.1846 60.7263 18.9821 60.6846 18.7915 60.6042C18.6784 60.5625 18.5533 60.5268 18.4342 60.4762C18.2853 60.4404 18.1364 60.369 17.9846 60.369C17.5677 60.226 17.1479 60.1546 16.7459 60.0116C16.7132 60.0116 16.6893 60.0176 16.6179 60.0116V60.0176C16.332 59.961 16.1027 59.8896 15.8318 59.8389C15.5668 59.7973 15.4685 59.6603 15.4953 59.3983C15.5102 59.2881 15.5042 59.1601 15.5042 59.0529C15.5042 59.0171 15.4953 59.0022 15.4953 58.9338C15.4536 58.8593 15.3881 58.7759 15.3315 58.6807C15.3142 58.6568 15.3002 58.6308 15.2899 58.6032C15.2541 58.5675 15.1827 58.5318 15.1827 58.4901C15.1112 58.4752 15.138 58.4603 15.1172 58.4454C14.8968 58.237 14.9593 57.9601 14.9891 57.6951L14.9951 57.6087L15.0189 57.4449C15.0248 57.4152 15.0248 57.3854 15.0308 57.3675C15.1469 56.9209 15.1737 56.504 14.6943 56.236C14.6378 56.2003 14.605 56.1646 14.5306 56.1169V56.1288C14.3153 55.9543 14.0918 55.7903 13.8606 55.6375C13.8249 55.5661 13.8159 55.5512 13.7445 55.5214C13.4075 55.339 13.097 55.1116 12.8214 54.8455L12.6011 54.7264H12.6308C12.5862 54.6519 12.5356 54.6609 12.4998 54.6251C12.4433 54.5835 12.3926 54.5537 12.3212 54.506C11.9639 54.2023 11.4785 53.9165 11.0914 53.5681C10.9574 53.5234 10.8711 53.4192 10.7639 53.3299V53.318C10.3857 53.05 10.0135 52.7939 9.64132 52.5081H9.65026C9.60559 52.5081 9.60559 52.4723 9.53413 52.4366C9.31974 52.3294 9.10535 52.1507 8.92074 52.0078C8.86119 51.9364 8.80462 51.9364 8.74804 51.9364C8.57534 51.7934 8.42646 51.7279 8.28353 51.5999C8.22398 51.5642 8.17634 51.5225 8.10488 51.4808C7.68055 51.2383 7.285 50.9486 6.92574 50.6173L6.89001 50.5845L6.8245 50.5131C6.76793 50.4429 6.72911 50.3602 6.71135 50.2719V50.3285C6.4523 50.0486 6.28258 49.727 6.06819 49.4352L6.04735 49.3905C6.03858 49.3783 6.03342 49.3638 6.03246 49.3488C6.02632 49.3235 6.02332 49.2975 6.02353 49.2714C6.0338 49.2137 6.05837 49.1594 6.09499 49.1136C6.09499 49.0987 6.10392 49.0779 6.10392 49.054C6.17538 48.5985 6.4255 48.1846 6.60416 47.7558V47.6456C6.60416 47.6456 6.60416 47.5801 6.59523 47.5503L6.58332 47.5087L6.56843 47.4938C6.55447 47.4796 6.53701 47.4693 6.51781 47.464H6.49697C6.43472 47.4706 6.37523 47.4931 6.32427 47.5295C6.26506 47.5659 6.21012 47.6089 6.1605 47.6575L6.10094 47.7022C6.08536 47.7198 6.07141 47.7387 6.05926 47.7588L6.03841 47.7885C6.03841 47.7945 6.03246 47.7885 6.03246 47.7885C6.03246 47.7945 6.02353 47.7885 6.02353 47.7885V47.7945C5.8806 47.9583 5.66621 48.1012 5.4816 48.2531C5.44587 48.2888 5.38036 48.3305 5.38036 48.3662V48.3603H5.35952C5.29997 48.4317 5.22553 48.4317 5.14513 48.396L4.22207 47.988C4.15061 47.9523 4.11488 47.8749 4.10297 47.8034C4.09421 47.7719 4.08627 47.7401 4.07914 47.7082L4.0583 47.6307V47.6456C3.95111 47.1454 4.12381 46.7732 4.21611 46.3444C4.22207 46.3087 4.231 46.2729 4.231 46.2372C4.30247 45.8203 4.32926 45.3797 4.45135 44.9777V44.7931C4.39179 44.3345 4.38584 43.8849 4.35309 43.4234L4.35904 43.1911C4.31735 42.3395 4.26078 41.4909 4.231 40.6393C4.1655 38.8587 4.02257 37.087 4.07319 35.3094C4.08183 34.983 4.00593 34.6599 3.85285 34.3714C3.76257 34.204 3.66419 34.041 3.55806 33.8831C3.47975 33.7854 3.42591 33.6703 3.40105 33.5476C3.37619 33.4248 3.38102 33.2979 3.41514 33.1774C3.52233 32.7605 3.60273 32.3318 3.68312 31.9119C3.70694 31.763 3.74565 31.6618 3.86178 31.6558L3.85582 31.6588ZM3.36154 32.7903L3.37643 32.835C3.39132 32.9303 3.35559 33.0285 3.31688 33.1715C3.28437 33.0892 3.28437 32.9976 3.31688 32.9154C3.32873 32.8736 3.34366 32.8328 3.36154 32.7933V32.7903ZM35.2667 32.7993C35.6537 32.7933 36.0319 32.8141 36.3981 32.8707C37.0532 32.9213 37.6487 33.0434 38.0358 33.359C38.3187 33.4781 38.5986 33.627 38.8696 33.7878C39.5246 34.1809 40.1797 34.5888 40.8407 34.9878C40.9789 35.0695 41.0985 35.179 41.1921 35.3094L41.8561 36.2473C41.8918 36.295 41.9454 36.3545 41.9008 36.417C41.886 36.4371 41.8651 36.4518 41.8412 36.4587C41.7876 36.4706 41.74 36.4528 41.6923 36.426C41.4005 36.2592 41.0968 36.1044 40.805 35.9377C39.6963 35.3256 38.5106 34.865 37.2795 34.568C36.9609 34.4786 36.6602 34.3893 36.3177 34.3446L35.8652 34.2434C35.8532 34.2523 35.88 34.2791 35.9158 34.3149C35.9307 34.3297 35.9455 34.3446 35.9515 34.3595C35.9846 34.3995 36.0251 34.4328 36.0706 34.4578L36.1302 34.4876C36.8091 34.83 37.9554 35.0444 38.7892 35.4315L38.9619 35.5178C39.4264 35.756 39.8492 36.0597 40.272 36.3813L41.07 36.9977C42.273 37.8701 43.0055 39.0493 43.3628 40.4785C43.3717 40.5202 43.3866 40.5649 43.3926 40.6065L43.4223 40.6482C43.4819 40.7376 43.4938 40.8418 43.4729 40.9341C43.4789 40.9579 43.4789 40.9788 43.4878 40.9996C43.473 41.208 43.3092 41.1187 43.2139 41.1187C42.5972 41.0852 41.9871 40.9751 41.3976 40.7912H41.3797C41.2278 40.7435 41.0283 40.6721 40.8884 40.6304C40.2601 40.4071 39.6676 40.145 39.0572 39.9217C38.3068 39.6537 37.7172 39.1445 37.086 38.6919C36.0268 37.9661 35.0298 37.1534 34.1054 36.2622C34.006 36.1737 33.9251 36.0664 33.8672 35.9466C33.8026 35.796 33.741 35.6441 33.6826 35.491L33.5754 35.2111C33.5533 35.1509 33.5295 35.0913 33.5039 35.0325L33.498 35.0176C33.489 35.0116 33.489 34.9967 33.489 34.9878V34.9818L33.4831 34.9521C33.4442 34.8326 33.4516 34.703 33.5039 34.5888C33.5099 34.5739 33.5099 34.559 33.5188 34.5471L33.5337 34.4965L33.5456 34.4548C33.5545 34.4399 33.5545 34.4161 33.5605 34.4042L33.5694 34.3595L33.5754 34.3089L33.5843 34.2672L33.5903 34.2166L33.5962 34.1749L33.6051 34.1243L33.6111 34.0826L33.62 34.032C33.62 34.0171 33.62 34.0022 33.626 33.9873C33.626 33.9754 33.626 33.9516 33.6349 33.9397V33.1476C33.626 32.9035 33.7123 32.8082 33.9565 32.8171C34.1947 32.8231 34.4389 32.8141 34.6801 32.8022L34.9034 32.8141C35.0225 32.8082 35.1416 32.7993 35.2667 32.7993ZM36.1123 34.3833C36.139 34.3946 36.167 34.4026 36.1957 34.4072H36.2016C36.1659 34.431 36.1182 34.422 36.1034 34.4667C36.0914 34.4072 36.0974 34.3863 36.1123 34.3833ZM38.7326 35.4017C38.7443 35.408 38.7562 35.414 38.7683 35.4196H38.7773L38.7326 35.4017ZM33.0513 35.9287L33.0573 35.9377C33.0781 35.9466 33.0989 35.9674 33.1228 36.0091C33.3491 36.4677 33.6647 36.8428 34.0161 37.1972C34.3853 37.5545 34.7873 37.882 35.1743 38.2334C35.9723 38.954 36.7882 39.6626 37.61 40.3564C38.14 40.8031 38.7773 41.0353 39.4562 41.214C40.9986 41.607 42.5797 41.7559 44.1459 41.9703C44.5598 42.0299 44.932 42.1638 45.2595 42.4348H45.2387C45.2685 42.4586 45.2893 42.4705 45.3101 42.4944C44.4288 42.3663 43.5533 42.3753 42.672 42.3574C41.7072 42.3365 40.7633 42.4467 39.8135 42.5569C39.478 42.5887 39.1396 42.5625 38.813 42.4795C37.8959 42.271 37.0324 41.8988 36.1629 41.5356C35.1863 41.1187 34.3734 40.4845 33.5992 39.7847L33.4295 39.621C33.1776 39.3762 32.971 39.0889 32.8191 38.7723L32.8131 38.7545C32.5451 38.1232 32.56 37.4205 32.7655 36.6463C32.822 36.4379 32.8846 36.2295 32.9501 36.021C32.9709 35.9555 33.0096 35.9198 33.0513 35.9287ZM32.3129 39.4423C32.5064 40.1361 33.0066 40.6214 33.4295 41.1485L33.5158 41.2646L33.5992 41.3778C33.6924 41.4838 33.7984 41.5778 33.9148 41.6576C33.9654 41.6934 34.0041 41.7172 34.0518 41.7559L34.1113 41.8065C34.6331 42.2172 35.1684 42.6105 35.7163 42.9857L36.6959 43.6675C37.1396 43.9742 37.6041 44.2333 38.0894 44.4596C38.2085 44.5191 38.3336 44.5668 38.4557 44.6233C38.8249 44.7812 39.2001 44.9181 39.5842 45.0402L39.6437 45.0611C39.882 45.1206 40.141 45.1444 40.3881 45.1742C40.4834 45.1802 40.5787 45.195 40.6621 45.204C40.7252 45.2177 40.7856 45.2419 40.8407 45.2754C40.9132 45.318 40.981 45.3679 41.0432 45.4243C41.2636 45.6238 41.472 45.9097 41.4839 46.0794C41.4839 46.1092 41.4839 46.133 41.478 46.1538C41.472 46.1687 41.472 46.1747 41.4631 46.1836C41.4333 46.2313 41.3916 46.2729 41.3648 46.3265C41.2755 46.4754 41.1861 46.6243 41.1117 46.7821L41.079 46.8625C41.024 46.9843 40.9961 47.1166 40.9971 47.2503C40.9982 47.3839 41.0281 47.5157 41.0849 47.6367C41.4273 47.2972 41.734 46.934 41.9573 46.5171C42.0617 46.3263 42.1474 46.1259 42.2134 45.9186C42.2432 45.8382 42.2224 45.7459 42.2432 45.6685C42.273 45.5792 42.1717 45.4601 42.2134 45.4005C42.2134 45.3975 42.2224 45.3975 42.2283 45.3886C42.2407 45.379 42.2549 45.3719 42.27 45.3678C42.2998 45.3618 42.3296 45.3529 42.3504 45.3529C42.407 45.3469 42.4576 45.338 42.5142 45.338C42.6571 45.338 42.7941 45.3618 42.931 45.4035C43.0144 45.4333 42.9876 45.5375 42.9787 45.6179V45.6328C42.9638 45.8888 42.8596 46.1241 42.7643 46.3533C42.7434 46.4092 42.7196 46.4639 42.6928 46.5171C42.5499 46.9118 42.3578 47.287 42.1211 47.6337C41.7698 48.0982 41.3648 48.533 40.7068 48.5568H40.5192C40.406 48.5568 40.2899 48.5866 40.1767 48.5925C40.1213 48.5888 40.0663 48.6034 40.02 48.6341C39.9737 48.6647 39.9388 48.7098 39.9207 48.7622C39.87 48.8784 39.8016 48.9766 39.748 49.0898L39.7271 49.1404C39.4586 49.7923 39.0428 50.3732 38.5122 50.8376C38.274 51.0461 38.0239 51.2515 37.7678 51.4421C37.3351 51.7255 36.8665 51.9498 36.3743 52.1091L36.2671 52.1507L36.1659 52.1954L36.1063 52.2163C36.0766 52.2222 36.0438 52.2371 36.017 52.246C35.9098 52.2877 35.8235 52.3503 35.88 52.514C35.9396 52.6927 36.0676 52.7433 36.2314 52.7522C36.2671 52.7522 36.3088 52.7522 36.3505 52.7433C36.5029 52.7294 36.653 52.6964 36.7971 52.645C36.9401 52.5944 37.083 52.5259 37.2319 52.4664C37.3331 52.4217 37.4314 52.3771 37.5386 52.3443C37.4492 52.7076 37.4046 53.044 37.2885 53.3567L37.2259 53.5175C37.1396 53.7094 37.0502 53.9 36.9579 54.0892C36.9043 54.2172 36.8388 54.3393 36.7733 54.4614C36.4309 55.1462 36.0438 55.8013 35.5674 56.4117C35.2656 56.7993 34.9084 57.1405 34.5074 57.4241C34.4063 57.4982 34.3041 57.5706 34.2007 57.6415C33.8399 57.8739 33.4616 58.078 33.0692 58.2519L32.8786 58.3412L32.7208 58.4008L32.5928 58.4544C32.4737 58.502 32.3486 58.5437 32.2265 58.5883C32.0615 58.6464 31.8947 58.6991 31.7263 58.7462C31.1691 58.9132 30.6023 59.0465 30.029 59.1452C30.0052 59.1452 29.9903 59.1541 29.9695 59.1541C29.8057 59.1839 29.6479 59.2047 29.4841 59.2315C29.3114 59.2553 29.1387 59.2821 28.9601 59.303C28.3598 59.3679 27.7533 59.3479 27.1586 59.2434L27.0752 59.2196C26.9249 59.1769 26.78 59.117 26.6435 59.0409C26.4589 58.9397 26.2862 58.8325 26.1016 58.7432C25.9695 58.6763 25.8403 58.6038 25.7145 58.5258C25.5504 58.4288 25.3913 58.3235 25.2381 58.2102C24.9309 58.008 24.6897 57.7202 24.5443 57.3824C24.4646 57.1846 24.3731 56.9917 24.2703 56.8048C24.2406 56.7452 24.2078 56.6976 24.181 56.6469C23.9374 56.26 23.6615 55.8945 23.3562 55.5542C23.237 55.409 23.1129 55.268 22.984 55.1313C22.9215 55.0599 22.8649 54.9884 22.7994 54.9229C22.5487 54.6421 22.2906 54.3681 22.0252 54.1011L21.8257 53.9016C21.4906 53.5717 21.128 53.2708 20.7419 53.0023C20.4537 52.7926 20.1524 52.6016 19.8396 52.4306L19.661 52.3115C18.8096 51.7762 18.1521 50.982 17.7851 50.0456C17.6571 49.7687 17.4665 49.6823 17.13 49.6764C16.8727 49.6807 16.6173 49.632 16.3797 49.5334L16.3737 49.5275C16.2293 49.4673 16.0963 49.3827 15.9807 49.2774L15.9032 49.2297C15.8377 49.1523 15.7901 49.057 15.7305 48.9617C15.3008 48.3371 14.9167 47.6823 14.5812 47.0025C14.5812 47.0114 14.5871 47.0173 14.5901 47.0263L14.5722 46.9876L14.5812 47.0025C14.5141 46.806 14.4417 46.6113 14.3638 46.4188L14.2566 46.1628C14.2116 46.0144 14.1974 45.8583 14.2149 45.7042L14.2358 45.6119C14.2417 45.597 14.2417 45.5821 14.2507 45.5673C14.2592 45.5362 14.2712 45.5063 14.2864 45.4779C14.3822 45.3143 14.511 45.1723 14.6646 45.0611C14.7287 45.0084 14.7953 44.9587 14.8641 44.9122C15.001 44.8109 15.144 44.7246 15.2809 44.6323C15.4923 44.5013 15.7067 44.3822 15.93 44.266C16.737 43.8492 17.5975 43.5574 18.4819 43.3311C18.5325 43.3162 18.5801 43.3072 18.6397 43.2953C18.7379 43.2715 18.8481 43.2656 18.9523 43.2507C19.0595 43.2447 19.1667 43.2358 19.2679 43.2358L19.5836 43.2298C19.6312 43.2298 19.6908 43.2298 19.7384 43.2239C20.6331 43.1839 21.5267 43.1214 22.4183 43.0363C22.9542 42.9857 23.4902 42.9291 24.0262 42.8725C25.191 42.7417 26.3255 42.4156 27.3819 41.9078C27.4891 41.8482 27.6023 41.8006 27.7095 41.744L27.8971 41.6428C28.3258 41.4135 28.7546 41.1931 29.1685 40.949C29.2102 40.8894 29.2578 40.8716 29.3323 40.8507L29.362 40.8418V40.8775C29.3542 40.917 29.3332 40.9527 29.3025 40.9788L29.24 41.0204C28.8231 41.5505 28.2544 41.9137 27.7601 42.3604C27.7069 42.4009 27.6571 42.4457 27.6112 42.4944C27.4534 42.6224 27.2956 42.7594 27.1169 42.9023C27.7393 42.9023 28.3377 42.8308 28.8975 42.6641C29.9321 42.3673 30.841 41.7398 31.4851 40.8775C31.7918 40.4696 32.0717 39.9932 32.3129 39.4423ZM22.591 39.4899C22.268 39.6471 21.924 39.7564 21.5696 39.8145C19.9022 40.2284 18.2049 40.4696 16.5166 40.7852C15.3214 41.004 14.1943 41.5007 13.2264 42.2353C13.1698 42.28 13.1073 42.3306 13.0418 42.3633C12.9643 42.414 12.9256 42.4021 12.9137 42.3336C12.9048 42.3217 12.9048 42.3008 12.9048 42.28C12.875 41.8512 13.006 41.6428 13.3991 41.4641C13.935 41.2199 14.471 40.9639 15.007 40.7137C15.7067 40.3922 16.4571 40.2909 17.2164 40.2135C18.3955 40.0855 19.5746 39.9336 20.7597 39.7966L22.32 39.5406L22.591 39.4899ZM29.6955 43.1971H29.6181C29.505 43.2268 29.5109 43.346 29.5109 43.4353C29.5199 43.733 29.5318 44.0368 29.5705 44.3375C29.6003 44.665 29.7104 44.9896 29.904 45.2516C30.2682 45.7612 30.8099 46.116 31.4226 46.2461C31.8841 46.3533 31.8841 46.3593 31.9287 46.8417C31.9496 47.0471 31.9764 47.2288 32.167 47.3479C32.5064 47.5474 32.8429 47.7558 33.2508 47.7826C33.5009 47.8034 33.757 47.8183 33.9714 47.9851C34.2537 48.1734 34.5849 48.2748 34.9242 48.2769C35.1743 48.2977 35.4304 48.3067 35.6805 48.3483C35.88 48.3841 36.017 48.3186 36.157 48.1995C36.8686 47.6129 37.5683 47.0173 38.2324 46.3623C38.1549 46.2729 38.0388 46.2432 37.881 46.3265C37.4609 46.5323 37.0487 46.7538 36.6453 46.9906C36.5436 47.0598 36.4293 47.1084 36.3088 47.1335C35.6003 47.2714 34.8808 47.3451 34.159 47.3538C33.7638 47.3346 33.3828 47.2001 33.0632 46.9667C32.8637 46.8387 32.6642 46.6541 32.6285 46.3682C32.7357 46.3325 32.8369 46.3742 32.9352 46.3891C33.3133 46.4397 33.6855 46.5767 34.0726 46.5528C35.0016 46.4933 35.8741 46.2164 36.7465 45.9186L37.5892 45.6119C37.7172 45.5672 37.753 45.5226 37.6398 45.4035C37.5028 45.2546 37.354 45.2844 37.2021 45.3022C35.3516 45.5687 33.4695 45.5234 31.634 45.1683C31.098 45.067 30.5263 45.0313 30.3179 44.3643C30.2583 44.1856 30.2047 44.007 30.169 43.8224C30.1224 43.6317 30.0258 43.457 29.8891 43.3162C29.8669 43.2839 29.8383 43.2566 29.8049 43.2361C29.7716 43.2156 29.7343 43.2023 29.6955 43.1971ZM27.9894 43.3906C27.8464 43.3906 27.7512 43.5395 27.6827 43.6675C27.504 43.9742 27.2747 44.2511 27.0663 44.537C26.7447 44.9747 26.2921 45.067 25.8217 44.9955C24.1261 44.7351 22.4189 44.5562 20.7061 44.4596C20.6168 44.4536 20.5334 44.4298 20.462 44.4894C19.9171 44.8884 19.3692 45.2754 19.0238 45.8829C19.0446 45.8888 19.0684 45.9037 19.0833 45.9037C19.1399 45.8978 19.1875 45.8829 19.2471 45.8739C20.1315 45.6536 21.0545 45.5821 21.9925 45.6596C23.1775 45.7608 24.3507 45.996 25.5299 46.1598C25.6877 46.1836 25.8455 46.1896 25.9944 46.267C26.3517 46.4546 26.5303 46.7821 26.6673 47.1305C26.8757 47.6665 26.9353 48.2411 26.974 48.8128C27.0038 49.2595 26.9085 49.6406 26.5452 49.9443C26.2646 50.1507 26.0562 50.4404 25.9497 50.7721C26.4083 50.7721 26.8013 50.8495 27.102 51.2366C27.2896 51.4748 27.5308 51.6803 27.766 51.8857C27.8889 52.002 28.0362 52.0892 28.1973 52.1408C28.3583 52.1925 28.5289 52.2072 28.6964 52.1841C28.8639 52.1609 29.0241 52.1004 29.1651 52.007C29.3061 51.9137 29.4243 51.7898 29.5109 51.6446C29.6836 51.3647 29.8474 51.0788 30.032 50.8078C30.2911 50.4297 30.5382 50.0218 30.9997 49.855C31.2767 49.7657 31.1546 49.6287 31.0593 49.5126C30.8777 49.2744 30.5322 49.2714 30.2256 49.453C29.7491 49.7419 29.4335 50.1647 29.0911 50.5726C28.9898 50.6917 28.8886 50.8108 28.7546 50.915C28.5819 51.0341 28.433 51.0431 28.2782 50.8853C28.1115 50.7155 27.9387 50.5369 27.7541 50.385C27.5963 50.257 27.5665 50.1409 27.6589 49.9563C27.8596 49.5793 27.9445 49.1515 27.903 48.7265C27.8137 47.7975 27.6648 46.8804 27.0097 46.1449C26.9383 46.0675 26.9383 46.0258 27.0395 45.9543C27.385 45.7192 27.6734 45.4097 27.8837 45.0485C28.0939 44.6873 28.2206 44.2836 28.2544 43.867C28.2752 43.6437 28.2335 43.4651 28.0549 43.4025C28.0338 43.3953 28.0117 43.3913 27.9894 43.3906ZM41.2695 43.4948C41.8829 43.4948 42.4248 43.733 42.9578 44.0368C42.9429 44.0368 42.937 44.0368 42.9221 44.0457L43.0114 44.0963C42.2075 44.2154 41.4035 44.275 40.5996 44.1856C40.3494 44.1559 40.0993 44.1082 39.8403 44.1172C39.3341 44.132 38.9261 43.867 38.4974 43.6378H38.548C38.5122 43.6169 38.4765 43.602 38.4408 43.5782C38.5122 43.5871 38.5897 43.5871 38.6611 43.5931C38.7475 43.602 38.8249 43.6229 38.9113 43.6378C39.6199 43.7866 40.3048 43.5782 41.0075 43.5097C41.0955 43.4998 41.181 43.4949 41.2695 43.4948ZM15.397 45.6208C15.3806 45.6218 15.3644 45.6259 15.3494 45.6328C15.2005 45.6893 15.0576 45.7757 15.0159 45.9752C14.873 46.6392 15.1797 47.2764 15.8437 47.6188C16.1415 47.7766 16.3737 47.997 16.5166 48.3037C16.5643 48.4138 16.5732 48.6193 16.731 48.5836C16.8859 48.5478 16.7608 48.3543 16.7935 48.2769C16.8174 47.8749 16.737 47.5325 16.4154 47.324C16.1772 47.1752 16.0879 46.9667 15.9985 46.7255C15.8854 46.4099 15.8586 46.0615 15.5995 45.8114C15.54 45.7489 15.4953 45.6208 15.397 45.6208ZM20.8848 46.6749C20.5572 46.7553 20.1821 46.8327 19.8337 46.9906C19.5895 47.1037 19.5746 47.2407 19.789 47.4044C19.9171 47.5057 20.0481 47.5533 20.2059 47.4938C20.453 47.396 20.723 47.3713 20.9837 47.4225C21.2445 47.4737 21.485 47.5987 21.6768 47.7826C21.8876 47.9647 22.1444 48.0852 22.4191 48.1309C22.6938 48.1766 22.9758 48.1457 23.2341 48.0416C23.5498 47.9345 23.8207 47.7558 24.1066 47.595C24.2102 47.5344 24.3244 47.494 24.443 47.4759C24.8718 47.4342 25.3006 47.3776 25.7234 47.3181C25.8366 47.3032 26.0152 47.3479 26.045 47.2109C26.0748 47.068 25.908 46.9816 25.8068 46.8893C25.7591 46.8387 25.6728 46.8298 25.5983 46.8119C25.1776 46.6801 24.7289 46.6646 24.3001 46.7672C23.4289 46.9564 22.5272 46.9564 21.656 46.7672C21.4178 46.7077 21.1706 46.7077 20.8818 46.6779L20.8848 46.6749ZM41.4392 49.322C41.4571 49.322 41.469 49.331 41.4839 49.3429C41.4983 49.3544 41.5104 49.3686 41.5196 49.3846L41.5435 49.3994C41.6715 49.5007 41.5226 49.727 41.4839 49.8997C41.3946 50.3999 41.3142 50.8942 41.2278 51.3944C41.207 51.5374 41.1921 51.6862 41.0849 51.8857L41.0641 51.7577L41.0283 51.8292C40.9071 51.1342 40.8324 50.4319 40.805 49.727C40.7991 49.5692 40.9062 49.5334 41.0075 49.4977C41.1504 49.4501 41.3261 49.3012 41.4392 49.319V49.322ZM31.8513 52.0078C31.8281 52.0144 31.806 52.0244 31.7858 52.0376C31.2201 52.3503 30.5829 52.3651 29.9605 52.4455C29.6985 52.4813 29.365 52.4009 29.1745 52.5944C28.704 53.0589 28.302 52.8624 27.8881 52.5349C27.8673 52.5229 27.8464 52.5021 27.8167 52.4932C27.2033 52.1656 26.5869 52.0465 25.9586 52.4783C25.8478 52.566 25.7197 52.6293 25.5827 52.6642C25.4457 52.6991 25.3029 52.7047 25.1636 52.6808C24.9433 52.6212 24.7735 52.6361 24.5979 52.7939C24.5145 52.8743 24.4013 52.9368 24.3001 53.0023C24.0202 53.187 24.0202 53.2167 24.2793 53.4192C24.3388 53.4728 24.4073 53.4937 24.4788 53.5175C25.0743 53.6961 25.6311 53.5651 26.1522 53.2793C26.6941 52.9875 27.2033 53.0023 27.6946 53.3746C28.1472 53.708 28.6236 53.717 29.1238 53.5085C29.7453 53.2226 30.3977 53.0098 31.0682 52.8743C31.1695 52.8594 31.2707 52.8237 31.363 52.9041C31.6489 53.1661 31.9198 52.9815 32.1938 52.8743C32.301 52.8296 32.3129 52.7433 32.3069 52.6361C32.2861 52.4098 32.1134 52.2788 32.0151 52.1001C31.9704 52.0257 31.9198 51.9959 31.8543 52.0108L31.8513 52.0078ZM17.8059 52.2163C17.8327 52.2163 17.8655 52.2341 17.9012 52.2669C18.0173 52.3741 18.1245 52.4872 18.2377 52.5944L18.2824 52.6361C18.3389 52.6867 18.3449 52.7522 18.3181 52.8148L17.6511 54.1547L17.5796 54.1309C17.5796 54.116 17.5886 54.11 17.5886 54.0951C17.7315 53.5085 17.6749 52.9041 17.7523 52.3086C17.7583 52.249 17.7791 52.2192 17.8059 52.2192V52.2163ZM29.4186 53.9671C28.71 53.9879 27.9894 54.1041 27.3254 54.3304C26.7745 54.518 26.1581 54.646 25.8723 55.2832C25.7085 55.6524 25.7294 56.0455 25.6162 56.4147C25.6668 56.7125 25.6668 57.0013 25.8366 57.2514C25.8872 57.3229 25.908 57.439 26.0301 57.4301C26.1581 57.4241 26.2028 57.3169 26.2385 57.2306C26.3666 56.9626 26.3963 56.6529 26.4767 56.3671C26.6167 55.9025 26.8311 55.5333 27.3164 55.3249C27.8226 55.1105 28.3377 54.908 28.8529 54.7115C28.9469 54.6721 29.05 54.6597 29.1506 54.6758C29.7908 54.7651 30.4548 54.7353 31.0206 55.1105C31.0472 55.1288 31.0774 55.1415 31.1092 55.1476C31.1409 55.1538 31.1736 55.1533 31.2052 55.1462C31.4196 55.0956 31.4434 55.0271 31.3124 54.8544C31.0982 54.5578 30.8118 54.3206 30.4805 54.1654C30.1491 54.0101 29.7837 53.9419 29.4186 53.9671ZM22.8143 56.1735L22.856 56.2241C23.1359 56.5725 23.4128 56.8732 23.6004 57.2246C24.047 58.0881 24.714 58.7164 25.5715 59.1749C25.9735 59.3893 26.3338 59.6871 26.8043 59.7407L26.8132 59.7437H26.8668C26.9174 59.7437 26.9859 59.7318 26.974 59.8121C26.9651 59.8538 26.9234 59.8538 26.8817 59.8479H26.8609C26.846 59.8479 26.8311 59.8479 26.8162 59.8389C26.3189 59.8538 25.8336 59.9372 25.3482 60.0384C25.0951 60.092 24.842 60.1516 24.5889 60.2111C24.3486 60.2696 24.1074 60.3242 23.8654 60.3749H23.8564C23.7582 60.3987 23.7135 60.4464 23.7284 60.5476C23.7433 60.6667 23.788 60.7322 23.9279 60.762C24.1973 60.8075 24.4708 60.8245 24.7438 60.8126C25.0951 60.8037 25.4435 60.768 25.7949 60.7114C26.5624 60.5933 27.3433 60.5913 28.1115 60.7054C26.8311 60.9139 25.774 61.6344 24.6157 62.1198C24.0143 62.3699 23.5497 62.8493 22.978 63.156C22.9364 63.2066 22.9125 63.287 22.8709 63.3347C22.7785 63.4538 22.7637 63.686 22.6118 63.6622H22.5999C22.585 63.6622 22.5701 63.6711 22.5552 63.6622C22.2752 63.6379 22.0044 63.5504 21.7632 63.4061C21.6739 63.3496 21.6977 63.2424 21.6977 63.1411V61.7923C21.6977 61.697 21.7334 61.5928 21.6411 61.5243C21.3255 61.3278 21.4029 60.9823 21.3255 60.6965C21.2957 60.5834 21.3761 60.5268 21.4416 60.4583L22.2694 59.5352C22.457 59.3327 22.5344 59.1094 22.3974 58.8682C22.1413 58.3829 22.183 57.9154 22.3915 57.4241C22.5552 57.037 22.6624 56.6291 22.8143 56.1735ZM36.4666 56.7005C36.4815 56.7095 36.4964 56.7154 36.5024 56.7244L36.5232 56.7005C36.6393 56.766 36.6423 56.8494 36.6721 56.9239C36.9758 57.6593 37.2676 58.4037 37.5654 59.1392C37.6398 59.303 37.6547 59.4459 37.5475 59.5858C37.3862 59.7884 37.2803 60.0293 37.2401 60.2851C37.1999 60.5408 37.2268 60.8026 37.3182 61.0449C37.5177 61.6553 37.3748 62.0781 36.7733 62.3788C36.6665 62.4471 36.5428 62.4842 36.416 62.486C36.3204 62.4914 36.2264 62.4593 36.154 62.3967C35.0374 61.6255 33.7094 61.3694 32.4558 60.9258C32.2771 60.8662 32.1074 60.7977 31.9198 60.756C31.7054 60.7054 31.7203 60.5625 31.7501 60.4106C31.7709 60.3035 31.8275 60.2915 31.8841 60.2975C31.9436 60.2826 32.0211 60.3273 32.0717 60.3392C33.5009 60.6965 34.9451 60.9823 36.3237 61.5183C36.3743 61.5421 36.413 61.5481 36.4517 61.557C36.553 61.5421 36.5828 61.4469 36.5679 61.3129C36.5381 60.9913 36.5083 60.6757 36.1391 60.5089C35.2212 60.1039 34.2377 59.8678 33.2359 59.8121C33.087 59.7973 32.9441 59.7913 32.7893 59.7824C33.5009 59.3536 34.2781 59.1273 34.9153 58.5735C34.993 58.5107 35.0676 58.4442 35.1386 58.374L36.3237 56.9388L36.4666 56.7005ZM30.8628 60.0742H30.9223C31.0116 60.0682 31.0831 60.0891 31.092 60.232C31.092 60.363 31.1218 60.4762 30.9134 60.5059C30.6435 60.5481 30.3707 60.569 30.0975 60.5685C29.8176 60.5685 29.5467 60.5387 29.2697 60.4791C29.1209 60.4404 29.0613 60.3392 29.0762 60.2201C29.0822 60.1397 29.1357 60.1397 29.1953 60.1397C29.2342 60.1352 29.2736 60.1383 29.3114 60.1486H29.8474C30.1865 60.1755 30.5278 60.1514 30.8598 60.0772L30.8628 60.0742ZM30.97 61.2533C30.9878 61.2533 31.0057 61.2593 31.0295 61.2682L33.5426 62.3104C33.1496 62.6379 32.7863 62.9267 32.429 63.2126C31.7709 63.7426 31.1188 64.2786 30.5055 64.8592C30.3566 65.0021 30.2375 65.0081 30.0677 64.9009C29.0156 64.289 27.9245 63.7469 26.8013 63.2781C26.31 63.0697 25.7889 62.9863 25.2797 62.8076C25.3393 62.7004 25.4435 62.7004 25.5299 62.6707C26.6226 62.2627 27.7392 61.8965 28.8112 61.4201C29.0911 61.292 29.368 61.3992 29.639 61.4349C30.0469 61.4945 30.4429 61.4975 30.8121 61.298C30.859 61.2673 30.914 61.2517 30.97 61.2533ZM24.5353 63.3317C24.619 63.3367 24.7014 63.3548 24.7795 63.3853C25.3661 63.6146 25.911 63.9361 26.4738 64.2011C26.4894 64.2002 26.5051 64.2023 26.5199 64.2074C26.5347 64.2125 26.5484 64.2205 26.5601 64.2309C26.572 64.2369 26.575 64.2428 26.575 64.2637V64.2786C26.575 64.2875 26.5661 64.2875 26.5661 64.2935C26.5601 64.3024 26.5512 64.3024 26.5452 64.3024L26.5154 64.2935C26.5003 64.2852 26.4879 64.2728 26.4797 64.2577L23.913 63.6205C24.1334 63.4448 24.309 63.3228 24.5353 63.3317ZM48.8624 64.9247C48.4396 64.9128 48.0882 65.1093 47.7548 65.3714C47.6654 65.4369 47.6178 65.5143 47.4749 65.422C47.1622 65.2076 46.8615 65.2642 46.5965 65.5411C46.4464 65.6948 46.3404 65.8861 46.2898 66.0949C45.9176 67.5956 45.5394 69.0904 45.1821 70.5971C45.06 71.1032 45.325 71.3564 45.8461 71.2819C46.3166 71.2045 46.5548 70.9335 46.6322 70.3291C46.7096 69.7395 46.79 69.1618 46.9597 68.5544C47.4064 69.1112 47.8232 69.6323 48.249 70.1564C48.6629 70.6626 49.1126 71.1122 49.72 71.3831C50.1488 71.5767 50.521 71.4635 50.8574 71.1628C50.9443 71.0897 51.0066 70.9916 51.0359 70.8819C51.0652 70.7722 51.0601 70.6561 51.0212 70.5494C50.9989 70.442 50.9395 70.3459 50.8535 70.2779C50.7675 70.2099 50.6604 70.1742 50.5507 70.1772C50.3801 70.1628 50.22 70.089 50.0981 69.9688C49.6935 69.6197 49.3317 69.2239 49.0202 68.7896C48.7523 68.4323 48.7403 68.4323 49.0977 68.1882C49.848 67.673 50.1101 66.9465 50.0564 66.0741C50.0148 65.422 49.6634 65.0438 49.0441 64.9426C48.984 64.9325 48.9233 64.9266 48.8624 64.9247ZM16.9037 65.014C16.7846 65.014 16.6744 65.0736 16.6149 65.2374C16.5583 65.3862 16.4571 65.3654 16.3439 65.3505C15.9855 65.2906 15.6178 65.3189 15.2728 65.4331C14.9278 65.5472 14.6158 65.7437 14.3638 66.0056C13.2323 67.1073 12.6547 68.4264 12.7202 70.0343C12.7619 71.1003 13.3752 71.6124 14.4144 71.3772C16.466 70.9008 18.059 68.8909 18.1454 66.6666C18.1662 66.0949 17.6451 65.2671 17.133 65.0647C17.0602 65.0347 16.9824 65.0186 16.9037 65.017V65.014ZM11.1569 65.1867C10.4832 65.1963 9.83534 65.4478 9.33165 65.8954C8.3014 66.7946 7.7029 67.9589 7.40812 69.2839C7.29083 69.7731 7.37107 70.2887 7.63144 70.7191C7.83987 71.0705 8.1019 71.1985 8.5009 71.1211C9.40461 70.9483 10.2776 70.6423 11.0914 70.2129C11.3404 70.0837 11.5667 69.9147 11.7614 69.7127C11.9213 69.5509 12.0111 69.3327 12.0115 69.1053C12.0115 68.882 11.9132 68.8075 11.7048 68.7956C11.4964 68.7896 11.3177 68.8671 11.1331 68.9326C10.5167 69.1559 9.91824 69.4269 9.28103 69.5876C8.96838 69.668 8.86417 69.5966 8.79568 69.275C8.77577 69.1542 8.78084 69.0305 8.81057 68.9117C8.92968 68.4115 9.10238 67.9291 9.36738 67.4735C9.54234 67.1402 9.79201 66.8518 10.0969 66.6309C10.5138 66.3659 10.9396 66.2229 11.413 66.5118C11.5678 66.6011 11.7197 66.5594 11.8596 66.4731C12.0764 66.3359 12.2353 66.124 12.3063 65.8775C12.3539 65.7287 12.3122 65.6096 12.1753 65.5292C11.8667 65.3358 11.5167 65.2185 11.154 65.1867H11.1569ZM38.551 65.3952C38.2659 65.3853 37.9819 65.4347 37.7169 65.5403C37.4519 65.6459 37.2117 65.8053 37.0115 66.0086C36.547 66.488 36.4666 66.9733 36.7614 67.5748C36.9818 68.0244 37.2884 68.4085 37.5892 68.8105C37.8036 69.0904 38.0329 69.3673 38.2324 69.6621C38.3753 69.8705 38.3038 70.0343 38.0597 70.1117C37.9235 70.1574 37.7753 70.1521 37.6428 70.0968C37.2295 69.9471 36.8515 69.714 36.5321 69.412C36.4137 69.3166 36.3282 69.1864 36.288 69.0398C36.2522 68.8194 36.1302 68.7182 35.9158 68.6973C35.6746 68.6765 35.4513 68.6765 35.3083 68.9356C35.0701 69.3465 35.1386 69.7187 35.5674 70.1058C36.3892 70.8353 37.3688 71.1568 38.3455 71.2372C39.2388 71.2492 39.7896 70.4422 39.4978 69.6829C39.3698 69.3405 39.1465 69.0398 38.9321 68.748C38.5748 68.2745 38.2026 67.816 37.8691 67.3306C37.6011 66.9584 37.7262 66.6875 38.1609 66.5445C38.5629 66.4165 38.9053 66.5296 39.2328 66.7827C39.6199 67.0805 39.9475 66.9227 40.0338 66.4373C40.0844 66.1813 39.9445 66.0086 39.7658 65.8597C39.4218 65.5732 38.9924 65.4088 38.545 65.3922L38.551 65.3952ZM44.2233 65.5738C43.8154 65.5649 43.4074 65.5738 43.0025 65.6215C42.5142 65.681 42.0497 65.815 41.871 66.3599C41.865 66.3897 41.8293 66.4314 41.7995 66.4373C41.2427 66.5803 41.0492 67.0388 40.9003 67.5033C40.5847 68.5336 40.3048 69.5757 40.013 70.606C39.9415 70.8561 40.0427 71.0229 40.2512 71.1479C40.412 71.2492 40.5787 71.2432 40.7633 71.1926C41.7281 70.9544 42.6928 70.6983 43.7022 70.7698C43.8336 70.7735 43.9637 70.7438 44.0804 70.6834C44.2021 70.6116 44.3001 70.5056 44.362 70.3785C44.424 70.2514 44.4472 70.1089 44.4288 69.9688C44.3871 69.7008 44.1727 69.6204 43.9434 69.5817C43.7688 69.5553 43.5928 69.5394 43.4164 69.534C42.7978 69.5358 42.1805 69.5876 41.5703 69.6889C41.6596 69.01 41.7132 68.9683 42.3563 68.9683C42.8328 68.9683 43.3151 68.9385 43.7648 68.7539C44.0625 68.6259 44.259 68.4174 44.2888 68.081C44.3097 67.8547 44.2144 67.7177 43.9791 67.7118C43.7906 67.7029 43.6017 67.7049 43.4134 67.7177L42.0645 67.8368C42.136 67.682 42.1717 67.539 42.2492 67.4319C42.3802 67.2472 42.2283 66.9018 42.4993 66.8095C42.7226 66.7381 42.9876 66.7887 43.2288 66.7798C43.866 66.7678 44.5002 66.7589 45.1166 66.5594C45.3459 66.4998 45.5478 66.3631 45.6883 66.1723C45.8967 65.8507 45.8163 65.6364 45.4441 65.6215C45.0392 65.6036 44.6312 65.5828 44.2233 65.5738ZM24.3805 65.5976C24.1691 65.5887 23.9934 65.7227 23.8296 65.8746C23.4092 66.2759 23.019 66.7078 22.6624 67.1669L21.5696 68.5246C21.5101 68.5961 21.4505 68.7331 21.3314 68.6735C21.2421 68.6318 21.2778 68.5098 21.2897 68.4174C21.3195 68.0899 21.3612 67.7683 21.3969 67.4378C21.4416 67.009 21.4982 66.5803 21.4267 66.1515C21.3344 65.6364 20.9622 65.4964 20.5483 65.815C20.4481 65.8979 20.3545 65.9885 20.2684 66.086C19.94 66.4724 19.6433 66.8846 19.3811 67.3187C18.7111 68.3549 18.0948 69.4328 17.2878 70.3767C17.139 70.5554 16.9811 70.7281 16.8442 70.9186C16.7012 71.133 16.6447 71.3772 16.7787 71.6035C16.9007 71.806 17.1062 71.8774 17.3385 71.8625C17.5796 71.8506 17.7107 71.672 17.8387 71.4993L19.7027 68.9623C19.7384 68.9177 19.7533 68.8313 19.8605 68.8611C19.8442 68.9698 19.8323 69.079 19.8248 69.1886C19.795 69.5966 19.7116 70.0045 19.795 70.4184C19.8962 70.8948 20.2714 71.0854 20.7061 70.871C20.929 70.7496 21.1335 70.5972 21.3136 70.4184C21.6619 70.0849 21.9925 69.7246 22.2962 69.3405C22.6356 68.9117 22.978 68.477 23.3354 68.0095C23.4426 68.3668 23.4009 68.6884 23.386 69.01C23.3503 69.5698 23.2431 70.1266 23.3503 70.6923C23.4217 71.0407 23.6212 71.2492 23.9071 71.27C24.1985 71.2949 24.4899 71.2215 24.7348 71.0616C25.107 70.8263 25.1428 70.3559 24.7944 70.0402C24.6944 69.9535 24.628 69.8344 24.6068 69.7038C24.5294 69.3167 24.5949 68.9385 24.6574 68.5604C24.7735 67.8309 24.9998 67.1162 24.9641 66.3659C24.9522 66.0741 24.9046 65.8001 24.6068 65.6602C24.5363 65.6248 24.4593 65.6015 24.3805 65.5976ZM48.3205 66.1634C48.6689 66.1336 48.8416 66.351 48.7374 66.6875C48.6941 66.8308 48.6233 66.9643 48.5289 67.0805C48.1478 67.5599 47.6625 67.8845 47.055 68.1316C47.104 67.6964 47.2143 67.2704 47.3826 66.8661C47.5672 66.4671 47.8679 66.2051 48.3205 66.1634ZM28.5164 66.2229C28.6717 66.2162 28.8259 66.2511 28.963 66.3242C29.1893 66.4522 29.2549 66.7589 29.097 67.018C28.9507 67.2346 28.7636 67.4207 28.5462 67.5658C28.1156 67.8939 27.628 68.1392 27.108 68.2894C27.3164 67.6462 27.4891 67.0537 27.8375 66.5445C27.9186 66.4426 28.0219 66.3606 28.1396 66.3048C28.2573 66.2491 28.3862 66.2211 28.5164 66.2229ZM33.2806 66.4939C33.4968 66.482 33.7131 66.5165 33.9148 66.5951C34.2513 66.7321 34.3615 66.8929 34.3585 67.3991C34.2603 68.342 33.808 69.2124 33.093 69.8348C32.823 70.0694 32.4848 70.2113 32.1283 70.2397C31.6905 70.2755 31.3481 70.0015 31.3928 69.5609C31.4762 68.608 31.7352 67.7028 32.3754 66.9525C32.4878 66.8192 32.6258 66.7099 32.7813 66.6311C32.9369 66.5523 33.1066 66.5056 33.2806 66.4939ZM15.7663 66.5028C15.9879 66.4898 16.2097 66.5264 16.4154 66.61C16.7429 66.7381 16.8591 66.9018 16.8442 67.3902C16.7524 68.3329 16.3027 69.2047 15.5876 69.8259C15.3162 70.0621 14.978 70.2078 14.6199 70.2427C14.1732 70.2755 13.8278 69.9986 13.8695 69.5489C13.9589 68.611 14.2149 67.7237 14.8373 66.9882C14.9506 66.848 15.0916 66.7325 15.2514 66.649C15.4112 66.5656 15.5864 66.5158 15.7663 66.5028Z" fill="white"/>
</svg>
