<svg width="73" height="72" viewBox="0 0 73 72" fill="none" xmlns="http://www.w3.org/2000/svg">
<path d="M13.059 12.3569C13.059 12.3569 28.1049 4.83845 35.6264 1.07475C36.9953 0.399911 38.5111 0.0775142 40.0362 0.136804C42.317 0.276752 45.0297 2.48316 45.0297 2.48316L72.2986 29.7551V58.903H59.6051V71.5965H29.9838L3.18527 44.798C1.73815 43.3092 0.835938 41.21 0.835938 39.1554C0.835938 38.2056 1.37191 36.7197 1.77686 35.8652L13.059 12.3569ZM15.0808 14.3787V49.4758C15.0868 51.0927 15.1434 52.5249 16.5637 53.9661L31.2195 68.6189H56.6274V55.9253L15.0808 14.3787ZM50.9759 12.3599C48.2991 9.69196 45.5894 7.05975 42.8173 4.49007C41.918 3.69505 41.129 3.09655 39.6312 3.11442C38.5295 3.1561 37.0407 3.69505 37.0407 3.69505L19.717 12.3569L50.9759 12.3599Z" fill="white"/>
</svg>
