<svg width="55" height="73" viewBox="0 0 55 73" fill="none" xmlns="http://www.w3.org/2000/svg">
<path d="M4.58663 0.838897C3.65761 0.800188 2.60652 1.05328 2.12116 2.19967C1.6507 3.31329 1.2785 5.73707 1.10878 8.97671L4.7504 10.7365C4.69084 8.54198 4.77124 6.47849 4.9767 4.58473C4.89928 5.47504 4.80995 7.44324 4.99456 10.6561C5.05114 11.6744 5.14046 12.8149 5.25659 14.0803C5.26255 14.1518 5.26255 14.2203 5.27743 14.2858C5.52007 16.6876 5.82687 19.0824 6.19752 21.4678C6.36724 22.5636 6.5727 23.707 6.77815 24.9218L6.74837 24.9516C6.79006 24.9814 6.79304 25.0052 6.79006 25.0201L6.87939 25.4965C6.96872 25.9789 7.05805 26.4732 7.15631 26.9674L7.47789 28.6141L7.64464 29.4746C8.06297 31.5348 8.51663 33.5877 9.0054 35.6323C9.27339 36.7697 9.55924 37.9548 9.85998 39.1637C10.1518 40.3131 10.4525 41.4952 10.7801 42.716C11.0659 43.7939 11.3726 44.9046 11.6823 46.042C11.6912 46.0956 11.718 46.1492 11.7269 46.2058C12.0594 47.3834 12.3969 48.5595 12.7393 49.7343L12.8852 50.2524C13.1175 51.0295 13.3557 51.8394 13.6058 52.6493C13.31 52.5266 13.0189 52.3925 12.7334 52.2474L12.1676 50.3C12.1081 50.0707 12.0426 49.8593 11.983 49.63L11.9771 49.6181L11.9652 49.6122C11.7061 48.7189 11.459 47.8048 11.1999 46.8847C11.1314 46.6256 11.0689 46.3696 10.9944 46.1016L10.0595 42.5939C9.76172 41.4595 9.48182 40.3161 9.19597 39.1578C8.91608 37.9965 8.64511 36.8352 8.37117 35.668C8.09425 34.474 7.83222 33.2859 7.58211 32.086C7.32901 30.9068 7.10271 29.7098 6.86748 28.5337C6.64434 27.3749 6.4349 26.2136 6.2392 25.0499C6.22729 25.0112 6.22134 24.9605 6.20943 24.9278L6.22134 24.9218C6.05161 23.7725 5.87593 22.6291 5.70323 21.4976C5.53848 20.3041 5.38562 19.109 5.24468 17.9125C4.96871 15.5292 4.79783 13.1349 4.73253 10.7365L1.09984 8.97969C1.08793 9.20003 1.07007 9.42633 1.06113 9.66454C1.0254 10.54 1.00158 11.466 0.99265 12.4337C0.983939 13.5821 0.989895 14.7306 1.01052 15.8788C1.03731 16.9805 1.08496 18.1269 1.14451 19.2971C1.20406 20.2976 1.26957 21.307 1.35294 22.3402L1.3589 22.4564L1.37676 22.4683C1.38569 22.5368 1.39761 22.6172 1.39463 22.6946C1.49289 23.7903 1.58519 24.895 1.71323 26.0146C1.94826 28.1326 2.24914 30.2428 2.61545 32.342C2.64522 32.5326 2.68691 32.7321 2.71966 32.9227C3.14496 35.2515 3.68859 37.5572 4.34842 39.8307C4.55685 40.5364 4.76528 41.2123 4.97372 41.8555C5.16131 42.3974 5.36081 42.9423 5.55137 43.4783C6.0129 44.7349 6.52505 45.9557 7.07591 47.1467L7.09378 47.1586C7.10938 47.2099 7.1293 47.2597 7.15333 47.3075C7.82329 48.7517 8.5677 50.1362 9.40143 51.4613C9.4312 51.5 9.46098 51.5595 9.49075 51.6012C8.13594 51.0563 5.74194 51.3094 5.75981 51.3124C8.23123 52.17 10.3959 53.2181 11.7627 54.8111C11.2178 55.4066 10.2054 55.8592 8.92501 56.2314C10.6937 56.422 11.6763 56.1153 12.0366 55.9575C11.1136 56.7317 10.5984 58.1371 10.1458 59.6497C11.188 57.9525 12.2182 56.824 13.2217 56.3922C13.454 57.1604 13.7041 57.9525 13.9482 58.7386C11.6634 63.2203 9.45563 67.741 7.32603 72.2986C7.59968 72.2619 7.85992 72.1577 8.0834 71.9956C8.30687 71.8335 8.48658 71.6183 8.6064 71.3696C8.99349 70.5299 11.0778 66.0843 14.2877 59.8313C15.5174 63.7112 16.908 67.8084 18.4147 72.0664C18.5647 71.8727 18.664 71.6446 18.7035 71.4028C18.743 71.161 18.7215 70.9131 18.641 70.6818C17.2644 66.7926 15.9659 62.8763 14.7462 58.9351C15.2048 58.0448 15.6872 57.1128 16.1874 56.16C16.5596 56.2791 16.9467 56.4398 17.3457 56.6215C17.9502 57.1753 18.3938 58.0835 18.7809 59.1227C18.891 57.9446 18.5338 56.7705 17.7864 55.8533C21.7615 56.6215 25.3704 56.1212 27.5738 53.4414C27.7747 53.1931 27.9654 52.9369 28.1455 52.6732C27.1778 53.5784 26.1148 53.8761 24.2359 53.4861C27.2016 52.6493 28.7708 51.6489 30.2953 49.8534C30.6526 49.4216 31.0219 48.9512 31.4 48.4241C28.5921 50.574 25.6622 50.8717 22.7649 49.8921L22.631 49.8385C25.3525 49.898 29.1906 48.4271 31.8377 46.2981C33.0586 45.3155 34.2079 44.1244 35.3215 42.6952C36.1553 41.6262 36.9592 40.4322 37.7632 39.0744C38.4599 37.9042 39.1567 36.6209 39.8475 35.2244C39.1345 35.4578 38.3934 35.595 37.6441 35.6323L37.2153 35.6561C37.0724 35.6621 36.9384 35.6561 36.7806 35.6621C39.4158 35.0725 41.247 33.4586 42.7179 31.3535C42.0033 31.7018 40.848 32.1336 39.5319 32.2378C39.3592 32.2557 39.1746 32.2557 38.99 32.2557C38.9512 32.2497 38.9066 32.2557 38.85 32.2497C39.7612 32.0175 40.5592 31.7197 41.2619 31.3296C41.6318 31.1183 41.9878 30.8836 42.3279 30.6269C42.4589 30.5168 42.5899 30.4185 42.7149 30.3113C43.0097 30.0552 43.2896 29.7753 43.5487 29.4567C43.6321 29.3555 43.7154 29.2691 43.7869 29.1649C43.8941 29.016 44.0043 28.8731 44.0966 28.7302C44.65 27.9384 45.1571 27.1152 45.6151 26.2647C45.6598 26.1724 45.7104 26.095 45.7521 26.0027C45.8712 25.7526 45.9903 25.5263 46.0797 25.3268C46.2047 25.032 46.3 24.7938 46.3536 24.6181C46.2526 24.681 46.1447 24.732 46.032 24.77C45.2191 25.1035 43.8673 25.3268 42.7983 25.3685C42.7864 25.3685 42.7745 25.3685 42.7596 25.3804H42.5601C44.704 24.7432 45.7372 24.0405 46.7943 22.9447C48.0322 21.6047 49.1801 20.1843 50.2304 18.6927C51.0165 17.5909 51.7341 16.4952 52.291 15.5007C52.6165 14.9285 52.9127 14.3402 53.1783 13.7379C53.3748 13.2704 53.5415 12.8297 53.6904 12.398C52.3029 12.4278 50.7545 12.4307 49.2836 12.398C50.7575 12.4278 52.3058 12.4188 53.7023 12.3831C55.1911 7.96134 53.8899 5.64774 53.8899 5.64774C53.8899 5.64774 52.3237 2.03887 49.7213 3.11379C48.4528 3.63487 46.2315 5.28745 43.5189 7.75887L45.0494 12.0764C46.6318 10.3755 48.3259 8.7819 50.1203 7.30627C49.355 7.96135 47.7173 9.46802 45.3114 12.2015C44.5492 13.065 43.7124 14.0595 42.7983 15.1701C42.7477 15.2297 42.6941 15.2833 42.6584 15.3488C40.9471 17.4749 39.2929 19.6463 37.6977 21.8608C36.9592 22.8732 36.2148 23.9571 35.4198 25.1005H35.3722C35.3781 25.16 35.3602 25.1839 35.3424 25.1958L35.0416 25.6484C34.732 26.1099 34.4074 26.5714 34.0948 27.0478L33.0466 28.6379C32.865 28.9059 32.6774 29.1768 32.4928 29.4627C31.9449 30.3024 31.4 31.1689 30.8313 32.0621C29.3814 34.3626 27.9639 36.6834 26.5793 39.0238C25.2159 41.3306 23.8848 43.6564 22.5863 46.0003C22.5506 46.051 22.5267 46.1194 22.4851 46.1701C21.8178 47.3816 21.1547 48.5955 20.496 49.8117L20.2072 50.3506C19.701 51.2975 19.1769 52.2623 18.6588 53.2657C18.6588 53.2776 18.6439 53.2895 18.641 53.3044C18.5635 53.4473 18.4921 53.5813 18.4266 53.7243C18.0782 54.3853 17.7774 54.9868 17.0866 56.3148C16.8759 56.1093 16.6432 55.9276 16.3929 55.7729L17.4201 53.8374C17.5601 53.5724 17.706 53.3104 17.8459 53.0335L17.965 52.8042L19.5908 49.8236L19.9779 49.1298V49.1119L19.9749 49.0941C20.4781 48.171 21.0022 47.248 21.5233 46.2951C21.6751 46.0361 21.827 45.78 21.9789 45.5061C22.6458 44.3299 23.3307 43.1418 24.0155 41.9419C26.0565 38.417 28.1761 34.9383 30.3727 31.5083C31.1082 30.3589 31.8705 29.2155 32.6179 28.0781C32.8918 27.6672 33.1598 27.2682 33.4486 26.8573C33.921 26.1587 34.3974 25.4629 34.8779 24.77C34.8987 24.7342 34.9344 24.6985 34.9553 24.6598H34.9732C35.7473 23.5998 36.5126 22.5368 37.2749 21.4886C38.1026 20.378 38.9244 19.3001 39.7463 18.243C41.4186 16.107 43.184 14.0454 45.0375 12.0645L43.504 7.75887C43.3254 7.92859 43.1288 8.10427 42.9323 8.28888C42.1683 9.00017 41.4158 9.72383 40.6753 10.4596C39.7969 11.335 38.8976 12.264 37.9597 13.2436C36.2915 15.0243 34.6711 16.8493 33.1002 18.7165L33.0109 18.8147L33.0169 18.8386C32.9662 18.8981 32.9186 18.9696 32.8561 19.0291C32.064 19.9909 31.2541 20.9616 30.471 21.9621C28.9771 23.8525 27.5422 25.7889 26.1684 27.7684C26.0403 27.9471 25.9153 28.1436 25.7902 28.3223C24.282 30.5356 22.8877 32.8244 21.6126 35.1797C21.2255 35.9152 20.8503 36.6238 20.5109 37.3087C20.225 37.8893 19.9541 38.4848 19.6831 39.0685C19.0578 40.4471 18.498 41.8376 17.9978 43.2341L18.0037 43.252C17.9729 43.3072 17.947 43.365 17.9263 43.4247C17.6047 44.3269 17.3219 45.2351 17.0628 46.1462C16.646 46.6643 16.1636 47.114 15.6246 47.5159C15.499 47.3604 15.3689 47.2085 15.2346 47.0604C16.5511 45.0854 17.391 42.8317 17.6881 40.4769C17.8446 39.0031 17.8286 37.5162 17.6405 36.0462C17.5035 34.8551 17.2653 33.6045 16.9318 32.2527C16.643 31.0825 16.2857 29.8408 15.8509 28.5366C15.58 29.0875 15.1959 29.6294 14.7224 30.1594L14.4663 30.4393C14.38 30.5346 14.2877 30.618 14.1924 30.7192C15.4847 28.7123 15.6395 26.5595 15.2584 24.3233C14.9294 25.2484 14.435 26.106 13.7994 26.8543C13.7011 26.9674 13.585 27.0836 13.4718 27.1997C13.442 27.2205 13.4152 27.2533 13.3736 27.2831C13.8023 26.5684 14.118 25.8925 14.3204 25.2047C14.3686 25.0622 14.4084 24.9171 14.4395 24.77C14.4862 24.5482 14.5239 24.3247 14.5527 24.1L14.6063 23.6653C14.6338 23.3144 14.6318 22.9618 14.6003 22.6112C14.5914 22.4921 14.5884 22.3849 14.5706 22.2747C14.5408 22.111 14.5229 21.9621 14.4902 21.8162C14.3473 20.972 14.1554 20.1369 13.9155 19.315C13.8857 19.2316 13.8708 19.1482 13.8381 19.0649C13.7577 18.8296 13.6951 18.6212 13.6237 18.4425C13.5457 18.2304 13.4562 18.0227 13.3557 17.8202C13.3327 17.9232 13.2977 18.0231 13.2515 18.118C12.9478 18.8326 12.2391 19.8152 11.5929 20.5001C11.584 20.509 11.5721 20.515 11.5721 20.5298L11.453 20.6579C12.3999 18.9309 12.6143 17.8411 12.5994 16.4952C12.5468 14.8835 12.3877 13.277 12.123 11.6863C11.9508 10.5792 11.7202 9.48188 11.4322 8.39905C11.2814 7.83661 11.1025 7.28208 10.8962 6.73755C10.7386 6.34382 10.5678 5.95552 10.384 5.5733C10.386 5.56933 10.388 5.56536 10.39 5.56139C8.57365 1.85128 6.32258 1.20514 6.32258 1.20514C6.32258 1.20514 5.51564 0.877606 4.58663 0.838897ZM14.651 47.8345L14.7462 48.0787V48.0847C14.5676 48.1829 14.4008 48.2842 14.2162 48.3735C14.1805 48.3854 14.1448 48.4092 14.1001 48.4271C14.2958 48.2392 14.4807 48.0404 14.6539 47.8316L14.651 47.8345ZM12.8555 52.6761C13.2425 53.0811 13.5999 53.3967 13.9095 53.629L14.118 54.3049C13.8705 54.341 13.6258 54.3937 13.3855 54.4627L13.2961 54.1709C13.2247 53.9208 13.1532 53.6647 13.0698 53.4057L13.0073 53.1883L12.8555 52.6761ZM13.6296 55.2816C13.899 55.2759 14.1684 55.2858 14.4366 55.3113L14.645 55.9932C14.888 55.9501 15.1362 55.9461 15.3805 55.9813L14.4098 57.8483C14.1467 56.9936 13.8867 56.138 13.6296 55.2816Z" fill="white"/>
</svg>
