<svg width="72" height="71" viewBox="0 0 72 71" fill="none" xmlns="http://www.w3.org/2000/svg">
<path d="M5.94924 0.988525C4.3718 0.988525 2.85895 1.61516 1.74353 2.73059C0.628104 3.84601 0.00146484 5.35886 0.00146484 6.93631C0.00146484 8.51375 0.628104 10.0266 1.74353 11.142C2.85895 12.2574 4.3718 12.8841 5.94924 12.8841C7.52669 12.8841 9.03953 12.2574 10.155 11.142C11.2704 10.0266 11.897 8.51375 11.897 6.93631C11.897 5.35886 11.2704 3.84601 10.155 2.73059C9.03953 1.61516 7.52669 0.988525 5.94924 0.988525ZM33.2837 13.9114C28.4243 13.9137 23.7647 15.8456 20.3292 19.2823C16.8936 22.7189 14.9633 27.3792 14.9625 32.2386V52.0903C14.9625 62.2142 23.1688 70.4145 33.2867 70.4145H53.1384C63.2623 70.4145 71.4627 62.2112 71.4627 52.0903V32.2386C71.4631 29.8319 70.9894 27.4488 70.0687 25.2253C69.148 23.0017 67.7983 20.9813 66.0967 19.2795C64.3951 17.5776 62.3749 16.2276 60.1515 15.3065C57.9281 14.3854 55.5451 13.9114 53.1384 13.9114H33.2837ZM28.8858 22.2487C30.8573 22.2487 32.7481 23.0319 34.1421 24.4259C35.5362 25.82 36.3194 27.7108 36.3194 29.6823C36.3194 31.6538 35.5362 33.5446 34.1421 34.9386C32.7481 36.3327 30.8573 37.1159 28.8858 37.1159C26.9143 37.1159 25.0235 36.3327 23.6294 34.9386C22.2354 33.5446 21.4522 31.6538 21.4522 29.6823C21.4522 27.7108 22.2354 25.82 23.6294 24.4259C25.0235 23.0319 26.9143 22.2487 28.8858 22.2487ZM52.6114 40.5908C55.7671 40.5916 58.7932 41.8459 61.0241 44.0779C63.2549 46.3098 64.5077 49.3366 64.507 52.4923C64.5062 55.648 63.2518 58.6741 61.0199 60.9049C58.7879 63.1358 55.7611 64.3886 52.6054 64.3878C49.4498 64.3871 46.4236 63.1327 44.1928 60.9007C43.0882 59.7956 42.2121 58.4837 41.6145 57.0399C41.0169 55.5962 40.7095 54.0489 40.7099 52.4863C40.7103 50.9238 41.0184 49.3766 41.6167 47.9332C42.2151 46.4897 43.0918 45.1783 44.197 44.0737C46.429 41.8428 49.4557 40.59 52.6114 40.5908Z" fill="white"/>
</svg>
