<svg width="73" height="55" viewBox="0 0 73 55" fill="none" xmlns="http://www.w3.org/2000/svg">
<path d="M48.6388 31.4256C53.3345 31.4256 60.1324 30.4549 60.1324 24.8689C60.1455 24.4378 60.1055 24.0068 60.0133 23.5855L57.2143 11.4368C56.5712 8.76295 56.0054 7.55106 51.3127 5.2047C47.6711 3.3437 39.7357 0.267822 37.3894 0.267822C35.2068 0.267822 34.5696 3.08464 31.9642 3.08464C29.457 3.08464 27.596 0.982449 25.2497 0.982449C22.9956 0.982449 21.5276 2.51592 20.3962 5.67517C20.3962 5.67517 17.2399 14.5782 16.832 15.8705C16.7671 16.108 16.739 16.354 16.7486 16.6C16.7486 20.06 30.3771 31.4107 48.6388 31.4107M60.85 27.1378C61.4991 30.2107 61.4991 30.5323 61.4991 30.9402C61.4991 36.1957 55.5915 39.1138 47.8229 39.1138C30.2699 39.1257 14.8906 28.838 14.8906 22.0401C14.8888 21.093 15.0814 20.1556 15.4563 19.2858C9.14674 19.6015 0.970215 20.73 0.970215 27.9447C0.970215 39.7629 28.9747 54.3293 51.146 54.3293C68.1481 54.3293 72.4329 46.6412 72.4329 40.5728C72.4329 35.7937 68.303 30.3745 60.8589 27.1378" fill="white"/>
</svg>
